<svg xmlns="http://www.w3.org/2000/svg" width="301" height="470" viewBox="0 0 301 470">
    <g fill="none" fill-rule="nonzero">
        <path fill="#182138" d="M171.982 16.483c.01 9.113-7.59 16.508-16.973 16.517-9.384.01-17-7.37-17.009-16.483C137.99 7.404 145.59.01 154.974 0c4.509-.009 8.837 1.723 12.03 4.815 3.194 3.091 4.991 7.289 4.996 11.668M138 43.44a5.5 5.5 0 1 1-5.515-5.44 5.5 5.5 0 0 1 5.5 5.5M211.521 128.898c1.636-24.685-4.218-28.853-4.218-28.853s-5.87 6.748-21.486 5.569c-26.135-1.964-32.712-15.22-49.929-9.993C119.343 100.59 122.115 129 122.115 129a12.597 12.597 0 0 0-2.996-1.093 13.305 13.305 0 0 0-3.908-.393 73.104 73.104 0 0 1-8.195-35.173c.138-20.84 20.66-18.671 20.66-18.671s15.994-40.452 85.326-45.32c69.332-4.869 35.862 42.518 18.542 52.956 0 0 16.666 23.488-13.067 46.122a12.871 12.871 0 0 0-4.08.393c-.998.246-1.958.619-2.858 1.11"/>
        <path fill="#FF5926" d="M124.476 131l-1.732-.898a11.694 11.694 0 0 0-2.736-1.002 12.92 12.92 0 0 0-3.602-.38h-.658l-.346-.57a74.526 74.526 0 0 1-8.383-36.073c0-6.579 2.096-11.673 5.993-15.127 5.472-4.852 12.92-4.939 15.292-4.835 2.563-5.44 21.803-41.202 86.384-45.761 24.765-1.727 39.07 2.867 42.55 13.728 4.452 13.936-11.603 34.053-22.513 41.15 2.702 4.646 13.127 26.421-13.855 47.074l-.311.242h-.399c-1.259-.068-2.521.06-3.74.38-.911.221-1.79.558-2.616 1.001l-1.731.985.12-1.917c1.265-19.133-1.956-25.782-3.272-27.63-2.148 1.848-8.66 6.165-21.631 5.181a80.038 80.038 0 0 1-26.826-7.08c-7.741-3.23-13.855-5.802-22.964-3.04-15.587 4.732-13.214 32.413-13.197 32.69l.173 1.882zm-7.55-4.334a17.61 17.61 0 0 1 3.567.449c.588.119 1.167.28 1.732.483-.312-6.406-.294-28.579 14.738-33.12 9.82-2.97 16.227-.294 24.35 3.108a77.296 77.296 0 0 0 26.323 6.907c14.929 1.123 20.782-5.18 20.782-5.284l.606-.69.624.638c.64.45 6.027 5.043 4.762 28.372.494-.187.997-.349 1.507-.483a14.466 14.466 0 0 1 4.035-.45c28.35-21.878 13.3-44.034 12.643-44.897l-.624-.88.918-.57c10.062-6.114 26.636-26.18 22.427-39.355-3.1-9.722-17.11-13.97-40.473-12.33-68.234 4.715-84.72 44.69-84.86 45.053l-.277.708h-.762c-.086 0-8.659-.828-14.495 4.283-3.516 3.005-5.247 7.58-5.247 13.642a74.868 74.868 0 0 0 7.724 34.416z"/>
        <path fill="#E84E24" d="M207.447 98.913s.162-.137.487-.48a17.51 17.51 0 0 0 1.23-1.458c.57-.72 1.088-1.477 1.553-2.263.253-.429.506-.892.723-1.355.217-.463.434-.96.65-1.44.393-.97.725-1.96.995-2.967.126-.48.216-.96.325-1.406.108-.446.144-.892.217-1.286a8.68 8.68 0 0 0 .144-1.097V83.583c0-.322.275-.583.615-.583.339 0 .614.261.614.583v2.864c0 .411 0 .874-.126 1.354-.127.48-.127.995-.235 1.51a26.607 26.607 0 0 1-.832 3.24c-.198.532-.361 1.08-.596 1.612s-.434 1.046-.687 1.526c-.434.893-.93 1.758-1.481 2.59a19.66 19.66 0 0 1-1.283 1.714c-.344.395-.597.669-.579.652a1.325 1.325 0 0 1-1.234.314 1.247 1.247 0 0 1-.903-.858 1.17 1.17 0 0 1 .33-1.17"/>
        <path fill="#E84E24" d="M207.483 97.947s.162-.137.488-.48c.436-.465.846-.951 1.228-1.457a20.587 20.587 0 0 0 1.518-2.264c.253-.429.506-.892.723-1.355.217-.463.434-.96.65-1.457.394-.975.726-1.971.995-2.984.126-.48.216-.96.325-1.406.108-.446.144-.892.217-1.286.072-.394.126-.772.144-1.097V82.583c0-.322.275-.583.615-.583.339 0 .614.261.614.583v2.864c0 .411 0 .891-.126 1.354-.127.463-.127.995-.235 1.51a26.64 26.64 0 0 1-.832 3.24c-.198.532-.361 1.098-.596 1.612-.235.515-.434 1.046-.687 1.526-.434.893-.93 1.758-1.481 2.59a19.676 19.676 0 0 1-1.283 1.714c-.344.395-.597.669-.579.652a1.327 1.327 0 0 1-1.807 0 1.17 1.17 0 0 1 0-1.715"/>
        <ellipse cx="220" cy="360.5" fill="#182138" rx="44" ry="34.5"/>
        <path fill="#FFF" d="M258.393 268c3.658-.023 7.01 2.022 8.634 5.27a8.705 8.705 0 0 1 6.9-.896 8.614 8.614 0 0 1 5.326 4.437c1.051-2.531 3.629-4.103 6.383-3.893 2.755.211 5.059 2.156 5.705 4.817 2.861-.25 5.386 1.844 5.639 4.68.252 2.834-1.862 5.335-4.723 5.585h-41.773L250 272.979c1.683-3.032 4.9-4.914 8.393-4.91M153.73 262.15a6.114 6.114 0 0 0-1.118.107c-.784-3.325-3.564-5.754-6.888-6.02-3.323-.265-6.436 1.694-7.712 4.855-1.303-2.68-3.636-4.681-6.437-5.522a10.246 10.246 0 0 0-8.32 1.095c-1.929-3.91-5.8-6.411-10.07-6.505-4.268-.094-8.24 2.235-10.33 6.057-2.3-2.256-5.72-2.82-8.592-1.416-2.24-3.476-5.975-5.632-10.033-5.791-4.058-.16-7.942 1.695-10.436 4.984a10.799 10.799 0 0 0-8.834-.523c-2.887 1.096-5.198 3.377-6.378 6.294-2.88-1.192-6.177-.491-8.36 1.777-2.182 2.268-2.824 5.66-1.627 8.6 1.198 2.942 4 4.857 7.106 4.858h98.03c3.462 0 6.269-2.88 6.269-6.434 0-3.554-2.807-6.435-6.27-6.435"/>
        <path fill="#FF5926" d="M153.601 275.991H55.35a8.943 8.943 0 0 1-8.084-4.377 9.04 9.04 0 0 1 0-9.228 8.943 8.943 0 0 1 8.084-4.377 8.807 8.807 0 0 1 2.238.281 12.234 12.234 0 0 1 10.878-6.592c1.597 0 3.178.317 4.652.932a13.818 13.818 0 0 1 10.827-4.62 13.829 13.829 0 0 1 10.457 5.411 8.968 8.968 0 0 1 7.87 1.072 12.78 12.78 0 0 1 10.814-5.424c4.281.123 8.217 2.39 10.487 6.04a11.628 11.628 0 0 1 14.253 3.515 8.916 8.916 0 0 1 8.43-3.538 8.946 8.946 0 0 1 7.118 5.753 7.495 7.495 0 0 1 6.559 3.664 7.575 7.575 0 0 1 .122 7.54 7.498 7.498 0 0 1-6.436 3.878l-.018.07zM55.35 260.47c-3.584 0-6.488 2.92-6.488 6.521 0 3.602 2.904 6.522 6.488 6.522H153.6a5.05 5.05 0 0 0 4.626-2.766 5.101 5.101 0 0 0-.478-5.389 5.041 5.041 0 0 0-5.04-1.9 1.242 1.242 0 0 1-1.416-.914 6.497 6.497 0 0 0-5.777-4.883 6.485 6.485 0 0 0-6.465 3.916 1.224 1.224 0 0 1-1.12.732c-.484 0-.923-.287-1.119-.732a9.228 9.228 0 0 0-5.756-4.814 9.176 9.176 0 0 0-7.413 1.07 1.219 1.219 0 0 1-1.749-.51 10.35 10.35 0 0 0-9.048-5.76 10.344 10.344 0 0 0-9.28 5.374 1.22 1.22 0 0 1-1.924.299 6.498 6.498 0 0 0-7.24-1.16 1.22 1.22 0 0 1-1.556-.44 11.373 11.373 0 0 0-9.068-5.14 11.362 11.362 0 0 0-9.435 4.42 1.22 1.22 0 0 1-1.522.333 9.701 9.701 0 0 0-4.442-1.072 9.846 9.846 0 0 0-9.112 6.1 1.222 1.222 0 0 1-1.591.667 6.39 6.39 0 0 0-2.326-.474zM292.339 289.991H250.69a1.22 1.22 0 0 1-1.207-1.197L249 273.33c-.005-.221.049-.44.156-.634 1.825-3.39 5.262-5.552 9.049-5.69 3.786-.136 7.365 1.77 9.42 5.021 4.1-1.851 8.905-.642 11.693 2.941 1.69-2.142 4.365-3.21 7.03-2.804 2.664.406 4.918 2.224 5.922 4.777 2.362-.126 4.599 1.09 5.817 3.16a6.653 6.653 0 0 1 0 6.73c-1.218 2.07-3.455 3.286-5.817 3.16h.069zm-40.441-2.466h40.475c2.196 0 3.975-1.817 3.975-4.06 0-2.241-1.78-4.059-3.975-4.059a3.8 3.8 0 0 0-.707 0 1.224 1.224 0 0 1-1.397-.915c-.543-2.2-2.401-3.801-4.616-3.977-2.215-.175-4.293 1.113-5.162 3.202-.181.443-.599.74-1.07.757a1.136 1.136 0 0 1-1.12-.687 7.458 7.458 0 0 0-4.576-3.93 7.282 7.282 0 0 0-5.927.795c-.29.185-.645.235-.974.137a1.214 1.214 0 0 1-.75-.648c-1.355-2.788-4.089-4.6-7.134-4.729-3.045-.128-5.916 1.448-7.49 4.113l.448 14.001z"/>
        <path fill="#182138" d="M261.419 257.367c11.033-7.77 15.894-23.605 10.153-37.453-4.895-11.828-15.514-18.217-26.564-23.639-13.79-6.82-31.943-15.54-31.219-33.74a.95.95 0 0 0-1.086-.985c-9.981-11.344-25.996-14.02-40.441-14.504a114.49 114.49 0 0 0-51.716 10.723c-.965.449-.5 1.727.345 1.865 4.516 31.22-37.925 39.715-54.112 58.294-5.482 6.286-9.309 15.403-3.051 22.448 7.706 8.875 21.1 9.186 28.564 18.977 11.602 15.04-4.05 28.422-15.894 36.26-11.205 7.374-23.185 14.005-33.632 22.448-16.29 13.175-21.876 33.93-7.516 51.06 11.033 13.158 27.875 15.264 42.734 10.136-1.637 20.116 6.896 40.613 26.237 49.315 14.716 6.781 32.117 3.295 43.096-8.633a62.867 62.867 0 0 0 45.045 8.15c35.821-8.634 38.304-33.706 26.96-43.842-3.86 0-3.257-4.04 0-6.095 6-3.73 15.515-19.53 16.325-23.708 0-1.244-.103-2.97 0-4.214a52.856 52.856 0 0 0-5.05-12.915 50.247 50.247 0 0 0 14.963-7.063c9.48-7.114 8.895-17.526 3.258-25.452 10.343-3.453 21.134-11.552 23.254-22.447 1.259-6.476-1.982-13.52-5.481-18.804a43.807 43.807 0 0 0-5.172-6.182z"/>
        <path fill="#FF5926" d="M120.943 433a39.054 39.054 0 0 1-16.13-3.462c-17.68-7.945-28.148-26.985-27.029-48.845-16.475 5.071-32.175.986-42.28-11.095a33.938 33.938 0 0 1-8.385-25.323c.982-10.194 6.68-19.991 16.045-27.59a233.023 233.023 0 0 1 23.24-15.923c3.444-2.164 7.007-4.397 10.433-6.664 11.569-7.65 18.025-15.076 19.195-22.103a15.775 15.775 0 0 0-3.615-12.445c-3.736-4.864-8.935-7.235-14.443-9.745-5.01-2.285-10.21-4.656-14.065-9.07-5.647-6.456-4.51-15.49 3.047-24.232 5.56-6.404 13.892-11.475 22.724-16.858 16.492-9.987 33.535-20.373 31.108-39.931a2.392 2.392 0 0 1-.964-1.731 2.044 2.044 0 0 1 1.222-2.077 114.402 114.402 0 0 1 52.232-10.853c12.326.416 29.903 2.389 40.92 14.591a2.2 2.2 0 0 1 1.085.572c.463.45.697 1.086.637 1.73-.689 17.31 16.424 25.721 30.179 32.523l.31.156c10.329 5.193 21.897 11.666 27.114 24.319 5.56 13.466 1.48 29.58-9.434 38.079a38.273 38.273 0 0 1 4.32 5.192c3.34 5.054 7.025 12.6 5.647 19.75-2.341 12.115-14.409 20.268-24.101 23.504-.41.14-.861.049-1.185-.238a1.219 1.219 0 0 1 .41-2.064c9.004-3.029 20.263-10.523 22.38-21.67 1.222-6.352-2.203-13.258-5.285-17.949a42.637 42.637 0 0 0-5.01-5.85 1.216 1.216 0 0 1 .172-1.835c10.863-7.685 15.047-23.194 9.727-36.071-4.906-11.874-15.959-18.14-25.943-23.072l-.31-.156c-13.566-6.716-32.124-15.89-31.539-34.617a1.22 1.22 0 0 1-.774-.399c-10.33-11.821-27.545-13.725-39.596-14.123a111.95 111.95 0 0 0-50.613 10.385c.274.195.455.496.5.83 3.305 21.67-14.582 32.593-31.952 43.134-8.608 5.192-16.837 10.246-22.156 16.374-2.497 2.873-10.123 12.912-3.048 20.978 3.443 4.015 8.247 6.179 13.256 8.463 5.526 2.528 11.26 5.193 15.356 10.472a18.104 18.104 0 0 1 4.098 14.332c-1.309 7.823-7.92 15.577-20.246 23.73-3.443 2.285-7.024 4.517-10.484 6.68a231.347 231.347 0 0 0-23.103 15.77c-8.848 7.182-14.237 16.39-15.15 25.962a31.558 31.558 0 0 0 7.816 23.54c9.779 11.718 25.238 15.37 41.317 9.796a1.2 1.2 0 0 1 1.138.185c.324.252.498.652.463 1.062-1.721 21.497 8.28 40.415 25.496 48.221 14.198 6.521 30.953 3.175 41.593-8.308a1.2 1.2 0 0 1 1.549-.225c22.57 14.245 50.768 11.857 69.894-5.764a1.202 1.202 0 0 1 1.722 0 1.075 1.075 0 0 1 0 1.731c-19.333 18.78-48.565 20.77-71.943 6.578a37.91 37.91 0 0 1-27.562 11.648z"/>
        <path fill="#182138" d="M89.823 263.499a13.8 13.8 0 0 1-4.163-.343l-1.969-5.563a1.038 1.038 0 0 0-1.088-.582c-1.4.12-3.455-.189-4.318 1.18a16.77 16.77 0 0 0-1.624 5.137s-2.695-.172-4.06-.172c-1.364 0-1.52 2.003-.224 2.003 1.5.035 2.995.178 4.474.428-.056.781-.056 1.565 0 2.345.138 2.072.725 2.585.45 2.945-.554.736-7.031 1.113-8.31 1.917-2.124 1.335-2.867 3.56-4.715 5.136-2.677 2.345-3.575 2.448-6.235 0a1.043 1.043 0 0 0-1.417.205c-2.988 3.424-5.804 7.053-8.446 10.785-.261.382-.232.89.07 1.241.302.351.803.46 1.225.266.127.074.268.12.415.136 9.984 1.233 21.73 4.4 31.765 3.15a.863.863 0 0 0 .725-.53c.312-.009.606-.145.812-.377.441-.617.643-1.37.57-2.123 0-1.557-.224-1.985.743-3.115a19.97 19.97 0 0 0 3.455-7.139c.552-1.712 1.727-4.416.57-6.197-1.158-1.78-4.215-1.917-6.34-2.088.16-.556.45-1.066.847-1.49a8.612 8.612 0 0 0 1.727-4.964l5.528-.36c1.157.086.829-1.9-.467-1.831z"/>
        <path fill="#FF5926" d="M76.128 220.782l.382-.522c.24-.31.638-.832 1.133-1.354a30.887 30.887 0 0 1 1.754-1.745 31.215 31.215 0 0 1 2.201-1.778 24.719 24.719 0 0 1 4.593-2.577 18.603 18.603 0 0 1 2.25-.799c.225-.04.446.09.527.308a.495.495 0 0 1-.193.59l-.558.31c-.367.179-.861.472-1.451.815-.59.342-1.26.783-1.994 1.223-.734.44-1.451.995-2.17 1.631-.717.636-1.419 1.125-2.057 1.631-.638.506-1.228 1.11-1.706 1.631-.479.522-.861.864-1.148 1.19l-.447.474a.737.737 0 0 1-.978.009.779.779 0 0 1-.154-.988M238.637 366.203a2.5 2.5 0 1 1-4.275 2.593 2.5 2.5 0 0 1 4.275-2.593"/>
        <path fill="#232639" d="M241.252 340.593a2.5 2.5 0 1 1 4.497-2.185 2.5 2.5 0 0 1-4.497 2.185"/>
        <path fill="#182138" d="M246.637 392.203a2.5 2.5 0 1 1-4.275 2.593 2.5 2.5 0 0 1 4.275-2.593M271.41 341.149c.846 1.552.777 3.524-.174 4.997-.952 1.472-2.599 2.155-4.172 1.729-1.573-.426-2.763-1.877-3.015-3.675-.252-1.798.484-3.59 1.865-4.54 1.884-1.294 4.343-.628 5.496 1.489M280.97 353.585c2.018 3.533.98 8.15-2.317 10.311-3.297 2.162-7.605 1.05-9.623-2.482-2.017-3.533-.98-8.15 2.316-10.311a6.602 6.602 0 0 1 5.292-.895c1.805.466 3.363 1.68 4.332 3.377"/>
        <path fill="#FF5926" d="M233.187 376.622a5.5 5.5 0 1 1-9.372 5.756 5.5 5.5 0 0 1 9.372-5.756"/>
        <path fill="#182138" d="M143.568 434.933a5.499 5.499 0 1 1 10.421-2.776 5.5 5.5 0 0 1-10.421 2.776M75 413.984a3 3 0 1 1-6 .032 3 3 0 0 1 6-.032M72 395.983a8 8 0 1 1-16 .034 8 8 0 0 1 16-.034"/>
        <path fill="#FF5926" d="M249.519 210l.84.265c.75.272 1.484.603 2.194.99a17.35 17.35 0 0 1 2.832 1.997c.483.424.98.884 1.448 1.379a25.36 25.36 0 0 1 1.369 1.59c.451.566.84 1.131 1.214 1.768.373.636.747 1.166 1.058 1.767.599 1.057 1.12 2.168 1.556 3.323.3.811.555 1.644.762 2.492.156.619.203.972.203.972.028.182-.06.36-.21.43-.15.068-.323.007-.413-.147l-.467-.83-1.182-2.192a109.647 109.647 0 0 0-1.68-3.005c-.328-.53-.654-1.096-1.012-1.644a25.424 25.424 0 0 0-1.136-1.608 27.98 27.98 0 0 0-1.214-1.502c-.42-.478-.84-.937-1.276-1.361a22.811 22.811 0 0 0-2.474-2.104 15.502 15.502 0 0 0-1.914-1.22l-.778-.423c-.189-.103-.282-.347-.22-.573.063-.227.262-.367.469-.329l.03-.035zM68.251 380.36h1.612c.618-.069 1.232-.174 1.838-.314.693-.174 1.49-.383 2.322-.68a51.749 51.749 0 0 0 2.687-1.046l2.981-1.326c1.04-.47 2.115-.942 3.259-1.395a48.035 48.035 0 0 1 3.466-1.221 34.368 34.368 0 0 1 3.588-.907 30.446 30.446 0 0 1 3.588-.471h3.467a22.28 22.28 0 0 1 2.998.436c1.474.327 2.904.825 4.264 1.483.486.244.867.453 1.11.61l.38.227a.355.355 0 0 1-.328.628l-.4-.175c-.26-.122-.64-.261-1.108-.453-1.34-.5-2.728-.851-4.143-1.047a22.998 22.998 0 0 0-2.843-.226h-1.56c-.537 0-1.057 0-1.629.122-1.13.108-2.253.283-3.362.523-1.144.244-2.288.54-3.467.89-1.179.348-2.27.75-3.363 1.15-1.092.402-2.184.873-3.24 1.291-1.058.419-2.08.855-3.086 1.186-1.006.332-1.959.663-2.877.872-.827.208-1.667.36-2.514.454-.658.039-1.318.039-1.976 0a9.423 9.423 0 0 1-1.265-.105h-.433a.217.217 0 0 1-.217-.218c0-.12.097-.218.217-.218"/>
        <path fill="#182138" d="M31 288.043L116 276l-13.206 23.897-47.713 5.936c-11.476 1.42-22.056-6.37-24.064-17.72"/>
        <path fill="#FF5926" d="M52.997 309c-11.344-.012-21.038-7.862-22.979-18.61-.056-.309.018-.627.206-.884.189-.257.475-.432.797-.486.323-.058.656.011.925.193.268.181.449.46.5.772 1.939 10.537 12.13 17.762 23.172 16.427.437-.052.87.125 1.134.463.265.338.322.786.15 1.176-.172.39-.548.66-.984.712-.968.137-1.943.216-2.921.237z"/>
        <path fill="#FF5926" d="M67.138 306c-14.457 0-23.493-8.754-25.12-17.543a1.221 1.221 0 0 1 .212-.927c.194-.27.488-.452.819-.509.331-.061.674.011.95.202.276.19.461.482.514.808 1.41 7.868 9.885 15.736 23.204 15.47.337-.01.663.115.905.346.242.23.378.547.378.877.005.33-.124.647-.358.882a1.277 1.277 0 0 1-.89.376l-.614.018z"/>
        <path fill="#FF5926" d="M105.195 294.988a1.202 1.202 0 0 1-1.124-.751 1.154 1.154 0 0 1 .317-1.293c4.637-4.185 8.02-9.52 9.792-15.435l-82.802 11.564c-.66.092-1.27-.354-1.366-.997-.094-.644.363-1.24 1.023-1.333l84.588-11.73a1.22 1.22 0 0 1 1.04.346c.27.273.388.655.317 1.028-1.647 7.093-5.477 13.525-10.977 18.434-.24.147-.527.206-.808.167z"/>
        <path fill="#FF5926" d="M52.313 305.221h.711c.475 0 1.05-.168 1.88-.244a22.08 22.08 0 0 0 3.102-.381c1.152-.26 2.423-.58 3.795-1.022 1.372-.442 2.847-.96 4.388-1.524 1.542-.564 3.169-1.266 4.863-1.982 1.695-.717 3.39-1.403 5.32-2.074 1.932-.67 3.745-1.28 5.677-1.814 1.926-.546 3.883-.999 5.862-1.357a55.392 55.392 0 0 1 5.863-.732c.915 0 1.88-.091 2.813-.091h2.71c1.651.098 3.293.297 4.914.595a34.565 34.565 0 0 1 7.015 2.119c.796.35 1.406.655 1.83.884l.627.335c.285.13.399.445.254.702-.145.257-.494.359-.78.228l-.643-.259c-.407-.167-1.05-.38-1.83-.655a34.957 34.957 0 0 0-6.778-1.525c-1.544-.188-3.1-.29-4.66-.305h-2.54c-.848 0-1.695.107-2.661.183a52.887 52.887 0 0 0-5.49.808c-1.864.381-3.744.808-5.608 1.342a126.329 126.329 0 0 0-5.507 1.738c-1.813.61-3.558 1.296-5.286 1.906-1.729.61-3.39 1.265-5.083 1.768-1.695.503-3.203.976-4.694 1.311-1.348.311-2.718.54-4.1.686-1.07.102-2.144.148-3.22.138a17.219 17.219 0 0 1-2.067-.138l-.711-.076c-.163-.032-.279-.162-.279-.312s.116-.28.279-.313M49 323.644s4.392-8.436 13-2.568c-3.285 4.026-8.643 5.084-13 2.568"/>
        <path fill="#182138" d="M54.576 325a11.365 11.365 0 0 1-5.265-1.378.585.585 0 0 1-.287-.361.637.637 0 0 1 .05-.472c1.267-2.219 3.258-3.845 5.58-4.559 2.81-.626 5.735.04 8.072 1.837.141.089.239.24.266.415a.63.63 0 0 1-.124.487c-2.139 2.508-5.134 3.965-8.292 4.031zm-4.193-2.177c3.767 1.845 8.198 1.008 11.16-2.11-1.96-1.361-4.338-1.838-6.62-1.326-1.831.566-3.431 1.783-4.54 3.453v-.017z"/>
        <path fill="#FF5926" d="M66 315.568s3.197-5.367 8-.583c-2.244 2.45-5.541 2.691-8 .583"/>
        <path fill="#182138" d="M70.132 317a7.417 7.417 0 0 1-4.006-1.238.354.354 0 0 1-.016-.525 6.119 6.119 0 0 1 3.819-2.213 6.543 6.543 0 0 1 4.946 1.656.354.354 0 0 1 .015.526A7.437 7.437 0 0 1 70.132 317zm-3.27-1.547a6.4 6.4 0 0 0 7.152-.387 5.68 5.68 0 0 0-4.07-1.253 5.374 5.374 0 0 0-3.083 1.578v.062z"/>
        <path fill="#FF5926" d="M93.888 357.947a1.082 1.082 0 0 1-.852-.426c-3.813-4.807-4.06-11.907-.594-17.024.373-.549 1.077-.66 1.574-.248.497.411.598 1.19.225 1.74-1.375 2.047-2.077 4.552-1.992 7.1.092 2.53.965 4.947 2.474 6.852.29.368.359.889.175 1.333-.183.444-.585.728-1.026.726l.016-.053zM76.755 342.98a.996.996 0 0 1-.393 0c-1.17-.587-2.026-1.705-2.324-3.039-.174-1.15.26-2.309 1.13-3.022 2.639-2.508 8.764.747 11.277 2.275.53.321.712 1.035.408 1.594-.303.56-.978.753-1.507.432-4.052-2.441-7.712-3.52-8.717-2.557-.487.465-.455.764-.44.847.17.531.515.98.974 1.262.532.289.759.965.518 1.544a1.101 1.101 0 0 1-.926.664zM69.92 359.994h-.181c-.695-.037-1.313-.486-1.61-1.167a2.555 2.555 0 0 1 .198-2.054 8.539 8.539 0 0 1 1.958-2.498c.449-.413 1.122-.354 1.503.131.382.486.327 1.215-.121 1.628a6.332 6.332 0 0 0-1.245 1.643c1.384-.64 2.673-1.5 3.826-2.547a1 1 0 0 1 1.08-.195c.365.156.621.518.665.941a1.19 1.19 0 0 1-.455 1.078 16.695 16.695 0 0 1-4.448 2.892 3.199 3.199 0 0 1-1.17.148zM161.084 340c-2.838-.094-5.551-1.151-7.66-2.985a1.132 1.132 0 0 1-.223-1.526c1.778-2.635 4.753-4.296 8.01-4.473 3.256-.177 6.406 1.151 8.48 3.577.09.104.16.222.207.348.19.418.11.905-.207 1.244-2.037 2.215-4.89 3.577-7.952 3.798l-.655.017zm-5.164-4.097a9.023 9.023 0 0 0 5.664 1.742 9.562 9.562 0 0 0 5.56-2.29 8.274 8.274 0 0 0-5.784-2.023c-2.109.13-4.077 1.06-5.474 2.588l.034-.017z"/>
        <path fill="#FF5926" d="M174.364 340a2.597 2.597 0 0 1-.873-.159 15.1 15.1 0 0 1-5.132-3.17 1.052 1.052 0 0 1-.273-1.206c-.01-.084-.01-.17 0-.254a8.705 8.705 0 0 1 3.096-3.266 4.776 4.776 0 0 1 1.266-.761 2.581 2.581 0 0 1 2.155.11c.602.354 1.008.933 1.112 1.587.052.39.052.783 0 1.173a12.468 12.468 0 0 0 .223 3.932c.135.47.048.972-.24 1.38a1.65 1.65 0 0 1-1.334.634zm-3.78-4.36c.84.689 1.779 1.27 2.788 1.728a14.307 14.307 0 0 1 0-3.362 3.382 3.382 0 0 0 0-.745 2.12 2.12 0 0 0-.633.396 8.634 8.634 0 0 0-2.139 1.982h-.017zM120.915 375.967c-1.323.028-2.578-.553-3.366-1.557a3.127 3.127 0 0 1-.434-2.607c.228-.93.857-1.727 1.735-2.197a4.407 4.407 0 0 1 4.46 0c1.472.899 2.074 2.652 1.44 4.197-.619 1.247-1.897 2.086-3.35 2.197l-.485-.033zm.295-4.689a1.955 1.955 0 0 0-1.024.279h-.104c-.307.15-.53.42-.607.738a.965.965 0 0 0 0 .737c.4.436 1.012.642 1.613.541a1.75 1.75 0 0 0 1.388-.803c.17-.513-.043-1.069-.52-1.36a1.606 1.606 0 0 0-.746-.116v-.016z"/>
        <path fill="#FF5926" d="M125.583 402.998a8.913 8.913 0 0 1-3.51-.69c-2.734-1.235-4.78-3.584-5.599-6.43-.767-2.746-.6-5.663.474-8.308a29.103 29.103 0 0 1 2.001-3.913 29.85 29.85 0 0 0 1.755-3.258c.404-.948 1.58-4.24-.158-6.447a1.196 1.196 0 0 1 .22-1.698 1.247 1.247 0 0 1 1.728.215 8.742 8.742 0 0 1 .474 8.843 31.925 31.925 0 0 1-1.755 3.448 27.13 27.13 0 0 0-1.755 3.603 10.476 10.476 0 0 0-.421 6.757 7.71 7.71 0 0 0 4.23 4.896 6.146 6.146 0 0 0 6.107-.707 7.115 7.115 0 0 0 1.755-7.464 13.05 13.05 0 0 0-2.053-3.948 7.82 7.82 0 0 1-.527 2.965 1.24 1.24 0 0 1-1.605.664 1.203 1.203 0 0 1-.676-1.577 8.24 8.24 0 0 0-.439-5.758 1.194 1.194 0 0 1 .396-1.538 1.245 1.245 0 0 1 1.605.176 20.27 20.27 0 0 1 5.669 8.344c1.215 3.58.178 7.529-2.65 10.084a8.31 8.31 0 0 1-5.266 1.741zM233 295.756s5.301-7.984 13-.671c-3.688 3.62-9.044 3.897-13 .671M201 312.504s3.254-5.323 8-.447c-2.27 2.413-5.565 2.597-8 .447M218 285.506s3.258-5.323 8-.453c-2.269 2.416-5.565 2.603-8 .453M193 400.504s3.254-5.323 8-.447c-2.27 2.413-5.565 2.597-8 .447M178 407.13s5.302-6.65 13-.563c-3.687 3.02-9.044 3.252-13 .563M247 290.506s3.258-5.323 8-.453c-2.269 2.416-5.565 2.603-8 .453"/>
        <path fill="#FFF" d="M154.784 384.412h-.72a1.126 1.126 0 0 0-1.175-.95 12.912 12.912 0 0 1-5.434-1.856 4.67 4.67 0 0 1-1.566-3.118c.136-.207.197-.455.172-.701v-.546a1.271 1.271 0 0 0-2.35-.64c-1.565 2.027-.312 5.067 1.473 6.502.302.233.616.452.94.654l.564.546a11.874 11.874 0 0 0 8.143 2.682c1.566 0 1.566-2.51-.047-2.573z"/>
        <ellipse cx="245" cy="321.5" fill="#182138" rx="25" ry="19.5"/>
        <path fill="#FFF" d="M229.102 335.759c.519.37 1.216.37 1.734 0 2.705-2.114 24.273-7.312 14.754-16.773-7.455-7.468-18.412 8.075-19.314 14.468l-.918.191a1.318 1.318 0 0 0-.989-.347c-5.2-3.465-13.35-6.93-16.921-1.403-2.947 4.54 1.023 8.542 5.323 8.161.184.236.43.416.71.52 4.023 1.386 7.664-1.386 10.871-3.621l.121-.122c.347.295 1.491-.658 1.873-.312.381.347.086 1.733.52 1.577.105.4.186.804.243 1.213a1.351 1.351 0 0 0-.711 1.11 15.884 15.884 0 0 1-2.636 7.45c-1.005 1.195-2.115 2.408-3.086 3.708a1.491 1.491 0 0 0-.26.156l-.59.468c-.211 0-.42.053-.606.156l-4.109 2.39a1.388 1.388 0 0 0-.555.157 1.266 1.266 0 0 0-.676.138c-.572.312-1.11.659-1.63 1.023.191-2.894-1.005-7.174-4.542-6.48-6.31-1.525-18.95 7.9-24.099 11.332-7.316.467-14.667.797-21.932 1.594-5.877.64-12.136 1.854-16.748 5.787-4.126 3.466-7.125 6.654-5.461 9.444.537 3.794 7.438 6.463 11.755 7.45.346 1.248 1.733 1.63 3.294 1.924 3.068.618 6.208.799 9.327.537 2.22 0 3.468 1.005 5.635.97.694.676 2.635.19 3.762.156 4.785-.156 14.529.676 21.967-1.16a4.388 4.388 0 0 0 4.733.328 58.33 58.33 0 0 0 4.144-2.166h.225c.716.527 1.476.99 2.271 1.387a24.283 24.283 0 0 0 8.513 2.46 3.764 3.764 0 0 0 4.057-.52l.59-.086a1.422 1.422 0 0 0 1.213-2.097 6.498 6.498 0 0 0-2.046-2.616 1.457 1.457 0 0 0-.728-.364 20.809 20.809 0 0 0-6.19-3.362c.312-.248.586-.54.815-.866a10.143 10.143 0 0 0 3.762-2.495c4.057-1.421 7.456-5.718 9.848-8.837l1.335-1.733a1.37 1.37 0 0 0 1.37-.607c4.612-6.723 6.675-12.475 4.664-19.684a24.527 24.527 0 0 0-3.85-9.928 1.352 1.352 0 0 0-.849-.607l.017-.069zm-24.792 23.93l.225-.105-.156.468-1.82.121.797-.571c.291.165.642.19.954.069v.017zm-14.269 1.732l-.138.156a1.507 1.507 0 0 0-.174.277h-.121a3.467 3.467 0 0 0-1.04-.849l.814-.502c.082.407.326.764.677.987l-.018-.069z"/>
        <path fill="#FF5926" d="M56.906 359.973h-.241a3.745 3.745 0 0 1-2.967-.943 3.67 3.67 0 0 1-1.204-2.847 6.034 6.034 0 0 1 2.964-4.95 6.025 6.025 0 0 1-2.878-2.186 3.742 3.742 0 0 1-.448-2.987 3.697 3.697 0 0 1 2.31-2.68c3.446-1.264 9.202 1.912 10.58 2.868a75.813 75.813 0 0 1 16.562-5.122c1.5-.307 5.876-.888 7.462-.99l2.137-.12c3.119-.085 13.424 0 15.923 4.37a5.859 5.859 0 0 1 .155 5.959c-2.774 5.002-13.028 7.613-17.922 7.887a57.884 57.884 0 0 1-20.973-2.34l-1.861-.563a66.32 66.32 0 0 1-3.326 2.322 13.138 13.138 0 0 1-6.273 2.322zm1.379-7.631c-2.24 1.16-3.447 2.458-3.447 3.858 0 .905 0 1.315 1.844 1.383a9.931 9.931 0 0 0 5.17-1.912l1.723-1.212a36.077 36.077 0 0 1-5.308-2.117h.018zm2.67-1.417a81.545 81.545 0 0 0 8.118 2.612 55.815 55.815 0 0 0 20.214 2.253c4.55-.273 13.787-2.714 15.94-6.657a3.489 3.489 0 0 0-.154-3.637c-1.344-2.407-8.048-3.294-13.787-3.14l-2.068.119c-1.482.102-5.756.666-7.134.956a74.561 74.561 0 0 0-21.146 7.494h.018zm-4.618-5.446a2.903 2.903 0 0 0-1 .154 1.3 1.3 0 0 0-.861 1.024c-.119.378-.069.788.138 1.127a6.07 6.07 0 0 0 3.67 1.844 86.49 86.49 0 0 1 4.154-2.151 15.316 15.316 0 0 0-6.118-1.998h.017zM250.57 320.61c-1.255-2.783-4.983-4.148-9.303-3.413-4.257.669-8.1 2.94-10.75 6.355a16.226 16.226 0 0 0-3.135 9.12 20.568 20.568 0 0 0-12.718-4.691 9.4 9.4 0 0 0-7.544 2.906 7.258 7.258 0 0 0 0 8.753 9.038 9.038 0 0 0 8.032 3.256 19.349 19.349 0 0 0 6.968-2.574 20.852 20.852 0 0 1 5.07-2.153 19.282 19.282 0 0 1-7.491 13.813 27.497 27.497 0 0 1-4.46 2.94 6.703 6.703 0 0 0-2.37-5.916 8.674 8.674 0 0 0-7.648-.596 25.03 25.03 0 0 0-5.47 2.941l-.767.508a77.532 77.532 0 0 1-20.714 9.26 93.654 93.654 0 0 0-24.077 3.432c-11.29 3.501-15.104 10.119-15.192 12.762-.122 4.044 7.7 9.243 14.774 11.379a84.323 84.323 0 0 0 24.39 3.396 122.034 122.034 0 0 0 26.551-3.22c.085-.027.167-.062.244-.106a24.542 24.542 0 0 0 11.725 4.237h.906a8.274 8.274 0 0 0 3.153-.56 5.05 5.05 0 0 0 3.136-3.38 5.165 5.165 0 0 0-1.063-4.253 9.939 9.939 0 0 0-3.031-2.434 20.219 20.219 0 0 0-2.073-.998 74.31 74.31 0 0 0 13.153-11.974 30.503 30.503 0 0 0 7.3-17.681 20.209 20.209 0 0 0-5.053-14.268 25.03 25.03 0 0 0 11.324-5.094c7.318-5.9 6.97-9.82 6.133-11.746zm-35.697 19.888a6.535 6.535 0 0 1-5.836-2.311 5.042 5.042 0 0 1-.976-3.502 19.394 19.394 0 0 0 10.767 4.552 12.275 12.275 0 0 1-3.938 1.26h-.017zm-5.75-8.228a6.725 6.725 0 0 1 4.374-1.751 15.195 15.195 0 0 0 8.71 6.302 16.97 16.97 0 0 1-13.083-4.551zm7.51-1.751a18.842 18.842 0 0 1 9.46 4.237 12.742 12.742 0 0 1-9.443-4.167l-.018-.07zm15.853-5.567l.227-.263a13.015 13.015 0 0 1-2.84 9.419 13.948 13.948 0 0 1 2.63-9.086l-.017-.07zm-23.92 25.366a5.311 5.311 0 0 1 2.927.753 4.99 4.99 0 0 1 .94 5.252 46.455 46.455 0 0 1-8.1 2.503 19.713 19.713 0 0 0 4.233-8.437v-.07zm-8.083 3.73a1.073 1.073 0 0 0 0-.14l.557-.35a22.823 22.823 0 0 1 4.913-2.68 19.123 19.123 0 0 1-5.801 8.754 67.064 67.064 0 0 1-3.206.437 12.372 12.372 0 0 0 3.537-6.022zm-9.042 17.978c.149-.69.202-1.396.156-2.1 1.204.17 2.377.511 3.485 1.015a6.705 6.705 0 0 1 3.484 3.378 6.01 6.01 0 0 1-1.08 5.865 6.967 6.967 0 0 1-3.868 2.608 6.338 6.338 0 0 0-1.585-4.376 9.369 9.369 0 0 0-3.293-2.17 7.286 7.286 0 0 0 2.718-4.29l-.017.07zm-3.485-8.753c2.718-.14 5.453-.315 8.189-.613a9.47 9.47 0 0 1-5.227 4.29 9.078 9.078 0 0 0-2.927-3.66l-.035-.017zm8.119 5.357a12.802 12.802 0 0 0-1.742-.683 12.344 12.344 0 0 0 4.512-5.374c2.56.402 5.104 1.96 5.4 4.236a6.096 6.096 0 0 1-3.623 6.18 9.253 9.253 0 0 0-4.512-4.342l-.035-.017zm1.028-12.78a13.975 13.975 0 0 1-4.216 4.394 1.17 1.17 0 0 0-.21.21c-1.968.158-3.937.263-5.888.35a81.033 81.033 0 0 0 10.349-5.006l-.035.052zm-19.164 7.93a12.96 12.96 0 0 1 8.52 1.489 6.281 6.281 0 0 1 2.525 6.144 4.761 4.761 0 0 1-4.582 3.66h-.296a1.214 1.214 0 0 0-.523 0 7.482 7.482 0 0 0-2.334-2.714 12.368 12.368 0 0 0-4.843-1.856 8.206 8.206 0 0 0 1.533-6.705v-.017zm3.693 15.354c-.836 1.61-3.17 1.995-5.226 2.1a19.2 19.2 0 0 0-1.237-7.475c-.14-.367-.314-.7-.47-1.033 1.852.176 3.64.774 5.226 1.751a4.053 4.053 0 0 1 1.707 4.674v-.017zm-9.913 9.926c-.05.1-.084.205-.104.315a78.56 78.56 0 0 1-17.195-3.064c-7.736-2.328-13.084-7.195-13.032-8.945 0-1.05 2.491-7.003 13.467-10.504a59.388 59.388 0 0 1 7.875-1.75 1.2 1.2 0 0 0 .366.21 15.05 15.05 0 0 1 9.72 9.435 17.142 17.142 0 0 1-1.097 14.303zm1.568-18.837a17.197 17.197 0 0 0-6.045-5.812c2.7-.298 5.418-.49 8.136-.63a5.582 5.582 0 0 1-2.021 6.424l-.07.018zm.941 19.257a19.321 19.321 0 0 0 1.847-5.585 9.165 9.165 0 0 1 5.906 5.585 94.972 94.972 0 0 1-7.736 0h-.017zm10.087-.806a11.722 11.722 0 0 0-4.233-5.531 5.91 5.91 0 0 0 3.728-2.836c.44-.845.634-1.798.557-2.749a10.531 10.531 0 0 1 5.82 2.468 5.273 5.273 0 0 1 0 6.093 7.18 7.18 0 0 1-5.854 2.555h-.018zm6.725 0c.448-.387.84-.835 1.167-1.33.412-.66.734-1.372.958-2.118a9.004 9.004 0 0 0 4.635-2.083 74.32 74.32 0 0 0 4.477 3.658c-3.81.852-7.55 1.5-11.22 1.944l-.017-.07zm19.425.193c.37-2.424.038-4.904-.958-7.142 1.114.13 2.22.328 3.31.595a13.827 13.827 0 0 1 2.195 7.913 20.134 20.134 0 0 1-4.53-1.296l-.017-.07zm10.453-2.608c.517.602.74 1.404.61 2.188a2.638 2.638 0 0 1-1.62 1.75 6.053 6.053 0 0 1-2.387.368c.1-2.45-.352-4.892-1.324-7.142.832.315 1.642.69 2.421 1.12a7.654 7.654 0 0 1 2.248 1.786l.052-.07zm14.843-34.68a28.08 28.08 0 0 1-6.742 16.21 75.717 75.717 0 0 1-13.606 12.255 1.223 1.223 0 0 0-.314.35 29.278 29.278 0 0 0-7.421-1.225c-.424.002-.82.211-1.063.56a1.23 1.23 0 0 0 0 1.208 13.69 13.69 0 0 1 1.742 6.827 50.709 50.709 0 0 1-8.71-6.39 8.678 8.678 0 0 0 1.741-6.022c3.604-1.378 5.83-5.023 5.419-8.875a6.826 6.826 0 0 0-3.485-4.902h.331a39.206 39.206 0 0 0 17.666-7.598 21.53 21.53 0 0 0 8.397-16.28h.174a17.214 17.214 0 0 1 5.82 13.952l.051-.07zm-3.484-16.613a15.588 15.588 0 0 0 2.544-12.395 14.72 14.72 0 0 1 3.972-2.24 17.543 17.543 0 0 1-6.498 14.705l-.018-.07zm5.871-2.889a19.558 19.558 0 0 0 3.032-12.412l.505-.105c.575-.1 1.158-.152 1.742-.157h.801c.558 4.061-2.212 9.4-6.08 12.744v-.07zm5.087-1.978a17.648 17.648 0 0 0 3.485-10.031c.67.297 1.217.816 1.55 1.47.976 2.066-.94 5.252-5.035 8.63v-.07z"/>
        <path fill="#FF5926" d="M162.714 383a24.073 24.073 0 0 1-10.28-2.6c-4.022-1.966-7.554-2.924-11.715-1.235-.623.252-1.347-.014-1.617-.593s.015-1.251.638-1.503c5.368-2.177 9.826-.666 13.847 1.3 3.6 1.944 7.813 2.673 11.924 2.064.662-.135 1.316.254 1.46.869.145.615-.274 1.222-.935 1.357a16.884 16.884 0 0 1-3.322.341zM162.982 377a1.982 1.982 0 0 1-1.9-1.402c-.25-.83.083-1.723.819-2.196l.177-.08c.191-.185.443-.298.71-.318a2.097 2.097 0 0 1 2.148 1.48 2.03 2.03 0 0 1-1.146 2.357c-.255.107-.53.162-.808.159zM120.592 369a1.206 1.206 0 0 1-1.17-.933c-4.355-18.084 5.971-36.86 17.399-46.636 9.74-8.325 21.736-13.42 33.353-18.343a733.132 733.132 0 0 0 6.488-2.78c12.856-5.615 27.105-13.042 35.383-25.53 1.997-3.005 5.026-8.809 2.978-13.818-2.324-5.7-9.896-7.427-15.661-7.168-12.305.536-23.698 6.633-31.185 11.158-3.442 2.09-6.884 4.353-10.326 6.546a183.698 183.698 0 0 1-18.93 11.349c-4.664 2.314-8.193 2.556-10.757.708-3.975-2.833-3.115-8.93-.31-13.231a56.105 56.105 0 0 1 8.09-9.137c.842-.812 1.72-1.641 2.495-2.47 3.063-3.11 6.746-7.324 8.002-12.333 1.067-4.266 0-9.914-4.061-12.436-3.442-2.176-8.743-2.02-13.286.397-11.634 6.184-15.283 14.526-19.138 23.353-3.442 8.049-7.16 16.391-17.055 23.249a1.21 1.21 0 0 1-1.687-.311 1.22 1.22 0 0 1 .31-1.693c9.345-6.46 12.839-14.474 16.212-22.213 3.855-8.826 7.83-17.946 20.204-24.527 5.284-2.815 11.445-2.936 15.679-.328 5.077 3.127 6.436 9.966 5.163 15.096-1.394 5.58-5.335 10.105-8.605 13.438-.826.847-1.721 1.728-2.53 2.505a54.379 54.379 0 0 0-7.762 8.74c-1.876 2.867-3.218 7.842-.31 9.914 1.721 1.279 4.492.968 8.278-.915a182.082 182.082 0 0 0 18.639-11.193c3.356-2.193 6.884-4.473 10.326-6.598 7.727-4.663 19.464-10.95 32.32-11.503 6.884-.311 15.214 1.813 18.002 8.636 1.841 4.508.705 10.225-3.201 16.115-8.605 13.024-23.251 20.727-36.434 26.41-2.168.95-4.337 1.865-6.522 2.798-11.445 4.854-23.268 9.863-32.7 17.964-10.893 9.31-20.737 27.117-16.624 44.217a1.213 1.213 0 0 1-.895 1.468l-.172.035z"/>
        <path fill="#FFF" d="M243.09 229.277a4.919 4.919 0 0 0-1.833.364 6.967 6.967 0 0 0-4.013-3.885 7.029 7.029 0 0 0-5.596.292c-2.031-3.55-6.034-5.512-10.106-4.954-4.071.558-7.39 3.524-8.377 7.488a5.448 5.448 0 0 0-5.472-2.316 5.419 5.419 0 0 0-4.329 4.052 4.435 4.435 0 0 0-4.449 1.615 4.368 4.368 0 0 0-.424 4.686 4.425 4.425 0 0 0 4.087 2.378h40.513c2.711 0 4.909-2.184 4.909-4.877 0-2.694-2.198-4.878-4.91-4.878v.035z"/>
        <path fill="#FF5926" d="M242.426 239H202.57c-3.076 0-5.569-2.463-5.569-5.501 0-3.038 2.493-5.501 5.569-5.501a6.524 6.524 0 0 1 4.344-3.748 6.612 6.612 0 0 1 5.659 1.099c1.67-3.552 5.13-5.955 9.077-6.305 3.949-.35 7.786 1.406 10.07 4.607a8.099 8.099 0 0 1 2.578-.424c2.895-.002 5.572 1.518 7.03 3.99a6 6 0 0 1 1.185-.12 6.055 6.055 0 0 1 5.602 2.835 5.898 5.898 0 0 1 0 6.217 6.055 6.055 0 0 1-5.602 2.834l-.086.017zm-39.857-8.608c-1.742 0-3.154 1.395-3.154 3.115 0 1.721 1.412 3.116 3.154 3.116h39.857c1.47.01 2.801-.856 3.37-2.194a3.55 3.55 0 0 0-.77-3.914 3.659 3.659 0 0 0-3.958-.786 1.208 1.208 0 0 1-1.564-.645 5.675 5.675 0 0 0-3.27-3.133 5.77 5.77 0 0 0-4.55.23 1.21 1.21 0 0 1-1.581-.475c-1.756-3.048-5.212-4.732-8.728-4.254-3.516.479-6.383 3.024-7.24 6.427a1.21 1.21 0 0 1-2.166.374 4.164 4.164 0 0 0-4.16-1.746 4.122 4.122 0 0 0-3.298 3.053c-.153.605-.753.99-1.375.883a3.235 3.235 0 0 0-.567-.051z"/>
        <path fill="#182138" d="M270 302.5a2.5 2.5 0 1 1-5 0 2.5 2.5 0 0 1 5 0"/>
        <path fill="#E84E24" d="M199.204 142L197 140.95A69.889 69.889 0 0 1 213.386 120l1.614 1.885A68.781 68.781 0 0 0 199.204 142z"/>
        <path fill="#FFF" d="M122.68 128.508a11.367 11.367 0 0 0-11.003-.172c-5.759 3.08-7.136 8.759-4.132 14.489a69.35 69.35 0 0 0 4.58 6.883c2.174 3.167 3.32 7.038 5.958 9.826 1.86 1.893 5.51 3.442 7.917 1.72"/>
        <path fill="#FF5926" d="M123.098 162c-2.54-.113-4.95-1.106-6.776-2.792a22.75 22.75 0 0 1-4.237-6.043 31.472 31.472 0 0 0-2.324-3.83c-.465-.613-.93-1.208-1.395-1.821a43.482 43.482 0 0 1-3.576-5.107c-1.754-2.777-2.244-6.114-1.358-9.243 1.055-2.97 3.342-5.4 6.329-6.724a14.624 14.624 0 0 1 13.033.188c.39.212.63.607.632 1.035.001.427-.237.823-.626 1.038a1.312 1.312 0 0 1-1.257.003 11.934 11.934 0 0 0-10.728-.136c-2.354 1.017-4.178 2.895-5.06 5.209a9.158 9.158 0 0 0 1.163 7.405 40.94 40.94 0 0 0 3.415 4.834c.482.613.965 1.225 1.43 1.855a33.695 33.695 0 0 1 2.521 4.12 20.66 20.66 0 0 0 3.772 5.447c1.627 1.515 4.935 2.91 6.92 1.583.577-.39 1.378-.26 1.787.29.41.55.274 1.311-.303 1.701a5.943 5.943 0 0 1-3.362.988z"/>
        <path fill="#FF5926" d="M111.03 136.956l.113-.27c.133-.25.285-.49.454-.718a5.212 5.212 0 0 1 4.831-1.914c.39.06.772.167 1.135.319a.779.779 0 0 1 .433.775.785.785 0 0 1-.579.676h-.26c-.162 0-.405 0-.664.096a8.329 8.329 0 0 0-1.8.462 7.832 7.832 0 0 0-1.62.91c-.228.159-.406.27-.552.398l-.243.175a.803.803 0 0 1-1.102-.207.772.772 0 0 1-.146-.702M118.009 152.429v-.254a2.938 2.938 0 0 1 0-.398 3.316 3.316 0 0 1 0-.476c.199-1.562 1-2.959 2.204-3.846.3-.212.634-.363.985-.445.27-.048.54.081.69.329.15.247.15.567 0 .815l-.19.238-.104.143c-.073.08-.161.239-.293.414-.133.174-.574.874-.882 1.398-.309.525-.603 1.065-.764 1.462a2.471 2.471 0 0 1-.118.239s0 .079-.073.174c-.074.096 0 .255 0 .255a.761.761 0 0 1-.371.447.67.67 0 0 1-.555.03.767.767 0 0 1-.441-.477"/>
        <path fill="#FFF" d="M213.32 128.508a11.367 11.367 0 0 1 11.003-.172c5.759 3.08 7.136 8.759 4.132 14.489a69.35 69.35 0 0 1-4.58 6.883c-2.174 3.167-3.32 7.038-5.958 9.826-1.86 1.893-5.51 3.442-7.917 1.72"/>
        <path fill="#FF5926" d="M211.904 162a5.982 5.982 0 0 1-3.37-.969 1.171 1.171 0 0 1-.529-1.084 1.2 1.2 0 0 1 .726-.976 1.32 1.32 0 0 1 1.256.107c2.007 1.325 5.377 0 6.936-1.58a20.6 20.6 0 0 0 3.782-5.417 33.681 33.681 0 0 1 2.456-4.11l1.434-1.852a40.849 40.849 0 0 0 3.423-4.823c1.478-2.218 1.926-4.915 1.237-7.456-.867-2.344-2.705-4.252-5.09-5.282a12.034 12.034 0 0 0-10.755.136c-.604.328-1.374.13-1.72-.442-.347-.572-.138-1.302.465-1.63a14.743 14.743 0 0 1 13.067-.187c2.994 1.32 5.287 3.745 6.345 6.709.889 3.121.397 6.451-1.362 9.222a43.383 43.383 0 0 1-3.585 5.095c-.466.594-.95 1.206-1.398 1.817a31.29 31.29 0 0 0-2.33 3.822 22.698 22.698 0 0 1-4.248 6.029c-1.803 1.702-4.2 2.723-6.74 2.87z"/>
        <path fill="#FF5926" d="M223.709 137.807l-.241-.173c-.145-.11-.322-.22-.548-.392a8.01 8.01 0 0 0-1.61-.894 8.53 8.53 0 0 0-1.787-.455c-.273 0-.499-.079-.66-.095h-.273a.775.775 0 0 1-.585-.66.765.765 0 0 1 .424-.767c.36-.15.74-.255 1.126-.314 1.853-.276 3.71.466 4.83 1.93.167.224.318.46.451.706l.113.267a.763.763 0 0 1-.451.988.806.806 0 0 1-.725-.078M215.492 152.488v-.256c0-.16 0-.112-.073-.176a2.4 2.4 0 0 1-.118-.24c-.176-.385-.47-.93-.764-1.474a14.02 14.02 0 0 0-.896-1.41c-.25-.352-.22-.32-.294-.416l-.103-.144-.132-.209a.81.81 0 0 1 0-.822.67.67 0 0 1 .69-.331c.35.083.685.235.985.448 1.203.897 2.003 2.304 2.204 3.877.012.16.012.32 0 .48.01.134.01.268 0 .401v.256a.766.766 0 0 1-.37.452.666.666 0 0 1-.555.029.77.77 0 0 1-.441-.48"/>
        <path fill="#FFF" d="M210.37 97.47a28.119 28.119 0 0 1-18.696 7.556c-2.997 0-5.972-.503-8.802-1.49-.676 0-1.351.087-2.027.087a26.42 26.42 0 0 1-14.416-4.229 25.987 25.987 0 0 1-7.918-3.067 26.299 26.299 0 0 1-9.339-2.686h-.467c-1.97 0-3.934-.215-5.857-.641a26.957 26.957 0 0 1-7.745 1.958 29.594 29.594 0 0 1-6.722 5.545 25.995 25.995 0 0 1-5.06 10.398 87.02 87.02 0 0 0 .104 16.063c1.23 13.95 5.198 55.8 5.198 55.8a22.078 22.078 0 0 0 6.48 13.498c7.087 7.157 17.188 19.755 33.596 19.738 18.314 0 26.475-12.65 33.544-19.824a22.06 22.06 0 0 0 6.238-13.5s3.933-41.848 5.198-55.815c.866-11.87.052-21.402-3.31-29.39z"/>
        <path fill="#FF5926" d="M168.587 216c-15.108 0-24.84-10.108-31.945-17.5-.83-.86-1.625-1.72-2.386-2.442a23.12 23.12 0 0 1-6.603-14.114c0-.412-4.426-42.084-5.653-55.785l2.42-.206c1.21 13.753 5.6 55.338 5.653 55.768a20.7 20.7 0 0 0 5.912 12.704c.76.774 1.573 1.599 2.403 2.476 6.81 7.065 16.128 16.744 30.2 16.744 14.97 0 22.886-8.733 29.248-15.713 1.158-1.272 2.264-2.493 3.353-3.576a20.7 20.7 0 0 0 5.878-12.652c0-.413 3.941-41.672 5.186-55.356 1.054-12.12-.311-20.027-3.458-27.42l2.23-.928c3.285 7.753 4.702 16.022 3.613 28.554-1.175 13.753-5.082 55.012-5.186 55.373a23.101 23.101 0 0 1-6.569 14.114c-1.054 1.066-2.126 2.252-3.284 3.438-6.327 6.877-15.005 16.504-31.116 16.521h.104z"/>
        <path fill="#E84E24" d="M155.063 183.237l.26.104.782.297a27.29 27.29 0 0 0 2.884.87c1.378.34 2.776.59 4.186.75.764.105 1.58.174 2.38.227.798.052 1.736 0 2.448 0h2.502c.764 0 1.615-.122 2.38-.227a33.875 33.875 0 0 0 4.168-.784c.967-.25 1.919-.558 2.848-.924.66-.261 1.025-.453.99-.435a.693.693 0 0 1 1.008.279.873.873 0 0 1-.26 1.115c-.356.256-.727.49-1.112.697-.958.514-1.957.946-2.988 1.29-1.43.487-2.901.848-4.394 1.08-.817.122-1.737.226-2.519.296a40.37 40.37 0 0 1-2.57.122c-.834.018-1.737 0-2.64-.104-.904-.105-1.738-.157-2.52-.28a21.857 21.857 0 0 1-2.327-.47 26.826 26.826 0 0 1-2.067-.592 22.66 22.66 0 0 1-3.005-1.22c-.347-.174-.625-.331-.816-.436l-.295-.174a.855.855 0 0 1-.296-1.098.694.694 0 0 1 .904-.366l.07-.017zM171.92 199.861l-.424-.148c-.282 0-.705-.21-1.207-.337a12.06 12.06 0 0 0-1.74-.296h-4.125c-.643 0-1.24.17-1.741.296-.529.123-1.052.285-1.568.485-.351.28-.804.124-1.012-.348-.208-.472-.092-1.081.259-1.36a6.696 6.696 0 0 1 1.85-1.246 8.752 8.752 0 0 1 1.96-.654 11.295 11.295 0 0 1 2.275-.253h1.192c.392 0 .768.105 1.129.19.666.15 1.322.376 1.96.675.457.219.902.48 1.333.78l.36.275.142.127.157.147c.296.315.368.88.166 1.309-.202.43-.612.584-.95.358"/>
        <path fill="#EA5D37" d="M134.788 165.794c5.005 1.053 11.916-2.03 11.154-6.972a4.69 4.69 0 0 0-1.04-2.246c-2.078-2.294-5.55-3.164-8.66-2.17-3.844 1.039-7.741 4.649-5.663 8.506.84 1.5 2.405 2.568 4.243 2.897M191.788 165.794c5.005 1.053 11.916-2.03 11.154-6.972a4.69 4.69 0 0 0-1.04-2.246c-2.078-2.294-5.55-3.164-8.66-2.17-3.844 1.039-7.741 4.649-5.663 8.506.84 1.5 2.405 2.568 4.243 2.897" opacity=".2"/>
        <path fill="#182138" d="M188 142.5a3.5 3.5 0 1 0 7 0 3.5 3.5 0 0 0-7 0"/>
        <path fill="#182138" d="M198.445 140.098l-.54-.24a13.012 13.012 0 0 0-1.445-.462 14.375 14.375 0 0 0-4.683-.334c-1.59.118-3.145.529-4.588 1.211-.267.117-.527.25-.778.399l-.556.366-.476.319a.877.877 0 0 0-.127 1.339 1.14 1.14 0 0 0 1.048.27h.127l.492-.143c.302-.095.73-.239 1.254-.382.254 0 .524-.175.826-.223.301-.048.603-.176.92-.223.318-.048.651-.16 1-.192.35-.032.683-.127 1.049-.16a19.72 19.72 0 0 1 2.08-.143h1.84c.54 0 .985 0 1.287.112h.46a1.078 1.078 0 0 0 1.286-.494.8.8 0 0 0-.508-1.116M204.303 128.233a1.9 1.9 0 0 0 1.697-1.666 7.684 7.684 0 0 0-1.426-4.366c-1.477-1.75-15.277-1.666-23.51.767-1.935.34-3.267 2.1-3.039 4.016l.544 2.416c.692 1.94 2.806 3.015 4.82 2.45l20.914-3.617zM148 142.5a3.5 3.5 0 1 1-7 0 3.5 3.5 0 0 1 7 0"/>
        <path fill="#182138" d="M137.555 140.098l.54-.24c.472-.181.955-.336 1.445-.462a14.375 14.375 0 0 1 4.683-.334c1.59.118 3.145.529 4.588 1.211.267.117.527.25.778.399l.556.366.476.319a.877.877 0 0 1 .127 1.339 1.14 1.14 0 0 1-1.048.27h-.127l-.492-.143c-.302-.095-.73-.239-1.254-.382-.254 0-.524-.175-.826-.223-.301-.048-.603-.176-.92-.223-.318-.048-.651-.16-1-.192-.35-.032-.683-.127-1.049-.16a19.72 19.72 0 0 0-2.08-.143h-1.84c-.54 0-.985 0-1.287.112h-.46a1.078 1.078 0 0 1-1.286-.494.8.8 0 0 1 .508-1.116M131.697 128.233a1.9 1.9 0 0 1-1.697-1.666 7.684 7.684 0 0 1 1.426-4.366c1.477-1.75 15.277-1.666 23.51.767 1.935.34 3.267 2.1 3.039 4.016l-.544 2.416c-.692 1.94-2.806 3.015-4.82 2.45l-20.914-3.617z"/>
        <path fill="#FF5926" d="M122.19 128c-.12-1.197-2.603-29.501 14.606-34.717 9.794-2.976 16.164-.29 24.229 3.13a76.238 76.238 0 0 0 25.993 6.84c14.657 1.112 20.342-5.13 20.393-5.13l.72-.821.89.633c.65.461 6.301 5.284 4.692 29.98l-2.397-.154c1.198-18.317-1.713-25.038-3.1-27.107-2.328 1.932-8.835 5.986-21.37 5.045a79.323 79.323 0 0 1-26.746-7.046c-7.91-3.318-13.698-5.712-22.602-3.01-15.41 4.652-12.945 31.912-12.911 32.203l-2.397.154z"/>
        <path fill="#FF5926" d="M207.483 97.947s.162-.137.488-.48c.436-.464.847-.951 1.228-1.457a20.468 20.468 0 0 0 1.518-2.264c.253-.429.506-.892.723-1.355.217-.463.434-.96.65-1.457.394-.975.725-1.972.995-2.984.126-.48.216-.96.325-1.406.108-.446.144-.892.217-1.286.072-.394.126-.772.144-1.097V82.583c0-.322.275-.583.615-.583.339 0 .614.261.614.583v2.864c0 .411 0 .891-.126 1.354-.127.463-.127.995-.235 1.51a26.64 26.64 0 0 1-.832 3.24c-.198.532-.361 1.098-.596 1.612s-.434 1.046-.687 1.526c-.434.893-.93 1.758-1.481 2.59a19.677 19.677 0 0 1-1.283 1.714c-.344.395-.597.669-.579.652a1.325 1.325 0 0 1-1.234.314 1.247 1.247 0 0 1-.903-.858 1.17 1.17 0 0 1 .33-1.17"/>
        <path fill="#182138" d="M212.522 186.96c.057-.25 0-.511-.155-.713-3.033-4.4-10.668-3.93-15.39-4.557a21.565 21.565 0 0 1-13.89-6.661 12.551 12.551 0 0 0-6.203-4.017 1.017 1.017 0 0 0-1.132.743c-.136.501.12 1.026.598 1.222.982.243-.362.939.482 1.443a.979.979 0 0 0-.138.33c-.482 2.47-1.292 1.931-2.93 2.592-3.67 1.496-3.618 4.018-9.116 1.548-1.189-.54-2.533-1.374-3.722-1.965-1.189-.592-3.05 0-3.257-2.905 0-.191.086-.33 0-.487.258-.104.5-.243.758-.33 1.224-.418.707-2.4-.534-1.965a21.003 21.003 0 0 0-6.807 4.417c-4.377 3.635-8.789 4.765-13.924 6.609-5.136 1.843-11.133 5.478-11.098 11.687a.965.965 0 0 0 0 .174.983.983 0 0 0 0 .104c-.63 8.827 3.448 17.324 10.701 22.297 8.962 5.652 20.887 11.043 31.45 12.26 24.127 2.783 35.983-22.26 44.703-40.54.197-.468.03-1.012-.396-1.286z"/>
        <path fill="#FF5926" d="M166.9 184l.167.12.486.359c.684.516 1.394.996 2.128 1.435a26.23 26.23 0 0 0 2.798 1.316c.52.223 1.073.428 1.676.616s1.156.359 1.675.53c.52.17 1.207.324 1.76.444.552.12 1.156.24 1.675.325a26.76 26.76 0 0 0 3.05.342c.72.041 1.44.041 2.16 0h.772a.528.528 0 0 1 .573.09.554.554 0 0 1 .156.571.54.54 0 0 1-.445.381 7.3 7.3 0 0 1-.904.222c-.77.143-1.548.223-2.33.24a28.736 28.736 0 0 1-13.403-2.94 15.962 15.962 0 0 1-3.217-2.17l-.486-.445-.168-.171c-.217-.205 1.156-.616 1.374-.82.218-.206.218-.513.436-.36l.067-.085zM159.04 171.007a14.946 14.946 0 0 0-7.725 3.34 34.895 34.895 0 0 1-7.795 4.891c-2.501.947-5.174 1.171-7.675 2.015-7.433 2.462-12.658 9.316-15.745 16.204-.535 1.171 1.224 2.204 1.725 1.016 3.76-8.403 9.502-13.983 18.539-16.187a27.067 27.067 0 0 0 6.674-2.394c4.104-2.221 6.898-6.354 11.968-6.888 1.31-.12 1.328-2.135.035-1.997zM202.844 181.423c-5.74-1.737-11.329-1.025-16.095-5.212-3.559-3.144-5.891-5.02-10.792-5.211-1.276 0-1.276 1.998 0 2.05 7.2.226 10.07 7.435 17.052 8.685 10.322 1.842 22.86 4.534 23.01 18.24 0 .566.444 1.025.99 1.025.548 0 .991-.459.991-1.025-.151-9.432-6.764-15.93-15.156-18.552z"/>
        <path fill="#FF5926" d="M167.422 184.173c-5.802 3.603-13.131 4.82-20.056 3.33-1.376-.283-1.955 1.571-.58 1.838 7.502 1.59 15.43.271 21.722-3.613 1.159-.613.054-2.262-1.086-1.555zM169.12 182c-.619 0-1.12-.535-1.12-1.195s.501-1.196 1.12-1.196c1.463-.161 2.789-.997 3.629-2.288a1.591 1.591 0 0 1 1.199-.802c.154.005.305.04.448.102.735.31 1.574.066 2.062-.597.352-.444.704-.888-.8-3.125a1.268 1.268 0 0 1-.111-1.193 1.13 1.13 0 0 1 .911-.7c.4-.043.79.145 1.024.493 1.31 1.946 2.286 4.03.687 6.061-.935 1.22-2.42 1.797-3.87 1.503-1.243 1.738-3.135 2.81-5.18 2.937zM166.96 182c-2.073-.102-3.998-1.177-5.26-2.937-1.45.294-2.934-.283-3.87-1.503-1.598-2.031-.623-4.115.688-6.061a1.095 1.095 0 0 1 1.024-.493c.399.043.746.31.911.7.165.39.122.845-.112 1.193-1.487 2.22-1.135 2.68-.8 3.125.495.654 1.327.895 2.063.597.142-.065.294-.1.448-.102.495.054.938.35 1.2.802.84 1.291 2.165 2.127 3.629 2.288.618 0 1.119.536 1.119 1.196 0 .66-.501 1.195-1.12 1.195h.08zM219.724 416L218 414.376a22.017 22.017 0 0 0 6-18.811l-.259-1.313 1.328-.121c21.534-1.987 37.776-16.22 37.776-33.115a28.427 28.427 0 0 0-7.983-19.364l-1.207-1.313 1.724-.64c8.155-3.091 13.207-9.344 13.207-16.306 0-8.032-7.207-15.219-17.534-17.481l-3.776-.83 3.586-1.468A45.095 45.095 0 0 0 261.017 298l1.466 1.9a42.208 42.208 0 0 1-7.604 4.56C264.517 307.69 271 315.12 271 323.463c0 7.514-5 14.251-13.172 17.913a30.436 30.436 0 0 1 7.5 19.71c0 17.793-16.535 32.821-38.69 35.378A24.713 24.713 0 0 1 219.724 416z"/>
        <path fill="#FFF" d="M300.982 94.36c-.23-1.442-2.1-1.943-4.36-2.46a34.95 34.95 0 0 1-9.481-4.138c-1.167-1.016-3.035-1.016-4.202 0-1.065 1.223-2.515 2.14-4.166 2.633-1.112.423-2.401.376-3.778.783-.83.178-1.547.64-1.995 1.286.819-.17 1.67-.17 2.49 0 1.216.254 2.458.401 3.707.439 1.335-.051 2.658-.251 3.937-.596.683-.16 1.38-.27 2.083-.33 1.765 0 2.507.926 3.319 2.524.692 1.758 1.913 3.313 3.53 4.499.452.01.873-.2 1.095-.549 1.024-1.567-.936-3.135-.936-3.135a8.39 8.39 0 0 0 3.143 1.082c3.884.83 5.843-.533 5.614-2.038z"/>
        <path fill="#FFF" d="M295.214 104.468c-2.796-2.294-4.93-5.218-6.202-8.498-.377-1.161-1.529-1.943-2.817-1.913a5.804 5.804 0 0 0-1.3.172 17.42 17.42 0 0 1-4.115.5 14.686 14.686 0 0 1-3.842-.483 7.564 7.564 0 0 0-1.83-.241 2.812 2.812 0 0 0-2.195.845 3.999 3.999 0 0 0-.768 3.602c.384 1.724 1.591 2.19 2.158 2.19.395.005.766-.176.988-.484 0 0-.402 2.845 1.244 3.69.247.13.523.2.805.206.914-.091 1.657-.735 1.83-1.586 0 0 0 2.948 1.61 3.568.261.1.54.153.823.155.93.007 1.718-.646 1.83-1.517a6.246 6.246 0 0 0 1.024 2.69c.628.989 1.725 1.63 2.945 1.723a2.45 2.45 0 0 0 .787-.138c1.83-.655.988-3.12.988-3.12a10.95 10.95 0 0 0 2.323 2.534 7.284 7.284 0 0 0 4.28 1.62c.863.107 1.704-.306 2.105-1.034.53-1.568-.842-2.947-2.671-4.481z"/>
        <path fill="#182138" d="M291.241 118.153c-.398-.869 0-1.53-.953-1.998-.952-.47-1.957.764-2.893.417-3.724-1.32-5.439-1.112-7.102-.365a6.184 6.184 0 0 0-1.23.851c-.104 0-.242 0-.156-.174a3.23 3.23 0 0 1 .676-.868 5.904 5.904 0 0 1-.607-2.016 12.656 12.656 0 0 1-5.976 2.172 8.417 8.417 0 0 0 4.868 5.213c2.182.695 4.954-1.13 6.375-1.495 2.442-.625 3.932-.973 7.587 1.894a.674.674 0 0 0 1.16-.573c-.12-.8-1.195-1.825-1.749-3.058zM268.463 86.419a4.793 4.793 0 0 1-2.689-.878 5.576 5.576 0 0 0-.594 4.238c.401 1.406 1.782 2.335 3.283 2.21a3.914 3.914 0 0 0 2.44-.787c1.853.066 3.583-.898 4.456-2.483a4.867 4.867 0 0 0 .383-3.978 5.068 5.068 0 0 0-2.744-2.984 6.77 6.77 0 0 0-4.69 0 3.2 3.2 0 0 1-3.003-.757s-.735 2.482.782 3.693c.67.492 1.463.8 2.298.893.901.074 1.808.013 2.69-.181a.19.19 0 0 1 .205.1.178.178 0 0 1-.05.217 4.231 4.231 0 0 1-2.767.697zm3.237 2.512a.905.905 0 0 0 .797-.847.71.71 0 0 0-.166-.573.76.76 0 0 0-.553-.26.137.137 0 0 1-.094-.129c0-.058.038-.11.094-.128.17-.038.346-.038.516 0 .301.02.579.165.764.396.185.23.26.527.206.815a1.188 1.188 0 0 1-.475.794 1.265 1.265 0 0 1-.917.235h-.188a.161.161 0 0 1-.156-.167.162.162 0 0 1 .172-.15v.014z"/>
        <path fill="#182138" d="M279.89 107.063a3.47 3.47 0 0 1-1.24-.358 3.305 3.305 0 0 1-1.465-2.75 2.22 2.22 0 0 1-2.498.496c-1.275-.564-1.465-2.562-1.379-3.416a2.047 2.047 0 0 1-2.016-.46 4.067 4.067 0 0 1-1.154-2.34 4.77 4.77 0 0 1 1.344-4.56c.255-.218.526-.418.81-.598a4.603 4.603 0 0 0-4.222 0 7.78 7.78 0 0 0-2.395 2.169c-.62.82-1 1.35-1.533 2.015a9.132 9.132 0 0 1-2.085 1.981 15.9 15.9 0 0 0-5.17-2.732 2.24 2.24 0 0 1-1.05-.735 5.787 5.787 0 0 0-1.242-1.144 3.973 3.973 0 0 0-.844-2.527l-4.032-5.123 6.893 1.383.568.085c.314.258.655.482 1.017.666a10.658 10.658 0 0 0 1.154 7.395 4.396 4.396 0 0 0 3.446 1.434c1-.649 1.724-3.159 3.205-4.286a9.247 9.247 0 0 0-1.723.495c-.678.17-1.389.17-2.067 0a11.665 11.665 0 0 0-1.723-4.782 1.881 1.881 0 0 1-.242-1.246 4.688 4.688 0 0 0 0-1.127 4.003 4.003 0 0 0 .142-5.185 4.091 4.091 0 0 0-5.13-1.03 4.015 4.015 0 0 0-1.904 4.832l-4.222-.923a22.837 22.837 0 0 0-5.755-10.656 16.383 16.383 0 0 0-8.616-5.02c-.5-.12-.982.478-.689.853l10.77 13.987-17.231-3.826c-.466-.102-.81.598-.483.99a16.376 16.376 0 0 0 8.22 5.517 23.271 23.271 0 0 0 12.164.632l2.62 3.415c-.82.098-1.59.444-2.206.99a4.038 4.038 0 0 0-.672 5.226c1.198 1.828 3.656 2.36 5.514 1.195.135-.078.262-.17.38-.273.596.182 1.219.263 1.843.24a14.677 14.677 0 0 0 6.29 5.43 2.502 2.502 0 0 0 1.722 0 13.631 13.631 0 0 0 3.929-2.152.156.156 0 0 1 .176.03.153.153 0 0 1 .03.175c-.397.465-.835.893-1.309 1.28a11.276 11.276 0 0 0 3.274 5.124c-1.723.786-4.721 2.237-5.772 4.098-2.585 4.56 3.635 6.66 5.548 8.027 2.981 2.117 3.119 2.715 3.843 7.36 0 .478.361.666.637.666a.743.743 0 0 0 .586-.29c.551-.735.448-2.084.948-3.416.5-1.332 1.378-1.964.913-2.903-.465-.94-1.637-.495-2.102-1.708-.155-.358-.31-.7-.448-1.007-1.275-2.579-2.12-3.416-3.446-3.945a6.943 6.943 0 0 0-1.224-.307.137.137 0 0 1-.138-.137c0-.075.062-.137.138-.137a9.858 9.858 0 0 1 1.24 0 14.576 14.576 0 0 0 7.41-1.895 4.583 4.583 0 0 0 2.654-5.192zm-22.796-24.71c1.161 0 2.102.933 2.102 2.083.023.176.023.354 0 .53a2.383 2.383 0 0 0-2.86 1.4 2.08 2.08 0 0 1-1.27-2.338 2.098 2.098 0 0 1 2.08-1.675h-.052zm-8.616 12.278a2.09 2.09 0 0 1 1.851-2.106 2.1 2.1 0 0 1 2.302 1.611 2.248 2.248 0 0 0-1.154 2.39 2.119 2.119 0 0 1-2.04-.116 2.079 2.079 0 0 1-.976-1.779h.017z"/>
        <path fill="#FFF" d="M.015 435.36c.23-1.442 2.101-1.943 4.361-2.46 3.39-.92 6.591-2.317 9.482-4.138 1.167-1.016 3.035-1.016 4.202 0 1.066 1.223 2.515 2.14 4.167 2.633 1.112.423 2.4.376 3.778.783.83.178 1.547.64 1.995 1.286a6.168 6.168 0 0 0-2.49 0 21.172 21.172 0 0 1-3.707.439 17.725 17.725 0 0 1-3.937-.596c-.684-.16-1.38-.27-2.084-.33-1.765 0-2.507.926-3.32 2.524-.692 1.758-1.913 3.313-3.53 4.499-.452.01-.873-.2-1.095-.549-1.024-1.567.936-3.135.936-3.135a8.392 8.392 0 0 1-3.143 1.082c-3.849.83-5.826-.533-5.615-2.038z"/>
        <path fill="#FFF" d="M6.759 445.519c2.801-2.306 4.938-5.245 6.209-8.543.378-1.164 1.53-1.95 2.82-1.92a5.8 5.8 0 0 1 1.301.174c1.346.33 2.73.499 4.121.501 1.3.01 2.595-.154 3.846-.484a7.558 7.558 0 0 1 1.832-.242 2.812 2.812 0 0 1 2.198.847 4.018 4.018 0 0 1 .77 3.614c-.385 1.73-1.594 2.197-2.162 2.197a1.194 1.194 0 0 1-.99-.485s.404 2.854-1.245 3.701a1.8 1.8 0 0 1-.806.208c-.915-.092-1.659-.738-1.831-1.591 0 0 0 2.957-1.612 3.58a2.37 2.37 0 0 1-.824.155c-.932.006-1.72-.649-1.832-1.522a6.274 6.274 0 0 1-1.025 2.698c-.63.992-1.728 1.636-2.95 1.729a2.448 2.448 0 0 1-.787-.138c-1.831-.657-.989-3.13-.989-3.13a10.977 10.977 0 0 1-2.326 2.542 7.29 7.29 0 0 1-4.231 1.573c-.863.107-1.705-.307-2.106-1.037-.605-1.522.842-2.905 2.619-4.427z"/>
        <path fill="#182138" d="M8.735 458.166c.4-.871 0-1.534.954-2.004.954-.471 1.96.767 2.897.418 3.73-1.325 5.446-1.116 7.112-.366.443.234.856.52 1.231.854.104 0 .243 0 .156-.174a3.24 3.24 0 0 0-.676-.872 5.932 5.932 0 0 0 .607-2.022A12.657 12.657 0 0 0 27 456.18a8.438 8.438 0 0 1-4.874 5.229c-2.186.697-4.96-1.133-6.383-1.5-2.446-.627-3.938-.975-7.597 1.9a.674.674 0 0 1-.75.13.68.68 0 0 1-.395-.652c0-.854 1.162-1.883 1.734-3.12zM29.77 425.722a.178.178 0 0 1-.05-.217.19.19 0 0 1 .205-.1 9.037 9.037 0 0 0 2.69.181 4.778 4.778 0 0 0 2.298-.893c1.564-1.21.782-3.693.782-3.693a3.2 3.2 0 0 1-3.002.757 6.77 6.77 0 0 0-4.69 0 5.068 5.068 0 0 0-2.745 2.984 4.867 4.867 0 0 0 .383 3.978c.873 1.585 2.603 2.549 4.456 2.483a3.914 3.914 0 0 0 2.44.787c1.501.125 2.882-.804 3.283-2.21a5.576 5.576 0 0 0-.594-4.238 4.793 4.793 0 0 1-2.69.878 4.231 4.231 0 0 1-2.767-.697zm-.517 3.345h-.188a1.265 1.265 0 0 1-.916-.234 1.188 1.188 0 0 1-.475-.795c-.054-.287.02-.584.206-.815.185-.23.462-.375.763-.396.17-.038.347-.038.516 0 .057.02.095.071.095.129 0 .058-.038.11-.095.129a.76.76 0 0 0-.552.26.71.71 0 0 0-.167.572c.019.432.355.79.797.848.087 0 .157.067.157.151 0 .084-.07.151-.157.151h.016z"/>
        <path fill="#182138" d="M22.693 454.269a14.559 14.559 0 0 0 7.401 1.893 9.846 9.846 0 0 1 1.24 0c.076 0 .137.062.137.137a.137.137 0 0 1-.137.136 6.935 6.935 0 0 0-1.223.308c-1.308.529-2.151 1.347-3.442 3.941-.155.307-.31.648-.448 1.007-.482 1.143-1.72.75-2.1 1.706-.378.955.362 1.484.913 2.9.55 1.417.396 2.611.946 3.413a.742.742 0 0 0 .586.29c.275 0 .568-.17.637-.665.705-4.641.843-5.239 3.838-7.354 1.91-1.365 8.124-3.413 5.543-8.02-1.05-1.86-3.977-3.31-5.767-4.095a11.266 11.266 0 0 0 3.27-5.118 10.285 10.285 0 0 1-1.308-1.28.153.153 0 0 1 .03-.175.156.156 0 0 1 .177-.03 13.621 13.621 0 0 0 3.993 2.099 2.5 2.5 0 0 0 1.722 0 14.662 14.662 0 0 0 6.282-5.426 5.606 5.606 0 0 0 1.842-.239c.128.137.273.257.43.359 1.857 1.164 4.312.631 5.509-1.195a4.035 4.035 0 0 0-.672-5.22 4.044 4.044 0 0 0-2.203-.99l2.616-3.413c4.035.873 8.232.655 12.153-.631a16.359 16.359 0 0 0 8.21-5.511c.327-.393 0-1.092-.482-.99l-17.213 3.822 10.724-14.06c.293-.375-.207-.972-.689-.852a16.365 16.365 0 0 0-8.606 5.016 22.819 22.819 0 0 0-5.749 10.647l-4.217.921a4.012 4.012 0 0 0-1.903-4.827 4.086 4.086 0 0 0-5.124 1.029 4 4 0 0 0 .142 5.18 4.685 4.685 0 0 0 0 1.126c.066.43-.019.87-.241 1.246a11.656 11.656 0 0 0-1.722 4.777 4.27 4.27 0 0 1-2.065 0 9.236 9.236 0 0 0-1.721-.495c1.549 1.144 2.203 3.652 3.201 4.283a4.39 4.39 0 0 0 3.443-1.433 10.65 10.65 0 0 0 1.153-7.388 5.616 5.616 0 0 0 1.016-.666l.568-.085 6.885-1.382-4.028 5.119a3.97 3.97 0 0 0-.844 2.525 5.781 5.781 0 0 0-1.239 1.143c-.27.341-.635.596-1.05.734a15.882 15.882 0 0 0-5.164 2.73 9.123 9.123 0 0 1-2.082-1.98c-.534-.665-.913-1.194-1.532-2.013a7.773 7.773 0 0 0-2.393-2.167 4.597 4.597 0 0 0-4.217 0c.283.18.554.38.809.598a4.767 4.767 0 0 1 1.343 4.555 4.064 4.064 0 0 1-1.154 2.338 2.044 2.044 0 0 1-2.014.46c0 .87-.103 2.867-1.377 3.413a2.217 2.217 0 0 1-2.496-.495 3.302 3.302 0 0 1-1.463 2.747 3.465 3.465 0 0 1-1.239.358 4.578 4.578 0 0 0 2.565 5.239zm22.273-27.914a2.081 2.081 0 0 1-1.29 1.928 2.38 2.38 0 0 0-2.858-1.4 2.03 2.03 0 0 1 0-.528 2.1 2.1 0 0 1 2.108-2.09 2.1 2.1 0 0 1 2.109 2.09h-.069zm4.441 12.267a2.133 2.133 0 0 1-.895-.204 2.246 2.246 0 0 0-1.153-2.39 2.1 2.1 0 0 1 2.371-1.56 2.086 2.086 0 0 1 1.762 2.216 2.093 2.093 0 0 1-2.085 1.921v.017z"/>
    </g>
</svg>
