<svg xmlns="http://www.w3.org/2000/svg" width="38" height="38" viewBox="0 0 38 38">
    <g fill="#232639" fill-rule="nonzero">
        <path d="M18.998 23A4.006 4.006 0 0 0 23 19c0-.87-.285-1.675-.757-2.332A3.995 3.995 0 0 0 19.001 15c-1.335 0-2.516.66-3.244 1.668A3.981 3.981 0 0 0 15 18.999 4.002 4.002 0 0 0 18.998 23zM27 14.987V11l-.52.002-3.48.01.013 3.988z"/>
        <path d="M19 0C8.523 0 0 8.523 0 19c0 10.476 8.523 19 19 19 10.476 0 19-8.524 19-19C38 8.523 29.477 0 19 0zm10.806 16.783v8.847a4.18 4.18 0 0 1-4.177 4.177H12.371a4.18 4.18 0 0 1-4.177-4.177V12.372a4.18 4.18 0 0 1 4.177-4.177h13.257a4.18 4.18 0 0 1 4.178 4.177v4.41z"/>
        <path d="M24.276 19.234c0 3.283-2.59 5.956-5.775 5.956-3.185 0-5.774-2.673-5.774-5.956 0-.79.153-1.545.425-2.234H10v8.915c0 1.152.907 2.085 2.023 2.085h12.954C26.09 28 27 27.067 27 25.915V17h-3.153c.274.69.429 1.444.429 2.234z"/>
    </g>
</svg>
