<svg xmlns="http://www.w3.org/2000/svg" width="104" height="93" viewBox="0 0 104 93">
    <g fill="none" fill-rule="evenodd">
        <path fill="#182138" d="M75.803 17.663L76.368 1.9a1.819 1.819 0 0 1 3.63 0l.385 15.943-4.58-.18zM56.828 81.634a1.516 1.516 0 0 1-1.483-1.844l6.456-29.24a1.516 1.516 0 1 1 2.958.647l-6.456 29.24a1.516 1.516 0 0 1-1.475 1.197zM79.924 83.19a1.516 1.516 0 0 1-1.516-1.516V50.877a1.516 1.516 0 0 1 3.031 0v30.797c0 .838-.678 1.516-1.515 1.516zM89.657 41.275l13.486 23.088a1.27 1.27 0 0 1-.82 1.868 1.31 1.31 0 0 1-1.4-.484L88.263 48.591l1.393-7.316z"/>
        <path fill="#FFF" d="M53.772 60.39L88.1 61.961l6.58-44.979-33.543-.524z"/>
        <path fill="#FF5926" d="M54.665 59.668l32.772 1.508 6.35-43.423L61.8 17.23l-7.12 42.44h-.016zM88.1 62.724l-34.328-1.581a.762.762 0 0 1-.713-.877l7.374-43.93a.721.721 0 0 1 .754-.631l33.541.524a.754.754 0 0 1 .738.869L88.91 62.077a.762.762 0 0 1-.81.647z"/>
        <path fill="#FF5926" d="M80.948 34.696c-1.639-2.835-5.383-1.638-6.554 0-.64-1.638-3.999-2.867-6.555 0-3.678 4.097.983 8.849 4.605 11.274 4.219-2.4 10.659-7.382 8.504-11.274z"/>
        <circle cx="57.451" cy="57.595" r="1" fill="#E84F09" fill-rule="nonzero"/>
        <circle cx="85.757" cy="59.398" r="1" fill="#E84F09" fill-rule="nonzero"/>
        <circle cx="91.664" cy="19.613" r="1" fill="#E84F09" fill-rule="nonzero"/>
        <circle cx="63.202" cy="19.261" r="1" fill="#E84F09" fill-rule="nonzero"/>
        <path fill="#182138" d="M89.608 65.362h-.066l-38.924-1.77a1.516 1.516 0 0 1 .139-3.023l38.9 1.762a1.516 1.516 0 0 1-.066 3.023l.017.008z"/>
        <path fill="#FF5926" d="M1.665 56.153a4.506 4.506 0 0 1 0-6.357l15.001-16.878c1.475-1.474 5.08-.753 6.554.721l.984.983c1.474 1.475 2.384 5.203.91 6.678L8.022 56.153a4.506 4.506 0 0 1-6.358 0z"/>
        <path fill="#182138" d="M24.982 39.964a.975.975 0 0 1-.467.32 2.589 2.589 0 0 1-1.393 0 7.923 7.923 0 0 1-3.45-1.942l-.384-.385a8.425 8.425 0 0 1-.369-.418 7.98 7.98 0 0 1-.598-.885 6.046 6.046 0 0 1-.688-1.761 3.416 3.416 0 0 1 0-1.393 1.09 1.09 0 0 1 .295-.557.246.246 0 0 1 .369.32.63.63 0 0 0 0 .31c.026.365.115.723.262 1.058a7.3 7.3 0 0 0 .77 1.425c.17.252.356.493.557.721l.303.344.344.336a12.24 12.24 0 0 0 2.892 2.04c.326.17.683.273 1.049.303.087.012.175.012.262 0a.737.737 0 0 0 .107-.049.147.147 0 0 1 .205 0c.03.048.03.108 0 .156l-.066.057z"/>
        <path fill="#FF5926" d="M22.557 36.769a1.516 1.516 0 0 1-1.073-2.589l17.524-17.516a1.516 1.516 0 1 1 2.139 2.138L23.63 36.327c-.284.284-.67.444-1.073.442z"/>
        <path fill="#182138" d="M16.74 37.834s-.631.82-1.639 2.048c-1.007 1.23-2.458 2.729-3.957 4.211a112.865 112.865 0 0 1-4.186 3.941l-1.442 1.27-.558.459a.246.246 0 0 1-.344-.344l.46-.557 1.253-1.434a85.006 85.006 0 0 1 3.973-4.187c1.516-1.483 3.007-2.924 4.203-3.957 1.196-1.032 2.048-1.638 2.048-1.638a.147.147 0 0 1 .189.188z"/>
        <path fill="#FFF" d="M43.613 16.532a10.135 10.135 0 0 0-1.803-4.522 4.858 4.858 0 0 1-2.95 2.261 15.14 15.14 0 0 0-3.17 1.36c-.295.196-.57.421-.82.672-2.031 2.032-2.195 5.153-.368 6.98 1.827 1.827 4.916 1.639 6.907-.303l.074-.065a7.726 7.726 0 0 0 2.13-6.383z"/>
        <path fill="#182138" d="M23.892 36.31v.05a.303.303 0 0 1-.098.147.95.95 0 0 1-.582.262 1.639 1.639 0 0 1-.819-.131 1.794 1.794 0 0 1-.385-.205 1.942 1.942 0 0 1-.336-.278l-.14-.156a2.851 2.851 0 0 1-.352-.565 1.835 1.835 0 0 1-.155-.82c.006-.223.084-.438.221-.614a.82.82 0 0 1 .205-.164.262.262 0 0 1 .344.147.27.27 0 0 1 0 .164v.041c.006.12.046.237.115.336.07.128.152.249.245.36.052.073.11.142.172.205l.189.205c.239.232.496.443.77.631.084.058.175.104.27.14.031.015.068.015.099 0h.049a.172.172 0 0 1 .188.229v.016z"/>
        <path fill="#FF5926" d="M43.613 16.532a10.135 10.135 0 0 0-1.803-4.522 4.858 4.858 0 0 1-2.95 2.261 15.14 15.14 0 0 0-3.17 1.36c.189.82.869 1.04 1.483 1.549.615.508.516 1.155.754 1.761a2.335 2.335 0 0 0 1.278 1.327c.498.126.939.414 1.253.82.099.238.165.49.197.745.08.454.348.852.737 1.098l.074-.065a7.726 7.726 0 0 0 2.147-6.334z"/>
        <path fill="#FFF" d="M44.596 25.545l-1.385-1.393-1.393 1.393a1.966 1.966 0 1 0 2.778 0z"/>
        <path fill="#FF5926" d="M40.95 60.332c0-1.983-4.31-3.597-9.635-3.597s-9.66 1.581-9.66 3.597L17.92 87.106c0 2.753 5.989 4.99 13.37 4.99 7.382 0 13.371-2.237 13.371-4.99L40.95 60.332z"/>
        <path fill="#182138" d="M39.205 61.66v.204c-.005.218-.06.43-.164.623-.14.307-.338.585-.582.819a4.916 4.916 0 0 1-.983.73c-.415.228-.848.423-1.294.58-.492.18-.996.322-1.508.427-.54.117-1.088.202-1.638.254-.572.057-1.146.084-1.72.082-.55 0-1.123 0-1.697-.082-.573-.082-1.114-.14-1.638-.254a12.461 12.461 0 0 1-1.508-.418 9.43 9.43 0 0 1-1.319-.574 5.252 5.252 0 0 1-1.04-.753 2.695 2.695 0 0 1-.623-.779 1.303 1.303 0 0 1-.14-.36.82.82 0 0 1-.049-.279v-.237a.24.24 0 0 1 .476-.074V61.798c.039.15.108.29.204.41.15.204.336.38.55.516a5.4 5.4 0 0 0 .925.492c.845.332 1.724.565 2.622.696.491.082 1.016.14 1.54.18l.82.05h.819c.516 0 1.073 0 1.597-.066.525-.066 1.05-.106 1.54-.18.478-.072.95-.168 1.418-.287.439-.099.871-.225 1.295-.377.324-.13.637-.29.934-.475a2.09 2.09 0 0 0 .729-.737.459.459 0 0 0 .082-.205l.049-.197a.147.147 0 0 1 .18-.106.147.147 0 0 1 .123.147z"/>
        <path fill="#FF5926" d="M32.52 61.2h-2.401a3.875 3.875 0 0 1-3.867-3.867v-2.695a5.067 5.067 0 0 1 10.135 0v2.695a3.875 3.875 0 0 1-3.868 3.867z"/>
        <path fill="#182138" d="M36.665 58.882v.139a.959.959 0 0 1-.098.45 1.737 1.737 0 0 1-.393.566 3.441 3.441 0 0 1-.672.524 5.58 5.58 0 0 1-.877.426 6.98 6.98 0 0 1-1.024.312c-.37.086-.745.15-1.122.188-.392.042-.786.06-1.18.057-.36 0-.754 0-1.155-.057-.402-.057-.762-.098-1.123-.18a7.177 7.177 0 0 1-1.917-.705 3.589 3.589 0 0 1-.688-.516 1.966 1.966 0 0 1-.426-.565 1.114 1.114 0 0 1-.123-.475v-.172a.238.238 0 0 1 .467-.082v.172a.68.68 0 0 0 .14.237c.1.122.222.225.36.303.192.117.395.215.606.295a8.258 8.258 0 0 0 1.737.418c.327.05.672.082 1.016.107.344.024.688 0 1.073 0h1.049c.352 0 .688-.066 1.016-.107.327-.04.639-.106.934-.164a7.89 7.89 0 0 0 .819-.23c.215-.077.424-.173.623-.286.146-.08.279-.182.393-.303.082-.106.14-.14.164-.254l.04-.131a.147.147 0 0 1 .189-.098c.083-.01.16.048.172.13zM23.728 68.55s0 1.048-.114 2.605c-.115 1.556-.353 3.621-.664 5.67-.311 2.047-.664 4.096-.983 5.62l-.41 1.843-.172.696a.246.246 0 0 1-.483-.073v-.713l.147-1.876c.14-1.557.385-3.613.689-5.67.303-2.056.663-4.096 1.015-5.62.353-1.524.648-2.524.648-2.524a.149.149 0 0 1 .295.041h.032z"/>
        <ellipse cx="31.323" cy="52.975" fill="#182138" fill-rule="nonzero" rx="2.556" ry="1.729"/>
    </g>
</svg>
