<svg xmlns="http://www.w3.org/2000/svg" width="21" height="12" viewBox="0 0 21 12">
    <g fill="#FF5926" fill-rule="evenodd">
        <path d="M17.7 1.206a.679.679 0 0 0 .137-.934.642.642 0 0 0-.911-.142A48.346 48.346 0 0 1 7.73 5.48c-2.444-1.062-4.695-1.74-5.938-1.415A2.429 2.429 0 0 0 .066 5.479c-.123.393-.073.822.138 1.174.214.337.516.607.87.778a7.654 7.654 0 0 0 5.758-.184l.898-.34c2.761 1.274 5.785 3 7.663 4.09.732.424 1.298.736 1.643.92.209.118.464.11.665-.022a.67.67 0 0 0 .297-.61.665.665 0 0 0-.382-.557c-.29-.141-.856-.467-1.588-.891-1.67-.948-4.142-2.406-6.696-3.608a51.506 51.506 0 0 0 8.367-5.023zM5.948 6.144a6.06 6.06 0 0 1-4.28.141.846.846 0 0 1-.346-.283c0-.17.331-.368.87-.537a6.88 6.88 0 0 1 3.77.679h-.014z"/>
        <path d="M20.376 6.94c.344 0 .624-.21.624-.47S20.72 6 20.376 6h-5.752c-.223 0-.429.09-.54.235a.372.372 0 0 0 0 .47c.111.145.317.235.54.235h5.752z"/>
    </g>
</svg>
