<svg xmlns="http://www.w3.org/2000/svg" width="21" height="12" viewBox="0 0 21 12">
    <g fill="#FFF" fill-rule="evenodd">
        <path d="M3.3 1.206a.679.679 0 0 1-.137-.934.642.642 0 0 1 .911-.142A48.346 48.346 0 0 0 13.27 5.48c2.444-1.062 4.695-1.74 5.938-1.415a2.429 2.429 0 0 1 1.726 1.415c.123.393.073.822-.138 1.174a2.13 2.13 0 0 1-.87.778 7.654 7.654 0 0 1-5.758-.184l-.898-.34c-2.761 1.274-5.785 3-7.663 4.09-.732.424-1.298.736-1.643.92a.636.636 0 0 1-.665-.022.67.67 0 0 1-.297-.61.665.665 0 0 1 .382-.557c.29-.141.856-.467 1.588-.891 1.67-.948 4.142-2.406 6.696-3.608a51.506 51.506 0 0 1-8.367-5.023zm11.751 4.938a6.06 6.06 0 0 0 4.28.141.846.846 0 0 0 .346-.283c0-.17-.331-.368-.87-.537a6.88 6.88 0 0 0-3.77.679h.014z"/>
        <path d="M.624 6.94C.28 6.94 0 6.73 0 6.47S.28 6 .624 6h5.752c.223 0 .429.09.54.235a.372.372 0 0 1 0 .47c-.111.145-.317.235-.54.235H.624z"/>
    </g>
</svg>
