<svg xmlns="http://www.w3.org/2000/svg" width="100" height="100" viewBox="0 0 100 100">
    <g fill="none" fill-rule="evenodd">
        <circle cx="50" cy="50" r="50" fill="#171D2A"/>
        <path fill="#FFF" fill-rule="nonzero" d="M72 48.497h-2.132v-9.711c0-2.328-1.914-4.222-4.265-4.222h-2.889l-2.955-5.261A2.563 2.563 0 0 0 57.52 28c-.433 0-.863.11-1.243.32l-11.343 6.244h-12.67c-2.352 0-4.265 1.894-4.265 4.222v28.992C28 70.106 29.913 72 32.265 72h33.338c2.351 0 4.265-1.894 4.265-4.222v-8.515H72V48.497zm-6.397-12.244c1.313 0 2.386.988 2.53 2.252h-3.205l-1.264-2.252h1.939zm-8.495-6.458a.874.874 0 0 1 1.16.328l4.708 8.38H41.288l15.82-8.708zm11.053 37.983c0 1.397-1.148 2.533-2.559 2.533H32.265c-1.41 0-2.56-1.136-2.56-2.533V38.786c0-1.397 1.15-2.533 2.56-2.533h9.603l-4.091 2.252h-4.979a.849.849 0 0 0-.853.844c0 .466.381.845.853.845h35.363v8.304h-6.237c-2.897 0-5.255 2.334-5.255 5.201v.364c0 2.867 2.358 5.201 5.255 5.201h6.237v8.514zm2.133-10.203h-8.37c-1.957 0-3.549-1.576-3.549-3.513v-.363c0-1.938 1.592-3.513 3.549-3.513h8.37v7.389z"/>
        <path fill="#DF5435" d="M64.536 53.95c0 1.03-.843 1.864-1.883 1.864a1.873 1.873 0 0 1-1.883-1.864c0-1.03.842-1.865 1.883-1.865 1.04 0 1.883.835 1.883 1.865z"/>
    </g>
</svg>
