<svg xmlns="http://www.w3.org/2000/svg" width="29" height="23" viewBox="0 0 29 23">
    <g fill="none" fill-rule="evenodd">
        <path fill="#DF5435" d="M28.503 10.147c-.088-.604-.834-.812-1.713-1.024a13.296 13.296 0 0 1-3.721-1.724c-.475-.298-1.088-.53-1.667 0-.414.51-.978.893-1.621 1.103-.438.177-.942.157-1.488.326a1.274 1.274 0 0 0-.783.534c.32-.07.654-.07.975 0 .477.106.964.166 1.454.18a6.627 6.627 0 0 0 1.546-.247c.273-.068.552-.114.834-.137.712 0 .983.392 1.304 1.052.554 1.178 1.075 1.743 1.35 1.873a.494.494 0 0 0 .417-.228c.416-.636-.363-1.296-.363-1.296.376.236.803.39 1.25.452 1.542.33 2.317-.24 2.226-.864z"/>
        <path fill="#DF5435" d="M24.778 13.157c-.709-.548-1.38-1.105-2.142-2.668-.138-.363-.542-.604-.988-.59-.153.003-.305.02-.454.053a6.643 6.643 0 0 1-1.426.16c-.45 0-.9-.052-1.334-.157a2.936 2.936 0 0 0-.622-.078 1.033 1.033 0 0 0-.762.264c-.291.321-.39.74-.267 1.133.133.547.549.69.762.69a.432.432 0 0 0 .343-.153s-.137.896.435 1.157c.085.04.181.061.278.062.308-.042.55-.246.603-.509 0 0-.03.925.56 1.12.09.032.186.049.283.05.312-.013.57-.212.617-.476.046.3.168.588.359.844.223.304.602.499 1.022.524a.88.88 0 0 0 .27-.042c.637-.205.347-.977.347-.977.218.3.49.57.805.798.414.306.936.485 1.483.508.3.034.593-.096.732-.326.21-.472-.286-.902-.904-1.387z"/>
        <path fill="#182138" d="M24.303 18.536c-.154-.322 0-.574-.378-.745-.379-.17-.778.283-1.157.155-1.488-.488-2.17-.41-2.836-.136a2.425 2.425 0 0 0-.495.318c-.041.031-.096 0-.066-.062.069-.12.159-.229.266-.321A2.085 2.085 0 0 1 19.39 17a5.314 5.314 0 0 1-2.391.807c.366.775.89 1.648 1.946 1.962.874.26 1.98-.42 2.554-.555.956-.225 1.572-.337 3.036.71a.285.285 0 0 0 .312.05.249.249 0 0 0 .15-.26c-.046-.337-.462-.717-.695-1.178zM17.038 7.594a.42.42 0 0 0 .363-.386.327.327 0 0 0-.075-.263.345.345 0 0 0-.25-.12.063.063 0 0 1-.048-.06c0-.029.02-.054.048-.06a.574.574 0 0 1 .235-.026.49.49 0 0 1 .337.187c.08.105.113.237.09.366a.557.557 0 0 1-.62.462.27.27 0 0 1-.085-.025.046.046 0 0 1-.027-.041c0-.018.01-.034.027-.042l.005.008zM15.58 6.446a2.172 2.172 0 0 1-1.226-.416 2.561 2.561 0 0 0-.273 1.943 1.45 1.45 0 0 0 1.499 1.023c.4.008.792-.12 1.106-.362a2.21 2.21 0 0 0 2.02-1.131 2.24 2.24 0 0 0 .176-1.82 2.314 2.314 0 0 0-1.248-1.367 3.064 3.064 0 0 0-2.165.03A1.462 1.462 0 0 1 14.112 4s-.333 1.136.354 1.685c.303.23.665.374 1.047.416.409.034.82.006 1.221-.083a.086.086 0 0 1 .09.045.082.082 0 0 1-.017.096 1.91 1.91 0 0 1-1.226.287z"/>
        <path fill="#182138" d="M8.104 9.959a.815.815 0 0 1 .309-.741.769.769 0 0 1 .78-.096.803.803 0 0 1 .47.645.883.883 0 0 0-.432.927.763.763 0 0 1-.772-.036.806.806 0 0 1-.363-.7h.008zm3.263-4.8c.43 0 .78.359.78.8 0 .07-.01.14-.028.208a.89.89 0 0 0-1.076.544.8.8 0 0 1-.591-.938.78.78 0 0 1 .9-.63l.015.017zm8.575 9.659a1.07 1.07 0 0 1-.759-.378 1.126 1.126 0 0 1-.262-.822.811.811 0 0 1-.944.188c-.471-.204-.545-1.004-.51-1.324a.765.765 0 0 1-.78-.184 1.616 1.616 0 0 1-.432-.912 1.904 1.904 0 0 1 .506-1.783c.098-.085.2-.162.308-.232-.265-.236-1.068-.28-1.586 0a2.968 2.968 0 0 0-.9.844c-.23.32-.39.527-.577.8a3.44 3.44 0 0 1-.78.771 5.908 5.908 0 0 0-1.949-1.064.855.855 0 0 1-.39-.288 2.194 2.194 0 0 0-.456-.431 1.588 1.588 0 0 0-.296-.992L8.623 6.983l2.564.54.219.036c.12.1.251.187.39.26-.172 1.428.1 2.44.432 2.883.326.373.795.578 1.283.56.39-.252.627-1.227 1.208-1.671-.23.039-.456.102-.674.188a1.548 1.548 0 0 1-.78.028 4.635 4.635 0 0 0-.659-1.864.748.748 0 0 1-.093-.488 1.768 1.768 0 0 0 0-.44c.177-.205.298-.455.35-.724.143-.844-.388-1.653-1.204-1.835a1.505 1.505 0 0 0-1.441.494c-.36.415-.48.996-.313 1.525L8.319 6.12a8.997 8.997 0 0 0-2.164-4.15C4.725.468 3.61.184 2.943.004c-.183-.04-.37.192-.26.34l4.057 5.45L.23 4.304c-.175-.04-.304.232-.183.4.437.544 1.17 1.455 3.095 2.151a8.474 8.474 0 0 0 4.58.248l.99 1.3c-.31.042-.6.182-.83.4a1.63 1.63 0 0 0-.25 2.04 1.49 1.49 0 0 0 2.07.467.809.809 0 0 0 .164-.144c.224.072.459.105.694.096a5.588 5.588 0 0 0 2.37 2.12.906.906 0 0 0 .643 0 5.045 5.045 0 0 0 1.504-.82.057.057 0 0 1 .071.011c.018.02.021.05.007.073-.148.18-.312.347-.49.496.224.77.65 1.46 1.231 2-.678.303-1.777.871-2.175 1.6-.974 1.779 1.368 2.595 2.093 3.127 1.123.827 1.17 1.06 1.442 2.871.028.188.137.26.242.26a.278.278 0 0 0 .218-.112c.207-.284.168-.8.359-1.308.19-.508.522-.764.347-1.135-.176-.372-.616-.192-.78-.64a7.594 7.594 0 0 0-.171-.4c-.476-1.008-.78-1.328-1.29-1.532a2.332 2.332 0 0 0-.464-.12.056.056 0 0 1-.04-.054c0-.025.016-.047.04-.054.152-.025.306-.04.46-.044a5.35 5.35 0 0 0 2.79-.736c1.369-.82.983-2.031.983-2.031l-.008-.016z"/>
    </g>
</svg>
