<svg xmlns="http://www.w3.org/2000/svg" width="15" height="26" viewBox="0 0 15 26">
    <g fill="none" fill-rule="evenodd">
        <path fill="#182138" d="M.412 15.586a1.425 1.425 0 0 1 0-2.003l4.704-5.328c.462-.465 1.593-.238 2.055.227l.308.31c.463.465.748 1.64.286 2.104l-5.36 4.69a1.408 1.408 0 0 1-1.993 0z"/>
        <path fill="#FF5926" d="M7.55 10.452a.26.26 0 0 1-.124.085.691.691 0 0 1-.37 0 2.111 2.111 0 0 1-.92-.516l-.102-.103a2.24 2.24 0 0 1-.098-.11 2.12 2.12 0 0 1-.162-.242 1.605 1.605 0 0 1-.183-.469.906.906 0 0 1 0-.37.29.29 0 0 1 .079-.148.066.066 0 0 1 .098.085.167.167 0 0 0 0 .083c.007.097.03.192.07.28.054.134.123.261.205.38.045.067.095.13.148.191l.081.092.092.089c.229.217.488.4.77.542a.739.739 0 0 0 .35.08.197.197 0 0 0 .028-.012.04.04 0 0 1 .054 0 .04.04 0 0 1 0 .041l-.015.022z"/>
        <path fill="#182138" d="M6.988 9.625a.515.515 0 0 1-.362-.883l5.954-5.954a.515.515 0 1 1 .73.728L7.353 9.475a.512.512 0 0 1-.365.15z"/>
        <path fill="#FF5926" d="M5.972 10.092s-.258.335-.67.839c-.41.503-1.003 1.117-1.615 1.724a47.581 47.581 0 0 1-1.71 1.627l-.589.513-.227.185a.1.1 0 0 1-.132-.01.1.1 0 0 1-.009-.131l.187-.228.512-.587a34.77 34.77 0 0 1 1.623-1.715c.62-.607 1.228-1.197 1.717-1.62.488-.423.836-.67.836-.67a.061.061 0 0 1 .103.027.062.062 0 0 1-.016.06l-.01-.014z"/>
        <path fill="#182138" d="M13.928 1.868a5.058 5.058 0 0 0-.518-1.81c-.188.44-.493.76-.848.889a3.838 3.838 0 0 0-.911.544 1.749 1.749 0 0 0-.236.269c-.584.812-.63 2.06-.106 2.792.525.73 1.413.655 1.985-.122l.021-.026c.47-.672.696-1.605.613-2.536z"/>
        <path fill="#FF5926" d="M7.805 9.155v.016a.102.102 0 0 1-.034.05.334.334 0 0 1-.202.089.583.583 0 0 1-.284-.044.63.63 0 0 1-.134-.07.67.67 0 0 1-.117-.094l-.048-.052a.956.956 0 0 1-.122-.19.605.605 0 0 1-.054-.278.348.348 0 0 1 .077-.208.283.283 0 0 1 .07-.055.093.093 0 0 1 .071 0 .09.09 0 0 1 .05.05.089.089 0 0 1 0 .055v.009c.001.04.015.08.039.113a.766.766 0 0 0 .085.122.558.558 0 0 0 .06.069l.065.07c.083.077.173.149.268.212.03.02.06.035.094.047.01.006.023.006.034 0h.017a.06.06 0 0 1 .056.02.057.057 0 0 1 .01.058v.01zM13.778 1.852a2.97 2.97 0 0 0-.452-1.25c-.164.304-.43.524-.74.613a3.62 3.62 0 0 0-.795.376c.048.227.218.288.372.428s.13.32.19.487c.06.165.178.295.328.36a.574.574 0 0 1 .314.226.875.875 0 0 1 .05.206c.02.126.087.236.184.304l.019-.018c.403-.461.598-1.097.53-1.732z"/>
        <path fill="#FFF" d="M14.853 4.586L14.501 4l-.354.586c-.143.237-.186.593-.109.903.077.31.26.511.462.511s.385-.202.462-.511c.077-.31.034-.666-.109-.903z"/>
        <path fill="#182138" d="M13.742 16.12c0-.618-1.45-1.12-3.243-1.12s-3.252.5-3.252 1.12L6 24.447C6 25.304 8.016 26 10.501 26 12.987 26 15 25.312 15 24.448l-1.258-8.329z"/>
        <path fill="#FF5926" d="M13.54 16.442v.05a.259.259 0 0 1-.062.156.751.751 0 0 1-.22.204c-.111.07-.236.131-.37.182a4.24 4.24 0 0 1-.489.145 5.75 5.75 0 0 1-.568.106 9.496 9.496 0 0 1-1.267.084c-.208 0-.424 0-.64-.021-.217-.02-.42-.035-.618-.063a6.688 6.688 0 0 1-.57-.104 4.677 4.677 0 0 1-.49-.141 2.172 2.172 0 0 1-.4-.19.817.817 0 0 1-.234-.194.271.271 0 0 1-.053-.09.144.144 0 0 1-.018-.07v-.059c-.008-.032.026-.063.076-.068.05-.005.095.017.103.05V16.477a.258.258 0 0 0 .077.101c.057.051.127.095.207.129.11.048.228.09.35.122.318.083.65.141.989.174.185.02.383.035.58.045l.31.012h.309c.195 0 .405 0 .603-.016.197-.017.395-.027.58-.045.18-.018.359-.042.535-.072.156-.026.31-.058.46-.096.133-.03.26-.07.38-.116a.775.775 0 0 0 .279-.182.097.097 0 0 0 .031-.05l.018-.05c.004-.01.013-.017.026-.022a.081.081 0 0 1 .042-.004c.025.004.043.018.044.035z"/>
        <path fill="#182138" d="M10.917 16.005h-.71c-.63-.001-1.14-.447-1.142-.997v-.694c0-.723.671-1.309 1.5-1.309.828 0 1.5.586 1.5 1.31v.695c-.003.551-.516.996-1.148.995z"/>
        <path fill="#FF5926" d="M12.04 15.49v.047a.39.39 0 0 1-.028.154.61.61 0 0 1-.109.192 1.013 1.013 0 0 1-.186.179 1.684 1.684 0 0 1-.528.251 2.342 2.342 0 0 1-.64.084c-.1 0-.21 0-.32-.02-.112-.02-.213-.033-.313-.061a1.777 1.777 0 0 1-.532-.24 1.044 1.044 0 0 1-.191-.176.676.676 0 0 1-.119-.193.45.45 0 0 1-.034-.162v-.058c-.004-.043.02-.081.054-.089.035-.007.068.02.076.06v.059a.392.392 0 0 0 .139.184.98.98 0 0 0 .168.101c.156.069.318.117.483.143.09.016.186.028.282.036.095.008.191 0 .298 0h.291c.098 0 .191-.022.282-.036.091-.014.178-.037.26-.056.077-.021.153-.047.227-.078.06-.027.118-.06.173-.098a.461.461 0 0 0 .11-.103c.022-.037.038-.048.045-.087l.012-.045a.05.05 0 0 1 .02-.03.034.034 0 0 1 .032-.003c.023-.004.044.016.048.044zM8.455 18.495s0 .375-.04.931-.125 1.294-.235 2.026c-.11.732-.235 1.464-.348 2.009l-.145.659-.06.249a.087.087 0 0 1-.171-.027v-.255l.052-.67c.049-.556.136-1.291.243-2.026.107-.735.235-1.464.36-2.009.124-.545.229-.902.229-.902.004-.029.03-.05.059-.045.029.004.049.03.045.06h.011z"/>
        <ellipse cx="10.558" cy="13.84" fill="#FF5926" fill-rule="nonzero" rx="1" ry="1"/>
    </g>
</svg>
