<svg xmlns="http://www.w3.org/2000/svg" width="90" height="73" viewBox="0 0 90 73">
    <g fill="none" fill-rule="evenodd" transform="translate(0 -7)">
        <path fill="#182138" d="M45 34c5.645 8.13 34.145 52.515 43.745 42.55 9.6-9.963-38.997-40.53-40.1-41.528C48.747 37.136 45 34 45 34z"/>
        <ellipse cx="42" cy="33" fill="#182138" fill-rule="nonzero" rx="22" ry="24" transform="rotate(-45 42 33)"/>
        <path fill="#FFF" fill-rule="nonzero" d="M43.107 58.997c-7.159-.057-14.007-2.992-19.062-8.168-10.286-10.502-10.754-26.943-1.143-36.745C27.405 9.496 33.522 6.944 39.884 7c14.528.205 26.392 11.915 27.085 26.733.333 6.642-2.044 13.128-6.566 17.915-4.521 4.787-10.783 7.447-17.296 7.348zm-3.223-46.383c-4.88-.054-9.58 1.887-13.05 5.39-7.463 7.62-6.938 20.538 1.142 28.811 4.005 4.13 9.439 6.49 15.131 6.57 5.005.069 9.813-1.985 13.28-5.672 3.465-3.687 5.278-8.677 5.005-13.78-.59-11.763-9.975-21.066-21.508-21.32z"/>
        <ellipse cx="43" cy="32" fill="#FFF" fill-rule="nonzero" rx="13" ry="15" transform="rotate(-45 43 32)"/>
        <path fill="#E84E24" d="M39.424 21.596l.66-.215a8.991 8.991 0 0 1 1.977-.35c.952-.071 1.91-.018 2.848.158 1.074.247 2.11.627 3.083 1.13a12.19 12.19 0 0 1 2.565 1.979 9.61 9.61 0 0 1 1.59 2.261c.302.574.532 1.182.682 1.81l.153.712a.754.754 0 0 1-.516.878.8.8 0 0 1-.967-.392v-.08l-.27-.565a9.8 9.8 0 0 0-.813-1.402c-.19-.3-.406-.584-.647-.848-.224-.305-.541-.554-.812-.87a11.024 11.024 0 0 0-2.095-1.515 10.665 10.665 0 0 0-2.424-.973c-.412-.056-.8-.203-1.177-.237a6.9 6.9 0 0 0-1.095-.102c-.547-.05-1.1-.05-1.647 0l-.694.068a.797.797 0 0 1-.798-.571.758.758 0 0 1 .397-.876z"/>
        <path fill="#182138" d="M4.96 47.096v-.303a3.935 3.935 0 0 0-.142-.596 7.96 7.96 0 0 0-1.01-1.968 7.32 7.32 0 0 0-1.526-1.641 2.672 2.672 0 0 0-.81-.45.576.576 0 0 1-.458-.686.602.602 0 0 1 .716-.438c.444.083.869.24 1.257.46a8.774 8.774 0 0 1 2.066 1.766 9.658 9.658 0 0 1 1.491 2.248c.137.302.247.614.329.934l.07.292a.938.938 0 0 1-.25 1.013 1.043 1.043 0 0 1-1.066.208.972.972 0 0 1-.644-.839h-.024zM14.01 46.723v-.296c.064-.31.148-.614.252-.91a9.283 9.283 0 0 1 1.18-2.27 6.712 6.712 0 0 1 1.792-1.773 3.26 3.26 0 0 1 1.093-.461c.302-.069.598.14.661.467.063.326-.13.647-.432.715-.25.092-.484.232-.688.414-.498.437-.917.97-1.235 1.572-.299.594-.52 1.231-.655 1.892-.046.198-.08.4-.099.603v.295c.005.383-.19.736-.505.914a.88.88 0 0 1-.981-.075 1.055 1.055 0 0 1-.382-.98 1.19 1.19 0 0 1 0-.107z"/>
        <path fill="#FF5926" d="M20.917 56.855a8.72 8.72 0 0 0-.952-3.016 8.083 8.083 0 0 0-2.144-2.457 12.073 12.073 0 0 0-5.092-2.026 24.743 24.743 0 0 0-4.74-.35H7.92c-1.35.012-2.447 1.119-2.484 2.504-.102 3.936-.283 7.918-.125 11.912-1.259.07-2.551.128-3.867.21-.833.14-1.445.88-1.445 1.747 0 .867.612 1.606 1.445 1.746 1.327.105 2.688.21 4.083.256h-.034l.159 2.783-1.225.129c-1.463.186-2.439.407-2.439.407a1.402 1.402 0 0 0-1.044 1.368c0 .649.431 1.214 1.044 1.369 0 0 .976.22 2.439.407l1.485.14c.091 1.479.193 2.958.295 4.46.1.887.832 1.556 1.701 1.556.87 0 1.602-.67 1.702-1.556.113-1.433.192-2.876.26-4.32a48.613 48.613 0 0 0 5.297-.303 32.179 32.179 0 0 0 2.438-.396 1.389 1.389 0 0 0 1.084-1.368c0-.663-.452-1.234-1.084-1.369 0 0-.975-.21-2.438-.395a48.984 48.984 0 0 0-5.138-.245V67.37h.306a19.11 19.11 0 0 0 4.786-1.025 9.094 9.094 0 0 0 4.616-3.493 7.61 7.61 0 0 0 1.134-3.074c.154-.967.17-1.952.045-2.923zm-4.888 2.247a3.56 3.56 0 0 1-.34 1.071 4.405 4.405 0 0 1-2.257 1.77 14.24 14.24 0 0 1-3.402.944c.102-4.041.284-8.524.284-8.524.51 0 1.009.093 1.485.163 1.054.12 2.07.47 2.983 1.025a2.763 2.763 0 0 1 1.134 2.002c.113.508.152 1.03.113 1.55z"/>
    </g>
</svg>
