<svg xmlns="http://www.w3.org/2000/svg" width="32" height="32" viewBox="0 0 32 32">
    <g fill="none" fill-rule="evenodd">
        <circle cx="16" cy="16" r="16" fill="#DF5435"/>
        <path fill="#FFF" fill-rule="nonzero" d="M20.764 12.733c-.052-.2-.157-.413-.234-.6C19.6 9.827 17.57 9 15.932 9c-2.193 0-4.61 1.52-4.932 4.653v.64c0 .027.009.267.022.387.18 1.493 1.32 3.08 2.172 4.573.916 1.6 1.867 3.174 2.809 4.747.58-1.027 1.16-2.067 1.727-3.067.154-.293.334-.586.489-.867.103-.186.3-.373.39-.546.916-1.733 2.391-3.48 2.391-5.2v-.707c0-.186-.224-.84-.236-.88zm-4.791 3.214c-.645 0-1.351-.333-1.7-1.254-.051-.146-.047-.44-.047-.466v-.414c0-1.173.964-1.706 1.802-1.706 1.033 0 1.831.853 1.831 1.92s-.854 1.92-1.886 1.92z"/>
    </g>
</svg>
