<svg xmlns="http://www.w3.org/2000/svg" width="32" height="32" viewBox="0 0 32 32">
    <g fill="none" fill-rule="evenodd">
        <circle cx="16" cy="16" r="16" fill="#DF5435"/>
        <path fill="#FFF" fill-rule="nonzero" d="M22.994 20.26a.629.629 0 0 1-.193.55l-1.83 1.818a1.03 1.03 0 0 1-.324.234 1.336 1.336 0 0 1-.392.124l-.082.007a1.873 1.873 0 0 1-.18.007 6.34 6.34 0 0 1-.846-.09c-.39-.06-.867-.206-1.43-.44-.565-.234-1.205-.586-1.92-1.054-.716-.468-1.478-1.11-2.285-1.928a15.087 15.087 0 0 1-1.597-1.817 12.953 12.953 0 0 1-1.018-1.605 8.644 8.644 0 0 1-.578-1.336 7.09 7.09 0 0 1-.262-1.032 3.413 3.413 0 0 1-.055-.682c.01-.165.014-.257.014-.276.018-.128.06-.259.124-.392s.142-.241.234-.324l1.83-1.831a.606.606 0 0 1 .44-.193c.12 0 .225.034.317.103.092.07.17.154.234.255l1.473 2.796a.67.67 0 0 1 .068.482.859.859 0 0 1-.233.44l-.675.675a.23.23 0 0 0-.048.09.34.34 0 0 0-.02.103c.036.193.119.413.247.66.11.221.28.49.51.806.229.317.554.682.976 1.095.413.423.78.75 1.101.985.321.234.59.406.805.516.216.11.381.177.496.2l.172.034a.328.328 0 0 0 .09-.02.23.23 0 0 0 .089-.048l.784-.8a.843.843 0 0 1 .578-.22c.156 0 .28.028.372.083h.014l2.656 1.57c.192.12.307.27.344.455z"/>
    </g>
</svg>
