<svg xmlns="http://www.w3.org/2000/svg" width="27" height="27" viewBox="0 0 27 27">
    <g fill="none" fill-rule="nonzero">
        <circle cx="13" cy="13" r="6" fill="#182138"/>
        <path fill="#DF5435" d="M10.293 10.072c.807-.754 1.64-1.346 3.207-1.346.726 0 1.256.192 1.723.159.557-.04.713-.395.252-.53-.551-.162-1.207-.236-1.975-.236A5.381 5.381 0 0 0 8.119 13.5c0 1.01.141.863.212.891.057.023.161-.078.263-.386.102-.307.03-.368.174-.895.032-.12.115-.446.181-.687.054-.193.17-.426.212-.549.097-.276.357-.682.536-.97.08-.129.502-.744.596-.832zM13.5 4c.276 0 .5-.199.5-.444V.444C14 .2 13.776 0 13.5 0s-.5.199-.5.444v3.112c0 .245.224.444.5.444zM13.5 6c.276 0 .5-.112.5-.25v-.5c0-.138-.224-.25-.5-.25s-.5.112-.5.25v.5c0 .138.224.25.5.25zM13.5 23c-.276 0-.5.199-.5.444v3.112c0 .245.224.444.5.444s.5-.199.5-.444v-3.112c0-.245-.224-.444-.5-.444zM13.5 21c-.276 0-.5.112-.5.25v.5c0 .138.224.25.5.25s.5-.112.5-.25v-.5c0-.138-.224-.25-.5-.25zM26.556 13h-3.112c-.245 0-.444.224-.444.5s.199.5.444.5h3.112c.245 0 .444-.224.444-.5s-.199-.5-.444-.5zM21.25 13c-.138 0-.25.224-.25.5s.112.5.25.5h.5c.138 0 .25-.224.25-.5s-.112-.5-.25-.5h-.5zM4 13.5c0-.276-.199-.5-.444-.5H.444C.2 13 0 13.224 0 13.5s.199.5.444.5h3.112C3.8 14 4 13.776 4 13.5zM5.75 13h-.5c-.138 0-.25.224-.25.5s.112.5.25.5h.5c.138 0 .25-.224.25-.5s-.112-.5-.25-.5z"/>
        <path fill="#182138" d="M7.335 18.114l-3.22 3.221a.39.39 0 1 0 .55.55l3.22-3.22a.39.39 0 1 0-.55-.55zM18.39 8c.099 0 .199-.038.275-.114l3.22-3.221a.39.39 0 1 0-.55-.55l-3.22 3.22a.39.39 0 0 0 .274.665zM10.24 6.737c.063.164.21.263.365.263a.37.37 0 0 0 .151-.033.439.439 0 0 0 .214-.556L9.76 3.263c-.083-.218-.315-.32-.516-.23a.439.439 0 0 0-.214.556l1.21 3.148zM16.76 20.263c-.084-.218-.315-.32-.516-.23a.439.439 0 0 0-.214.556l1.21 3.148c.063.164.21.263.365.263a.37.37 0 0 0 .151-.032.439.439 0 0 0 .214-.557l-1.21-3.148zM18.665 18.114a.39.39 0 1 0-.55.55l3.22 3.222a.388.388 0 0 0 .55 0 .39.39 0 0 0 0-.55l-3.22-3.222zM7.335 7.886a.388.388 0 0 0 .55 0 .39.39 0 0 0 0-.55l-3.22-3.222a.39.39 0 1 0-.55.55l3.22 3.222zM16.244 6.967c.05.022.1.033.151.033.155 0 .302-.1.365-.263l1.21-3.148a.439.439 0 0 0-.214-.557c-.2-.089-.433.013-.516.23l-1.21 3.149a.439.439 0 0 0 .214.556zM10.756 20.032c-.2-.09-.433.013-.516.23l-1.21 3.149a.439.439 0 0 0 .214.557c.05.022.1.032.151.032a.396.396 0 0 0 .365-.263l1.21-3.148a.439.439 0 0 0-.214-.557zM6.968 16.244a.439.439 0 0 0-.557-.214l-3.148 1.21c-.217.083-.32.314-.23.516a.428.428 0 0 0 .393.244c.054 0 .11-.01.163-.03l3.148-1.21c.217-.083.32-.314.23-.516zM20.032 10.756a.428.428 0 0 0 .394.244c.054 0 .11-.01.163-.03l3.148-1.21c.217-.083.32-.315.23-.516-.09-.202-.34-.297-.556-.214l-3.148 1.21c-.217.083-.32.314-.23.516zM3.263 9.76l3.148 1.21c.053.02.108.03.163.03a.428.428 0 0 0 .394-.244c.09-.202-.014-.433-.23-.516L3.588 9.03c-.216-.083-.467.012-.557.214-.09.202.014.433.23.516zM23.737 17.24l-3.148-1.21c-.216-.083-.467.012-.557.214-.09.202.014.433.23.516l3.149 1.21c.053.02.109.03.163.03a.428.428 0 0 0 .394-.244c.09-.202-.014-.433-.23-.516z"/>
    </g>
</svg>
