<svg xmlns="http://www.w3.org/2000/svg" width="21" height="22" viewBox="0 0 21 22">
    <g fill="none" fill-rule="nonzero">
        <path fill="#182138" d="M15.46 8.056l4.325-5.447a.993.993 0 0 0-1.393-1.394l-5.447 4.326a1.785 1.785 0 0 0-.647 1.725l-5 5a1.016 1.016 0 1 0 1.437 1.436l5-4.999a1.79 1.79 0 0 0 1.725-.647z"/>
        <path fill="#DF5435" d="M20.661 4.374a.4.4 0 0 1-.284-.118L16.925.805a.402.402 0 1 1 .568-.568l3.452 3.451a.402.402 0 0 1-.284.686zM19.714 5.655a.4.4 0 0 1-.284-.118l-3.863-3.863a.402.402 0 1 1 .568-.568l3.863 3.863a.402.402 0 0 1-.284.686zM18.71 6.95a.4.4 0 0 1-.284-.118l-4.274-4.274a.402.402 0 1 1 .568-.568l4.274 4.274a.402.402 0 0 1-.284.686zM17.72 8.499a.4.4 0 0 1-.284-.118L12.75 3.696a.402.402 0 1 1 .568-.568l4.685 4.685a.402.402 0 0 1-.284.686zM16.789 9.92a.4.4 0 0 1-.284-.117l-5.096-5.096a.402.402 0 1 1 .568-.569l5.096 5.097a.402.402 0 0 1-.284.686z"/>
        <path fill="#182138" d="M5.926 10L.634 15.293a2.14 2.14 0 0 0-.361 2.563c.337.595.83 1.24 1.442 1.852.601.601 1.232 1.086 1.817 1.423.845.485 1.91.348 2.6-.341l5.292-5.293L5.926 10z"/>
        <path fill="#DF5435" d="M2.26 18.519c-.32-.58-.735-1.843-.276-2.314l4.599-4.539-.56-.666-4.594 4.634a1.517 1.517 0 0 0-.244 1.78c.228.414.56.86.975 1.287.187.191.378.366.568.521a5.468 5.468 0 0 1-.467-.703z"/>
    </g>
</svg>
