<svg xmlns="http://www.w3.org/2000/svg" width="100" height="100" viewBox="0 0 100 100">
    <g fill="none" fill-rule="evenodd">
        <circle cx="50" cy="50" r="50" fill="#171D2A"/>
        <g fill-rule="nonzero">
            <path fill="#FFF" d="M73.242 31H27.758a.758.758 0 0 0-.758.758v36.484c0 .419.34.758.758.758h45.484c.419 0 .758-.34.758-.758V31.758a.758.758 0 0 0-.758-.758zm-.758 36.484H28.516V32.516h43.968v34.968z"/>
            <path fill="#FFF" d="M30.76 62.23c1.66 0 3.01 1.35 3.01 3.01 0 .42.34.76.76.76h31.94c.42 0 .76-.34.76-.76 0-1.66 1.35-3.01 3.01-3.01.42 0 .76-.34.76-.76V38.53a.76.76 0 0 0-.76-.76c-1.66 0-3.01-1.35-3.01-3.01a.76.76 0 0 0-.76-.76h-4.318a.76.76 0 0 0 0 1.519h3.623a4.542 4.542 0 0 0 3.706 3.707v21.548a4.542 4.542 0 0 0-3.706 3.707h-30.55a4.542 4.542 0 0 0-3.706-3.707V39.226a4.542 4.542 0 0 0 3.706-3.707h23.89a.76.76 0 0 0 0-1.519H34.529a.76.76 0 0 0-.759.76c0 1.66-1.35 3.01-3.01 3.01a.76.76 0 0 0-.76.76v22.94c0 .42.34.76.76.76z"/>
            <path fill="#DF5435" d="M43.774 44c.23 0 .459-.11.611-.322l1.798-2.487 1.798 2.487a.756.756 0 0 0 .611.322.756.756 0 0 0 .611-.322l1.798-2.487 1.797 2.487a.756.756 0 0 0 .61.322.756.756 0 0 0 .612-.322l1.797-2.487 1.798 2.487a.738.738 0 0 0 1.086.146.877.877 0 0 0 .136-1.17l-2.409-3.332a.756.756 0 0 0-.61-.322.756.756 0 0 0-.612.322l-1.797 2.487-1.797-2.487A.756.756 0 0 0 51 39a.756.756 0 0 0-.612.322l-1.797 2.487-1.798-2.487a.756.756 0 0 0-.61-.322.756.756 0 0 0-.612.322l-2.409 3.333a.877.877 0 0 0 .136 1.17.737.737 0 0 0 .475.175z"/>
            <path fill="#FFF" d="M62.235 49h-23.47c-.423 0-.765.448-.765 1s.342 1 .765 1h23.47c.423 0 .765-.448.765-1s-.342-1-.765-1zM66 47c0-.552-.341-1-.762-1H35.762c-.42 0-.762.448-.762 1s.341 1 .762 1h29.476c.42 0 .762-.448.762-1zM47 57c0 2.206 1.57 4 3.5 4s3.5-1.794 3.5-4-1.57-4-3.5-4-3.5 1.794-3.5 4zm5.6 0c0 1.323-.942 2.4-2.1 2.4-1.158 0-2.1-1.077-2.1-2.4s.942-2.4 2.1-2.4c1.158 0 2.1 1.077 2.1 2.4zM38.749 57c-.414 0-.749.448-.749 1s.335 1 .749 1h5.502c.414 0 .749-.448.749-1s-.335-1-.749-1h-5.502zM62.251 57h-5.502c-.414 0-.749.448-.749 1s.335 1 .749 1h5.502c.414 0 .749-.448.749-1s-.335-1-.749-1z"/>
        </g>
    </g>
</svg>
