<svg xmlns="http://www.w3.org/2000/svg" width="18" height="23" viewBox="0 0 18 23">
    <path fill="#182138" fill-rule="nonzero" d="M16.777 3.004c-.595.052-1.023.603-1.023 1.2V8.75a.75.75 0 1 1-1.497 0V2.705c0-.598-.428-1.149-1.023-1.2a1.124 1.124 0 0 0-1.223 1.12V8.75a.75.75 0 1 1-1.497 0V1.205c0-.598-.429-1.149-1.023-1.2a1.124 1.124 0 0 0-1.223 1.12V8.75a.75.75 0 1 1-1.497 0V2.705c0-.598-.429-1.149-1.023-1.2a1.124 1.124 0 0 0-1.223 1.12V15.24c0 .016-.02.024-.032.013l-2.52-2.525c-.421-.423-1.113-.509-1.57-.125a1.127 1.127 0 0 0-.074 1.66c2.558 2.563 3.015 2.945 5.728 6.263A6.705 6.705 0 0 0 11.367 23c7.882-.12 7.982-10.24 1.312-10.616-.865-.049-1.704.287-2.354.861-2.567 2.267-.98 5.15 1.266 5.15 1.042 0 1.885-.855 1.92-1.947.014-.427-.14-.76-.433-.938-.235-.143-.52-.161-.727-.045-.27.153-.327.502-.327.768a.75.75 0 0 1-.91.733c-.36-.075-.595-.433-.587-.803.02-.895.414-1.624 1.09-2.005.68-.383 1.536-.357 2.238.07.764.464 1.185 1.29 1.153 2.268-.088 2.76-3.197 4.655-6.028 2.402-.796-.634-1.342-1.56-1.446-2.574a4.929 4.929 0 0 1 4.891-5.447c2.228 0 4.315 1.223 5.543 3.03.01.014.032.007.032-.01V4.125c0-.655-.558-1.179-1.223-1.12z"/>
</svg>
