<svg xmlns="http://www.w3.org/2000/svg" width="20" height="18" viewBox="0 0 20 18">
    <g fill="none" fill-rule="nonzero">
        <path fill="#FFF" d="M19.87.131A.54.54 0 0 0 19.51 0h-7.017a.54.54 0 0 0-.362.131.366.366 0 0 0-.128.31l.057.559h7.882l.057-.56a.365.365 0 0 0-.128-.309z"/>
        <path fill="#182138" d="M13.015 14.413h5.963l1.018-12h-8z"/>
        <path fill="#DF5435" d="M12.995 16.543c0 .727.275 1.317 1.107 1.317h3.986c.832 0 .936-.59.936-1.317V14.86h-6.03v1.683z"/>
        <path fill="#182138" d="M10.557 13H3.754l-2.735 1.28-.019.007v1.279C1 16.91 2.057 18 3.36 18h5.28C9.943 18 11 16.91 11 15.566v-2.109a.45.45 0 0 0-.443-.457z"/>
        <path fill="#FFF" d="M8.835 12L6 13h3.665a.366.366 0 0 0 .286-.125.214.214 0 0 0 .013-.255c-.183-.277-.505-.482-.89-.567L8.834 12z"/>
        <path fill="#DF5435" d="M8.973 10.151a.418.418 0 0 0-.011-.322l-.114-.247a1.004 1.004 0 0 0-1.327-.493L.589 12.194a.987.987 0 0 0-.5 1.312l.114.247a.426.426 0 0 0 .565.21l7.981-3.577a.424.424 0 0 0 .224-.235z"/>
    </g>
</svg>
