<svg xmlns="http://www.w3.org/2000/svg" width="38" height="39" viewBox="0 0 38 39">
    <path fill="#232639" fill-rule="nonzero" d="M19 0C8.507 0 0 8.73 0 19.5S8.507 39 19 39s19-8.73 19-19.5S29.493 0 19 0zm9.638 21.609c.885.888 1.822 1.723 2.617 2.703.352.433.684.881.937 1.385.36.718.035 1.506-.592 1.55l-3.892-.002c-1.005.086-1.805-.33-2.48-1.036-.538-.562-1.038-1.162-1.556-1.744a3.673 3.673 0 0 0-.701-.64c-.531-.354-.992-.245-1.296.323-.31.58-.38 1.221-.41 1.865-.043.942-.32 1.188-1.24 1.233-1.968.094-3.835-.212-5.57-1.23-1.532-.898-2.716-2.166-3.749-3.601-2.01-2.798-3.55-5.868-4.934-9.027-.311-.711-.083-1.092.681-1.107 1.27-.025 2.541-.022 3.811 0 .518.007.86.311 1.058.812.687 1.733 1.528 3.383 2.583 4.912.281.408.568.814.977 1.102.45.317.794.212 1.007-.304.136-.329.195-.68.224-1.032.101-1.205.113-2.41-.062-3.61-.108-.752-.52-1.237-1.25-1.379-.371-.072-.317-.213-.136-.431.313-.377.607-.61 1.195-.61h4.398c.693.139.848.458.942 1.175l.004 5.016c-.008.277.136 1.099.621 1.28.389.132.645-.188.878-.44 1.054-1.15 1.806-2.505 2.479-3.908.297-.619.553-1.26.802-1.9.185-.475.473-.709.994-.7l4.235.005c.125 0 .252 0 .375.023.714.125.91.44.689 1.155-.348 1.122-1.023 2.058-1.683 2.995-.708 1.004-1.462 1.973-2.163 2.981-.643.922-.592 1.386.207 2.186z"/>
</svg>
