<svg xmlns="http://www.w3.org/2000/svg" width="20" height="26" viewBox="0 0 20 26">
    <g fill="none" fill-rule="nonzero">
        <path fill="#FFF" d="M18.014 13c.571.205.986.798.986 1.498 0 .704-.42 1.302-1 1.502.009-.166.014-.334.014-.503v-2.404V13zM2.986 15.497c0 .169.005.337.014.503-.579-.2-1-.798-1-1.502 0-.7.415-1.293.986-1.498v2.497z"/>
        <path fill="#182138" d="M2.372 17.131c.508 3.009 2.457 5.977 5.142 6.966-1.291.585-3.824 1.585-6.516.734.796-1.43.656-4.456.555-7.7.118.038.694-.018.82 0zM18.19 17.141c-.1 3.242.109 6.404.905 7.833-1.576.501-3.485.485-5.211 0-.572-.161-1.334-.694-1.724-.871 2.686-.988 5.03-3.954 5.537-6.962.126-.018.375.039.493 0zM17.572 5.52c.764 1.71.927 3.68.802 6.875-.139-.067-.536-.118-.687-.151v-.504c0-.274-.022-.423-.26-.423-.24 0-.432.222-.432.495v1.127c-5.95.072-9.343-3.29-10.202-4.319a.4.4 0 0 0-.393-.144.453.453 0 0 0-.319.298c-.627 1.753-1.969 2.82-3.696 3.037-.22.027-.025.089-.025.342v.091c-.15.033-.607.084-.747.15-.125-3.194-.152-4.902.614-6.613.046-.104.082-.313.133-.414.569-1.122 1.902-1.98 3.085-1.996a.417.417 0 0 0 .34-.194C6.716 1.781 8.127 1.05 9.63.99c1.767-.073 3.618.312 5.142 1.32 1.282.847 2.224 1.927 2.799 3.212z"/>
        <path fill="#182138" d="M19.887 24.54c.097.12.135.288.1.447a.48.48 0 0 1-.27.345c-.81.345-1.93.668-3.288.668a9.161 9.161 0 0 1-2.69-.413 9.9 9.9 0 0 1-2.465-1.13 6.964 6.964 0 0 1-2.549 0c-.304.2-1.198.743-2.464 1.13a9.305 9.305 0 0 1-2.704.412 8.286 8.286 0 0 1-3.275-.667.479.479 0 0 1-.27-.345.54.54 0 0 1 .1-.447c1.024-1.28 1.068-4.542.946-7.916a2.747 2.747 0 0 1-.724-1.887c0-.653.215-1.25.57-1.705-.15-3.442-.229-5.743.739-7.87.054-.119.111-.238.171-.354.695-1.35 1.988-2.222 3.408-2.317C6.322.978 7.917.077 9.63.008c1.951-.08 3.872.458 5.556 1.553 1.445.94 2.512 2.151 3.172 3.601.967 2.126.888 4.427.74 7.869a2.78 2.78 0 0 1 .569 1.706c0 .743-.28 1.414-.726 1.887-.12 3.374-.077 6.636.946 7.916zm-1.094-9.803c0-.712-.414-1.317-.983-1.526V15.756c0 .171-.005.342-.014.512.577-.204.997-.813.997-1.531zm-.542-2.393c.126-3.18.103-5.03-.67-6.73-.582-1.28-1.534-2.354-2.83-3.197C13.207 1.414 11.447.922 9.66.994c-1.52.06-2.933.893-3.876 2.282a.421.421 0 0 1-.337.193h-.006c-1.196.015-2.297.719-2.873 1.836-.052.1-.102.205-.15.308-.774 1.702-.797 3.552-.67 6.73.141-.065.289-.116.441-.149v-.09c0-.252.168-.464.39-.491 1.747-.215 2.856-1.127 3.49-2.872a.455.455 0 0 1 .324-.297.407.407 0 0 1 .397.144c.869 1.024 4.127 4.297 10.145 4.225v-1.12c0-.273.196-.494.437-.494s.437.221.437.494v.501c.153.033.3.084.44.15zm.612 12.274c-.779-1.502-.914-3.999-.815-7.405-.116.04-.235.07-.358.089-.497 3.16-2.49 5.743-5.12 6.781.383.186.866.391 1.426.56 1.69.51 3.325.502 4.867-.025zm-1.927-8.863V13.8c-2.653.032-5.089-.546-7.246-1.718a12.894 12.894 0 0 1-3.08-2.317c-.74 1.554-1.907 2.465-3.546 2.77v3.22c0 4.32 3.112 7.833 6.936 7.833 3.825 0 6.936-3.514 6.936-7.833zm-9.508 8.328c-2.629-1.04-4.62-3.621-5.117-6.781a2.07 2.07 0 0 1-.36-.09c.1 3.407-.035 5.903-.815 7.405 2.635.894 5.028.08 6.292-.534zm-5.224-7.815a9.958 9.958 0 0 1-.014-.513v-2.544c-.57.21-.983.814-.983 1.526 0 .718.42 1.327.997 1.53z"/>
        <path fill="#182138" d="M15.19 13.824a.71.71 0 0 1 0 .758c-.072.105-.168.157-.263.157-.096 0-.191-.052-.264-.157-.24-.343-.629-.343-.868 0-.146.21-.382.21-.528 0a.71.71 0 0 1 0-.758c.53-.76 1.394-.76 1.924 0z"/>
        <path fill="#DF5435" d="M11.94 19.58a.39.39 0 0 1 0 .565 2.91 2.91 0 0 1-2.022.805 2.907 2.907 0 0 1-2.02-.805.388.388 0 0 1 0-.564.426.426 0 0 1 .586 0 2.087 2.087 0 0 0 2.87 0 .427.427 0 0 1 .586 0z"/>
        <path fill="#182138" d="M6.628 13.866a.713.713 0 0 1 0 .759c-.074.104-.169.156-.264.156-.096 0-.192-.052-.265-.156-.24-.344-.628-.344-.868 0-.145.209-.382.209-.528 0a.713.713 0 0 1 0-.759c.531-.76 1.394-.76 1.925 0z"/>
    </g>
</svg>
