<svg xmlns="http://www.w3.org/2000/svg" width="100" height="100" viewBox="0 0 100 100">
    <g fill="none" fill-rule="evenodd">
        <circle cx="50" cy="50" r="50" fill="#171D2A"/>
        <path fill="#FFF" fill-rule="nonzero" d="M60.065 32.877A3.62 3.62 0 0 0 56.517 30c-.4 0-.724.322-.724.72 0 .397.325.719.724.719 1.198 0 2.173.968 2.173 2.157 0 1.19-.975 2.158-2.173 2.158-.4 0-.724.322-.724.72 0 .397.325.719.724.719a3.622 3.622 0 0 0 3.548-2.877h9.487v5.035H30.448v-5.035H42.76c.4 0 .724-.322.724-.72a.722.722 0 0 0-.724-.719h-1.315a2.168 2.168 0 0 1 4.212.72c0 1.19-.976 2.157-2.173 2.157-.4 0-.724.322-.724.72 0 .397.324.719.724.719 1.996 0 3.62-1.613 3.62-3.597 0-1.983-1.624-3.596-3.62-3.596a3.622 3.622 0 0 0-3.548 2.877H29V71h42V32.877H60.065zm-9.34 7.912h8.689v8.632h-8.69V40.79zm8.689 18.702h-8.69V50.86h8.69v8.631zM40.586 50.86h8.69v8.631h-8.69V50.86zm0-10.07h8.69v8.631h-8.69V40.79zm-10.138.719v-.72h8.69v8.632h-8.69V41.51zm0 9.35h8.69v8.632h-8.69V50.86zm0 18.702V60.93h8.69v8.631h-8.69zm10.138 0V60.93h8.69v8.631h-8.69zm10.138 0V60.93h8.69v8.631h-8.69zm18.828 0h-8.69V60.93h8.69v8.631zm0-10.07h-8.69V50.86h8.69v8.631zm-8.69-10.07V40.79h8.69v8.632h-8.69z"/>
        <path fill="#FFF" fill-rule="nonzero" d="M47.833 31.4c1.379 0 2.5.942 2.5 2.1 0 1.158-1.121 2.1-2.5 2.1-.46 0-.833.313-.833.7 0 .387.373.7.833.7C50.131 37 52 35.43 52 33.5S50.13 30 47.833 30c-.46 0-.833.313-.833.7 0 .387.373.7.833.7zM52.833 31.4c1.379 0 2.5.942 2.5 2.1 0 1.158-1.121 2.1-2.5 2.1-.46 0-.833.313-.833.7 0 .387.373.7.833.7C55.131 37 57 35.43 57 33.5S55.13 30 52.833 30c-.46 0-.833.313-.833.7 0 .387.373.7.833.7z"/>
        <path fill="#DF5435" fill-rule="nonzero" d="M52.205 58.795a.698.698 0 0 0 .99 0L55.5 56.49l2.305 2.305a.698.698 0 0 0 .99 0 .7.7 0 0 0 0-.99L56.49 55.5l2.305-2.305a.7.7 0 1 0-.99-.99L55.5 54.51l-2.305-2.305a.7.7 0 1 0-.99.99L54.51 55.5l-2.305 2.305a.7.7 0 0 0 0 .99z"/>
    </g>
</svg>
