<svg xmlns="http://www.w3.org/2000/svg" width="21" height="20" viewBox="0 0 21 20">
    <g fill="none" fill-rule="evenodd">
        <path fill="#DF5435" d="M21 .593V0h-7.5c-.827 0-1.5.665-1.5 1.481 0 .817.673 1.482 1.5 1.482.33 0 .6.266.6.593v1.122a.877.877 0 0 1-.151.493l-.197.292a1.462 1.462 0 0 0-.252.822v.234C13.5 7.335 14.173 8 15 8s1.5-.665 1.5-1.481v-.234a1.46 1.46 0 0 0-.252-.822l-.197-.291a.878.878 0 0 1-.151-.494V3.556c0-.327.27-.593.6-.593H21V2.37h-3.9v-.296a.896.896 0 0 0-.9-.889.298.298 0 0 1-.3-.296V.593H21z"/>
        <path fill="#182138" d="M11.177 6.596c0-.88-.76-1.596-1.693-1.596h-7.79C.76 5 0 5.716 0 6.596V20h18.629v-1.299C19.964 18.543 21 17.47 21 16.171v-3.83h-9.823V6.595z"/>
        <path fill="#DF5435" d="M0 6c0-.551.51-1 1.138-1h8.724c.627 0 1.327.482 1.327 1.033v2L0 8V6z"/>
        <path fill="#182138" d="M7 18H2v-1h3.575c.391.258.882.431 1.425.483V18zM18 18.979H7V18h11z"/>
        <path fill="#DF5435" d="M21 14v.625h-.667v.625H21v1.875C21 18.159 20.103 19 19 19H7c-1.103 0-2-.84-2-1.875V15.25h14.667v-.625H5V14h16z"/>
    </g>
</svg>
