<svg xmlns="http://www.w3.org/2000/svg" width="77" height="94" viewBox="0 0 77 94">
    <g fill="none" fill-rule="nonzero">
        <path fill="#182138" d="M18.862 90h-6.718C5.99 90 1 85.023 1 78.884v-41.42C1 29.475 7.492 23 15.5 23S30 29.476 30 37.463v41.42C30 85.024 25.01 90 18.856 90"/>
        <path fill="#182138" d="M18.339 90h-6.684C5.221 89.993.007 84.777 0 78.341V37.005C0 28.718 6.716 22 15 22c8.284 0 15 6.718 15 15.005v41.33C29.997 84.776 24.778 89.997 18.339 90zM15 23.146c-7.647.01-13.844 6.21-13.854 13.859v41.33c.007 5.807 4.71 10.512 10.515 10.519h6.678c5.804-.007 10.508-4.712 10.515-10.52V37.006c-.01-7.65-6.207-13.849-13.854-13.859z"/>
        <path fill="#182138" d="M15.5 40c-3.033-.01-5.49-2.374-5.5-5.293V4.749C10 2.683 11.736 1.007 13.883 1h3.209a3.975 3.975 0 0 1 2.762 1.094A3.68 3.68 0 0 1 21 4.749v29.958c-.01 2.919-2.467 5.283-5.5 5.293"/>
        <path fill="#182138" d="M15 40c-3.312-.003-5.997-2.619-6-5.846V4.308C9 1.928 10.98 0 13.421 0h3.158C19.02 0 21 1.929 21 4.308v29.846c-.003 3.227-2.688 5.843-6 5.846zM13.408 1.145a3.283 3.283 0 0 0-2.289.929 3.116 3.116 0 0 0-.944 2.234v29.846c0 2.598 2.161 4.704 4.828 4.704 2.667 0 4.829-2.106 4.829-4.704V4.308c0-1.744-1.451-3.157-3.24-3.157l-3.184-.006z"/>
        <path fill="#FF5926" d="M2.32 33.187c.04.098.087.194.138.288.147.27.31.53.489.78a8.893 8.893 0 0 0 2.382 2.222c.614.396 1.265.735 1.944 1.012.761.309 1.548.555 2.35.737.864.195 1.74.339 2.621.43.903.085 1.844.122 2.753.134.909.013 1.88-.049 2.777-.128a21.42 21.42 0 0 0 2.633-.406 12.728 12.728 0 0 0 4.295-1.724 7.441 7.441 0 0 0 2.27-2.271c.159-.255.297-.522.413-.798.039-.092.072-.187.1-.282.04-.125.168-.2.3-.177.13.024.222.139.215.269-.02.122-.047.243-.082.362-.09.32-.21.633-.357.933a7.986 7.986 0 0 1-2.307 2.688 12.832 12.832 0 0 1-4.571 2.1 22.3 22.3 0 0 1-2.784.49c-.957.101-1.92.153-2.884.154a24.97 24.97 0 0 1-2.909-.154c-.94-.105-1.87-.279-2.783-.522a12.65 12.65 0 0 1-4.527-2.166 8.55 8.55 0 0 1-2.3-2.664 5.414 5.414 0 0 1-.396-.902 3.331 3.331 0 0 1-.094-.344.156.156 0 0 1 .11-.193.16.16 0 0 1 .197.107M20.071 46.985h-2.21a2.915 2.915 0 0 1-2.477-1.365l-.378-.62-.378.62a2.909 2.909 0 0 1-2.476 1.365h-2.26C6.096 46.985 3 49.937 3 53.547v18.317c0 3.932 3.387 7.151 7.53 7.151h1.69c.98.02 1.882.533 2.402 1.365L15 81l.378-.62a2.903 2.903 0 0 1 2.402-1.365h1.69c4.143 0 7.53-3.219 7.53-7.151V53.547c0-3.61-3.096-6.562-6.91-6.562"/>
        <path fill="#E84E24" d="M19.984 3.17v.115c.021.12.021.243 0 .363-.04.192-.11.376-.212.546a2.504 2.504 0 0 1-.487.606c-.22.197-.465.368-.73.51a5.027 5.027 0 0 1-.91.38 6.144 6.144 0 0 1-1.025.231c-.356.053-.716.08-1.076.079h-.532a7.24 7.24 0 0 1-1.57-.29 4.699 4.699 0 0 1-1.653-.874 2.596 2.596 0 0 1-.506-.575 2.02 2.02 0 0 1-.244-.546 1.653 1.653 0 0 1-.032-.515c0-.11.095-.2.212-.2.117 0 .211.09.211.2v.097c.022.09.054.177.096.26.066.128.15.246.25.352.138.138.293.26.462.364.201.129.416.238.64.327.259.105.527.188.801.248.293.072.59.123.89.152.155 0 .302 0 .456.036h.487a8.783 8.783 0 0 0 1.838-.206c.273-.062.541-.143.801-.242.223-.087.438-.193.641-.315.174-.104.336-.226.48-.364.106-.107.199-.225.276-.351a.94.94 0 0 0 .115-.273l.032-.115c0-.067.058-.122.129-.122.07 0 .128.055.128.122"/>
        <path fill="#E84E24" d="M19.984 4.17v.12c.021.122.021.248 0 .37-.046.192-.12.376-.219.547-.13.22-.295.416-.488.585-.228.202-.481.375-.753.516a4.954 4.954 0 0 1-.907.384 5.965 5.965 0 0 1-1.016.232A7.036 7.036 0 0 1 15.527 7h-.528c-.18 0-.366 0-.54-.063a6.844 6.844 0 0 1-1.023-.233 4.65 4.65 0 0 1-1.646-.88 2.651 2.651 0 0 1-.502-.579 2.102 2.102 0 0 1-.244-.547 1.76 1.76 0 0 1-.039-.522c0-.063.034-.121.09-.152a.184.184 0 0 1 .18 0c.056.031.09.09.09.152v.107c.02.095.05.188.09.277.066.138.15.267.251.383.138.15.293.283.463.397.202.137.418.255.643.352.262.111.533.2.81.264.298.077.602.132.908.163.16 0 .308 0 .463.044.154.044.347 0 .495 0a8.332 8.332 0 0 0 1.865-.226c.277-.065.548-.152.81-.258a4.05 4.05 0 0 0 .644-.34 2.81 2.81 0 0 0 .482-.39c.108-.115.199-.244.27-.383.05-.091.087-.189.11-.29v-.119a.116.116 0 0 1 .027-.115.123.123 0 0 1 .116-.035.12.12 0 0 1 .088.081.108.108 0 0 1 .084.1"/>
        <path fill="#FF5926" d="M20 25.231v.353c0 .084 0 .186-.037.302a2.51 2.51 0 0 1-.265.732c-.166.29-.374.552-.617.777-.27.264-.57.492-.893.68-.353.21-.724.382-1.11.514a6.748 6.748 0 0 1-1.233.308 7.879 7.879 0 0 1-1.319.103h-.647a6.2 6.2 0 0 1-.672-.077 8.148 8.148 0 0 1-1.233-.308 6.644 6.644 0 0 1-1.116-.508 4.866 4.866 0 0 1-.906-.642 3.49 3.49 0 0 1-.617-.77 2.76 2.76 0 0 1-.29-.738 1.897 1.897 0 0 1-.042-.514v-.18a.26.26 0 0 1 .224-.261.254.254 0 0 1 .275.203v.058l.03.129c.026.12.065.236.118.346.084.17.187.327.308.469.167.188.355.354.561.494.25.173.517.32.795.437.315.141.64.253.974.334.358.097.723.166 1.091.205.191 0 .37 0 .555.052.185.051.426 0 .617 0 .388 0 .776 0 1.152-.077.37-.053.736-.128 1.098-.225.333-.082.66-.19.98-.321.278-.11.546-.245.801-.405a3.27 3.27 0 0 0 .586-.488 2.68 2.68 0 0 0 .339-.475c.03-.07.061-.128.092-.186.031-.058.037-.128.05-.18l.037-.154a.161.161 0 0 1 .154-.12c.071 0 .134.049.154.12"/>
        <path fill="#E84E24" d="M12.019 3.867V3.79a.648.648 0 0 1 0-.243c.068-.29.23-.55.465-.747.315-.27.688-.472 1.094-.593a3.92 3.92 0 0 1 .686-.154 4.72 4.72 0 0 1 .73-.053 5.08 5.08 0 0 1 1.395.202c.407.123.782.325 1.1.592.239.192.412.445.498.729.017.114.017.23 0 .344l-.27.047a1.035 1.035 0 0 0-.082-.237 1.217 1.217 0 0 0-.472-.474 3.154 3.154 0 0 0-.962-.38 4.095 4.095 0 0 0-.598-.1 6.522 6.522 0 0 0-.629-.036c-.188 0-.415 0-.628.036-.201.023-.4.056-.598.1a3.401 3.401 0 0 0-.975.368 1.334 1.334 0 0 0-.503.474c-.045.08-.078.166-.1.255 0 .044-.038.08-.085.08-.047 0-.085-.036-.085-.08"/>
        <path fill="#FF5926" d="M75 47L59.003 68 43 47z"/>
        <path fill="#FFF" d="M59.519 68L42 46h35L59.519 68zm-14.94-20.778l14.94 18.782 14.94-18.782h-29.88z"/>
        <path fill="#FF5926" d="M75 44.5c0-3.056-7.165-5.5-16-5.5s-16 2.444-16 5.5S50.165 50 59 50s16-2.444 16-5.5"/>
        <path fill="#FFF" d="M59.5 50C51.505 50 43 47.894 43 44s8.499-6 16.5-6S76 40.106 76 44s-8.505 6-16.5 6zm0-10.8c-8.997 0-15.274 2.526-15.274 4.8s6.271 4.8 15.274 4.8 15.274-2.526 15.274-4.8-6.277-4.764-15.274-4.764V39.2z"/>
        <path fill="#FF5926" d="M60.542 82.815L59 78l-1.542 4.815a7.868 7.868 0 0 1-4.346 4.876c-1.31.566-2.112 1.312-2.112 2.143C51 91.585 54.58 93 59 93s8-1.42 8-3.166c0-.825-.802-1.577-2.112-2.143a7.868 7.868 0 0 1-4.346-4.876"/>
        <path fill="#FF5926" d="M59.506 94C55.38 94 51 92.645 51 90.139c0-1.078.87-2.057 2.447-2.759a7.347 7.347 0 0 0 3.95-4.606L59.5 76l2.102 6.774a7.347 7.347 0 0 0 3.951 4.606C67.136 88.088 68 89.067 68 90.14 68.012 92.645 63.632 94 59.506 94zm0-13.893l-.942 3.036a8.57 8.57 0 0 1-4.652 5.37c-1.075.48-1.716 1.084-1.716 1.62 0 1.231 3.117 2.617 7.286 2.617 4.168 0 7.286-1.386 7.286-2.617 0-.536-.64-1.14-1.716-1.62a8.57 8.57 0 0 1-4.628-5.37l-.918-3.036z"/>
        <path fill="#FF5926" d="M59 64h1v21h-1z"/>
        <path fill="#FFF" d="M53.17 51.626s.984.084 2.457.163l1.207.058 1.316.048c.459 0 .93.026 1.407 0 .476-.026.965 0 1.448 0h.725l.718-.042c.477 0 .942-.058 1.394-.106.453-.047.888-.084 1.298-.142.41-.058.81-.095 1.165-.164l.984-.153.749-.158.664-.127c.124-.019.246.044.285.15.04.104-.015.218-.128.267l-.604.248-.736.27c-.29.089-.604.19-.984.284-.397.112-.8.205-1.208.28-.422.09-.875.174-1.34.237-.465.063-.953.127-1.448.163a35.03 35.03 0 0 1-1.51.085c-.988.031-1.978.006-2.963-.074-.471-.053-.924-.084-1.353-.153-.428-.069-.833-.121-1.207-.2a15.082 15.082 0 0 1-2.414-.644c-.078-.031-.113-.11-.079-.18a.162.162 0 0 1 .157-.078M47.037 44.753a2.32 2.32 0 0 1 .104-.195c.128-.165.267-.318.415-.458.224-.22.462-.42.714-.597a8.987 8.987 0 0 1 1.001-.631 11.59 11.59 0 0 1 1.22-.576c.47-.193.949-.355 1.435-.486.5-.174 1.025-.243 1.556-.368.53-.125 1.08-.167 1.623-.243.543-.076 1.092-.104 1.63-.139.537-.035 1.067 0 1.574-.041.507-.042 1.007 0 1.47 0l1.313.083c.409 0 .775.097 1.104.132l.849.11.738.119c.125.022.217.144.217.288 0 .143-.092.266-.217.288l-.738.041-1.941.07-1.294.062c-.457 0-.94.035-1.44.084-.5.048-1.013.041-1.532.104-.518.062-1.05.083-1.574.152-.525.07-1.05.132-1.562.222-.513.09-1.02.167-1.502.278l-.714.153-.671.18c-.446.097-.842.264-1.22.368-.379.104-.715.27-1.001.403a7.72 7.72 0 0 0-.745.381 6.082 6.082 0 0 0-.452.292c-.05.036-.1.075-.146.118a.144.144 0 0 1-.11.053.144.144 0 0 1-.11-.053.2.2 0 0 1 0-.215M5 60.148V56c.28.013.557.049.83.107.254.047.505.11.751.186l.101.034v2.918l.462.079v-2.9c.28 0 .56.022.835.067.256.035.51.086.758.152l.101.029v2.94l.462.056v-2.963a5.04 5.04 0 0 1 .841.029c.255.023.509.063.758.118H11V61a39.214 39.214 0 0 1-6-.852M12.345 57.325l.232-.09c.196-.063.395-.113.596-.15.3-.062.605-.09.91-.084 1.31 0 1.917.532 1.917 1.68v3.178a3.681 3.681 0 0 1-1.417 0H14.5l-.119-.356c-.25.371-.672.557-1.09.48-.856-.04-1.291-.61-1.291-1.674s.548-1.42 1.786-1.382l.524.04v-.078c0-.26-.185-.403-.542-.416a3.837 3.837 0 0 0-.798.091l-.125.04a1.656 1.656 0 0 1-.369-.598 1.976 1.976 0 0 1-.125-.603v-.078h-.006zm1.947 2.647a1.502 1.502 0 0 0-.227 0c-.267 0-.392.123-.392.486 0 .364.083.52.273.526.19.006.316-.234.34-.733l.006-.28zM20.232 56.24c.292-.081.59-.14.89-.178.255-.038.513-.058.77-.062H22v4.454c-.258.09-.524.153-.795.185a3.568 3.568 0 0 1-.686.037h-.09v-.825c.002-.3.024-.6.066-.898.047-.326.101-.615.143-.781l.072-.283h-.072a11.48 11.48 0 0 1-.346 1.23l-.335.954a1.463 1.463 0 0 1-.484.11 1.682 1.682 0 0 1-.46 0h-.06l-.298-.787a16.596 16.596 0 0 1-.34-1.095l-.049-.185h-.077c.192.623.293 1.273.298 1.926v.825a2.983 2.983 0 0 1-.716.117 3.59 3.59 0 0 1-.687 0H17v-4.492c.287-.06.58-.097.872-.11.245-.018.49-.018.735 0h.101l.466 1.156c.126.288.22.59.281.898.07-.33.175-.65.317-.953l.46-1.23M24.947 58.506c-.753.217-1.14.322-1.888.494a3.472 3.472 0 0 1-.057-.75 4.272 4.272 0 0 1 .045-.68v-.076c.76-.172 1.141-.27 1.889-.494.049.244.07.497.063.75a4.35 4.35 0 0 1-.046.68v.076M6.691 64.588v3.077a5.087 5.087 0 0 1-1.584-.284L5 67.341V63c1.32.29 2.656.51 4 .655v4.34a4.312 4.312 0 0 1-.86-.047 4.87 4.87 0 0 1-.736-.153l-.107-.036v-3.076l-.594-.1M15 64.302c-.562 2.049-.844 3.067-1.406 5.104-.305 1.145-.898 1.673-2.072 1.585a3.532 3.532 0 0 1-.813-.176l-.128-.038a2.267 2.267 0 0 1-.068-.629c.002-.19.033-.38.092-.56v-.081c.118.035.239.058.36.07.201.048.412.012.587-.1a.792.792 0 0 0 .343-.498l.049-.17a2.123 2.123 0 0 1-.52-.107c-.568-1.886-.856-2.804-1.424-4.683.313-.025.628-.025.941 0 .27.018.537.055.801.113h.08l.489 1.59c.122.409.196.83.22 1.258v.195h.036c.029-.473.107-.94.233-1.396l.427-1.54c.282-.04.566-.056.85-.044.266 0 .531.02.795.056h.091M17.69 67.186v1.69c-.278.073-.56.112-.845.117-.255.016-.51.005-.763-.032H16v-4.708a4.5 4.5 0 0 1 .845-.097c.248-.018.496-.018.744 0h.1V65.8l.622-.04v-1.605c.278-.072.56-.12.844-.143a5.43 5.43 0 0 1 .745 0h.1v4.707c-.275.09-.558.145-.845.163a3.769 3.769 0 0 1-.762 0h-.082v-1.69l-.622.038M22.765 65.648l.575-.103c1.11-.206 1.66.167 1.66 1.196 0 1.03-.55 1.68-1.66 1.886-.933.174-1.402.25-2.34.373v-4.73c.286-.092.58-.159.877-.199.293-.05.59-.074.888-.07v1.647zm0 1.93l.198-.032a.378.378 0 0 0 .264-.142.41.41 0 0 0 .088-.296c0-.25-.117-.354-.352-.315l-.198.032v.753z"/>
        <path fill="#182138" d="M16 51a1 1 0 1 1-2 0 1 1 0 0 1 2 0M16 74a1 1 0 1 1-2 0 1 1 0 0 1 2 0"/>
    </g>
</svg>
