<svg xmlns="http://www.w3.org/2000/svg" width="99" height="80" viewBox="0 0 99 80">
    <g fill="none" fill-rule="nonzero">
        <path fill="#FF5926" d="M98.32 35c-.29-2.14-2.76-2.88-5.71-3.63-4.4-1.13-8.88-3.74-12.42-6.1-1.58-1.06-3.63-1.88-5.5.05-1.21 1.24-1.57 2.25-5.46 3.89-1.46.62-3.14.56-5 1.15a4.23 4.23 0 0 0-2.61 1.88 7.3 7.3 0 0 1 3.26.06 24.78 24.78 0 0 0 4.85.64 21.1 21.1 0 0 0 5.16-.87 16.41 16.41 0 0 1 2.72-.49C80 31.61 80.93 33 82 35.34c1.84 4.11 3.59 6.17 4.51 6.63a1.63 1.63 0 0 0 1.45-.8c1.35-2.24-1.21-4.59-1.21-4.59a10.18 10.18 0 0 0 4.11 1.6c5.14 1.07 7.76-.95 7.46-3.18z"/>
        <path fill="#FF5926" d="M88.44 47.28c-2.58-2.35-5-4.73-7.84-11.4a3.63 3.63 0 0 0-3.6-2.57 7.09 7.09 0 0 0-1.65.22 20.9 20.9 0 0 1-5.2.68 17.7 17.7 0 0 1-4.87-.66 9.32 9.32 0 0 0-2.28-.34 3.45 3.45 0 0 0-2.78 1.13 5.62 5.62 0 0 0-1 4.83c.49 2.34 2 2.94 2.72 2.94.496.003.96-.24 1.24-.65 0 0-.5 3.83 1.59 4.94a2.1 2.1 0 0 0 1 .27 2.64 2.64 0 0 0 2.29-2.12s-.11 4 2 4.78c.318.13.657.201 1 .21a2.39 2.39 0 0 0 2.25-2 8.78 8.78 0 0 0 1.3 3.6 4.8 4.8 0 0 0 3.73 2.24 2.73 2.73 0 0 0 1-.18c2.46-.88 1.4-4.2 1.4-4.2a14.3 14.3 0 0 0 2.93 3.41 8.91 8.91 0 0 0 5.42 2.17 2.61 2.61 0 0 0 2.67-1.39c.75-2.01-1.06-3.85-3.32-5.91z"/>
        <path fill="#FFF" d="M86.81 64.12c-.52-1.16 0-2.05-1.26-2.67-1.26-.62-2.6 1-3.87.56-5-1.75-7.26-1.47-9.48-.49a8.28 8.28 0 0 0-1.65 1.15c-.14.12-.32 0-.22-.22a4.4 4.4 0 0 1 .89-1.15 7.91 7.91 0 0 1-.82-2.67 17 17 0 0 1-8 2.9c1.22 2.84 3 5.91 6.51 7 2.91.93 6.62-1.5 8.53-2 3.25-.82 5.24-1.3 10.13 2.52a.91.91 0 0 0 1.54-.76c-.11-1.16-1.56-2.52-2.3-4.17zM55.57 22.25a6.89 6.89 0 0 1-4-1.33 8.76 8.76 0 0 0-.89 6.49 4.72 4.72 0 0 0 4.86 3.37 5.65 5.65 0 0 0 3.6-1.21 7.15 7.15 0 0 0 6.58-3.78 7.66 7.66 0 0 0-3.49-10.65c-2.89-1.07-4.63-.59-7 .1a4.67 4.67 0 0 1-4.43-1.16s-1.09 3.79 1.15 5.63a6.77 6.77 0 0 0 3.41 1.35 13 13 0 0 0 4-.28.27.27 0 0 1 .23.47 6.08 6.08 0 0 1-4.02 1zm4.79 3.83a1.36 1.36 0 0 0 1.18-1.29 1.11 1.11 0 0 0-1.06-1.28.21.21 0 0 1 0-.4 1.83 1.83 0 0 1 .77-.08 1.58 1.58 0 0 1 1.44 1.85 1.82 1.82 0 0 1-2.05 1.56.8.8 0 0 1-.28-.08.15.15 0 0 1 0-.28z"/>
        <path fill="#FFF" d="M71.16 51.56a3.86 3.86 0 0 1-3.65-4.2 3 3 0 0 1-3.36.66c-1.72-.76-2-3.46-1.86-4.64a2.74 2.74 0 0 1-2.71-.64A5.56 5.56 0 0 1 58 39.58a6.51 6.51 0 0 1 1.81-6.18c.345-.29.71-.558 1.09-.8-.94-.82-3.81-1-5.66 0a10.51 10.51 0 0 0-3.22 2.94c-.82 1.12-1.35 1.83-2.06 2.74A12.22 12.22 0 0 1 47.2 41a21.17 21.17 0 0 0-6.91-3.7 3 3 0 0 1-1.42-1 7.94 7.94 0 0 0-1.66-1.56 5.41 5.41 0 0 0-1.12-3.41l-5.4-7.06 9.21 1.88.78.12a8.11 8.11 0 0 0 1.37.9c-.62 5 .36 8.47 1.55 10a5.86 5.86 0 0 0 4.57 1.94c1.34-.88 2.24-4.27 4.31-5.81a12.21 12.21 0 0 0-2.41.66 5.68 5.68 0 0 1-2.78.1 15.87 15.87 0 0 0-2.35-6.48 2.54 2.54 0 0 1-.33-1.69 6 6 0 0 0 .06-1.53 5.36 5.36 0 0 0 1.22-2.53 5.51 5.51 0 0 0-4.29-6.38 5.45 5.45 0 0 0-6.25 7l-5.66-1.24A31 31 0 0 0 22 6.83C16.84 1.61 12.87.62 10.5 0c-.66-.17-1.32.65-.94 1.16L24 20.14.82 14.95c-.62-.14-1.08.81-.65 1.34 1.55 1.89 4.13 5.06 11 7.47a31 31 0 0 0 16.34.87l3.53 4.6a5.41 5.41 0 0 0-3 1.35 5.5 5.5 0 0 0-.9 7.09 5.4 5.4 0 0 0 7.39 1.62 2.83 2.83 0 0 0 .58-.49 7.45 7.45 0 0 0 2.48.33 19.84 19.84 0 0 0 8.46 7.37 3.32 3.32 0 0 0 2.29 0 18.2 18.2 0 0 0 5.36-2.86.202.202 0 1 1 .28.29 13.32 13.32 0 0 1-1.75 1.73 15.27 15.27 0 0 0 4.39 6.92c-2.42 1.06-6.34 3-7.76 5.54-3.47 6.18 4.88 9 7.46 10.88 4 2.88 4.18 3.69 5.15 10 .1.66.48.9.87.9a1 1 0 0 0 .78-.39c.73-1 .59-2.83 1.27-4.55.76-1.92 1.86-2.66 1.24-3.94-.62-1.28-2.19-.67-2.83-2.23-.2-.49-.4-.94-.61-1.36-1.7-3.5-2.84-4.61-4.6-5.33a8.17 8.17 0 0 0-1.59-.41.19.19 0 0 1 0-.38 12.79 12.79 0 0 1 1.66-.09 19.46 19.46 0 0 0 10-2.56c4.87-2.89 3.5-7.1 3.5-7.1zM40.54 18a2.83 2.83 0 0 1 2.83 2.83 2.78 2.78 0 0 1-.1.72 3.2 3.2 0 0 0-3.83 1.9 2.84 2.84 0 0 1 1.1-5.45zM28.9 34.61a2.83 2.83 0 0 1 5.59-.67 3 3 0 0 0-1.55 3.23 2.83 2.83 0 0 1-4.04-2.56z"/>
    </g>
</svg>
