<svg xmlns="http://www.w3.org/2000/svg" width="417" height="706" viewBox="0 0 417 706">
    <g fill="none" fill-rule="evenodd" transform="matrix(-1 0 0 1 417 0)">
        <circle cx="56.5" cy="471.5" r="4.5" fill="#182138" fill-rule="nonzero" transform="rotate(-.07 56.5 471.5)"/>
        <path fill="#FFF" d="M8 223s2.65-29.293 21.056-88.896C42.322 91.06 75.644 31 75.644 31L105 171.229 8 223z"/>
        <path fill="#FF5926" d="M74.974 33.86C68.167 46.538 41.67 96.907 30.343 134c-15.15 49.56-19.55 78.433-20.58 86.496l93.574-50.316L74.974 33.86zM8.245 224a1.234 1.234 0 0 1-.922-.409 1.257 1.257 0 0 1-.317-.964c0-.3 2.845-30.194 20.945-89.366C40.973 90.48 74.136 30.251 74.415 29.653a1.236 1.236 0 0 1 2.304.352l29.254 140.58a1.271 1.271 0 0 1-.628 1.373L8.839 223.842a1.248 1.248 0 0 1-.576.158h-.018z"/>
        <path fill="#FF5926" d="M73.075 203.13l.598-150.471c.12-.39.5-.659.934-.659.434 0 .816.269.935.659L77 203.13c0 1.032-.895 1.869-2 1.869s-2-.837-2-1.87h.075z"/>
        <path fill="#182138" d="M71.549.662c-.899-.233-22.34-5.09-46.857 15.469a1.961 1.961 0 0 0-.614 2.047c.216.749.849 1.286 1.599 1.359L70.979 24h.172C72.172 24 73 23.141 73 22.082V2.526c-.004-.897-.607-1.671-1.451-1.864zM113 196.47c-1.434-5.459-5.447-9.853-10.725-11.746-5.258-1.89-14.02-.318-25.131 7.542C63.895 201.645 55.063 216.322 48 231l65-34.53z"/>
        <path fill="#FF5926" d="M98.712 186.07c-5.248 0-12.123 2.708-19.365 7.73-11.633 8.057-19.663 20.325-25.54 31.385l57.728-29.971c-1.612-3.968-4.864-7.07-8.94-8.524a11.337 11.337 0 0 0-3.83-.604l-.053-.017zM49.066 232a2.07 2.07 0 0 1-1.753-.959 2.012 2.012 0 0 1-.102-1.974c6.263-12.717 15.325-28.608 29.74-38.615 10.495-7.23 20.292-10.008 26.974-7.61 5.936 2.07 10.44 6.913 12.018 12.924a2.026 2.026 0 0 1-1.05 2.278l-64.9 33.732a2.087 2.087 0 0 1-.927.224z"/>
        <path fill="#182138" d="M18 241.488L144 172l-6.29 45.117-71.262 37.627c-17.142 9.05-38.45 3.22-48.448-13.256z"/>
        <path fill="#FF5926" d="M20.56 242.231c9.95 14.52 29.349 19.26 44.966 10.985l70.591-37.327 5.595-40.598L20.56 242.23zM49.238 261c-13.502.018-26.02-6.996-32.967-18.471a1.857 1.857 0 0 1-.206-1.452c.133-.492.462-.909.912-1.154l126.217-69.687a1.903 1.903 0 0 1 1.983.09c.59.4.902 1.097.806 1.799l-6.3 45.146a1.872 1.872 0 0 1-.989 1.4L67.31 256.521A38.568 38.568 0 0 1 49.238 261z"/>
        <path fill="#FFF" d="M142.614 501C119.82 501 79 508.022 79 565.811c0 61.23 3.086 83.156 11.047 98.305 5.26 10.06 21.216 31.107 41.187 38.076a33.156 33.156 0 0 0 21.182.14c21.04-6.846 36.576-28.087 41.871-38.268C202.247 648.897 206 627.04 206 565.759c.053-57.737-40.592-64.759-63.386-64.759z"/>
        <path fill="#FFF" d="M78.063 599.57c-.157-7.992-9.194-10.303-13.127-7.314-8.04 6.116-1.748 18.07 1.189 25.106C70.18 626.92 72.33 639.515 81 642l-2.937-42.43zM204.937 599.57c.157-7.992 9.176-10.303 13.127-7.314 8.04 6.116 1.748 18.07-1.189 25.106C212.802 626.92 210.67 639.515 202 642l2.937-42.43z"/>
        <path fill="#FF5926" d="M142.614 502.76c-28.213 0-61.855 10.93-61.855 62.997 0 58.199 2.636 81.886 10.84 97.543 5.762 10.965 21.765 30.769 40.229 37.2a31.174 31.174 0 0 0 20.027.123c20.255-6.554 35.591-27.325 40.861-37.394 7.467-14.216 11.507-33.967 11.507-97.472 0-52.067-33.519-62.997-61.626-62.997h.017zM141.947 706a34.336 34.336 0 0 1-11.349-1.933c-21.924-7.644-37.98-30.751-42.32-39.01C79.741 648.785 77 624.64 77 565.774 77 507.681 118.108 499 142.614 499c24.507 0 65.386 8.68 65.386 66.774 0 64.28-4.199 84.47-11.946 99.213-5.938 11.316-21.678 32.297-43.04 39.238a35.951 35.951 0 0 1-11.032 1.757l-.035.018z"/>
        <path fill="#FF5926" d="M81.908 644c-7.785-2.201-10.863-10.763-13.852-19.044-.823-2.289-1.682-4.665-2.613-6.814l-.84-1.887c-3.383-7.583-8.502-19.044.214-25.578a10.523 10.523 0 0 1 10.487-.524c3.718 1.69 6.082 5.343 6.05 9.347h-3.83c-.034-2.394-1.348-4.595-3.465-5.804a7.146 7.146 0 0 0-6.88-.102c-5.852 4.386-2.881 12.475.967 21.106l.859 1.922c.966 2.254 1.79 4.682 2.702 6.989 2.774 7.722 5.37 15.008 11.293 16.685L81.908 644zM203.03 644l-1.03-3.601c5.649-1.749 8.173-8.97 10.834-16.696a173.39 173.39 0 0 1 2.593-6.994l.807-1.923c3.692-8.636 6.542-16.73.927-21.119a6.61 6.61 0 0 0-6.59.055c-2.035 1.19-3.313 3.377-3.368 5.767h-3.675c-.028-3.996 2.232-7.642 5.787-9.336a9.74 9.74 0 0 1 10.061.525c8.38 6.52 3.434 18.007.206 25.594l-.79 1.889c-.892 2.15-1.716 4.528-2.506 6.818-2.833 8.252-5.787 16.8-13.256 19.021zM124.905 658.275l.318.205 1.005.579a30.426 30.426 0 0 0 3.827 1.736 32.169 32.169 0 0 0 5.68 1.588c1.058.224 2.151.354 3.28.466 1.129.112 2.328.15 3.369.168 1.04.02 2.434 0 3.527-.168 1.094-.168 2.222-.224 3.28-.43 1.059-.204 2.082-.41 3.034-.671a24.941 24.941 0 0 0 2.646-.86 22.968 22.968 0 0 0 5.044-2.557 1.208 1.208 0 0 1 1.773.121 1.385 1.385 0 0 1-.115 1.877c-.447.452-.925.87-1.429 1.25a22.416 22.416 0 0 1-4.003 2.465c-1.99.951-4.072 1.671-6.209 2.148-1.203.28-2.423.48-3.65.597-1.306.15-2.505.187-3.722.206-1.217.018-2.575 0-3.845-.225a31.348 31.348 0 0 1-3.633-.653 25.95 25.95 0 0 1-3.316-.99 29.011 29.011 0 0 1-2.875-1.195 26.085 26.085 0 0 1-4.02-2.39c-.477-.336-.812-.635-1.06-.821l-.387-.336a1.382 1.382 0 0 1-.191-1.764c.372-.553 1.08-.719 1.637-.384l.035.038z"/>
        <path fill="#FF5926" d="M140.877 656.21H145.029c.624-.426 1.426-.182 1.791.545.366.728.156 1.663-.468 2.089-.34.285-.71.515-1.102.685a4.815 4.815 0 0 1-1.066.343c-.39.071-.782.114-1.176.128h-1.249a6.049 6.049 0 0 1-1.047-.343 4.233 4.233 0 0 1-.717-.407l-.312-.214c-.634-.402-.869-1.327-.524-2.066.345-.74 1.139-1.013 1.773-.61l-.055-.15z"/>
        <ellipse cx="104" cy="601" fill="#182138" fill-rule="nonzero" rx="5" ry="6"/>
        <path fill="#182138" d="M92.554 597.27s.317-.227.863-.53c.756-.41 1.532-.777 2.325-1.098a22.772 22.772 0 0 1 3.523-1.06 23.149 23.149 0 0 1 4.087-.549 20.452 20.452 0 0 1 7.644 1.023c.46.145.913.315 1.357.51l1.004.474c.563.265.863.454.863.454.618.325.922 1.088.715 1.793-.207.706-.863 1.143-1.543 1.028h-.123s-.317 0-.863-.151c-.546-.152-1.304-.284-2.22-.417-.458 0-.951-.19-1.48-.227-.528-.038-1.074-.17-1.638-.19-.563-.018-1.162-.132-1.761-.113-.599.019-1.215 0-1.762 0a29.981 29.981 0 0 0-3.522.265c-1.145.151-2.22.34-3.136.549-.916.208-1.673.398-2.184.549l-.793.246a1.21 1.21 0 0 1-1.324-.048 1.419 1.419 0 0 1-.581-1.28c.041-.509.34-.952.778-1.152l-.229-.076z"/>
        <ellipse cx="179" cy="601" fill="#182138" fill-rule="nonzero" rx="5" ry="6"/>
        <path fill="#182138" d="M188.991 599.945l-.789-.25c-.508-.155-1.262-.387-2.174-.56-.911-.174-1.98-.406-3.12-.56a30.188 30.188 0 0 0-3.507-.27h-1.753c-.526 0-1.192.096-1.753.115-.561.02-1.122.154-1.63.193-.51.039-1.018.155-1.474.232-.911.135-1.753.29-2.209.425-.456.135-.859.154-.859.154h-.122c-.677.117-1.33-.328-1.537-1.048-.206-.72.097-1.497.712-1.829 0 0 .299-.174.86-.463l.999-.502c.442-.2.892-.373 1.35-.522a19.881 19.881 0 0 1 7.609-1.023c1.368.062 2.728.25 4.068.56a22.34 22.34 0 0 1 3.506 1.081c.79.334 1.562.715 2.314 1.14.544.308.895.56.86.54.594.364.827 1.177.528 1.85-.299.674-1.024.973-1.65.68l-.229.057zM78.586 582.634l.413-.325c.275-.206.653-.548 1.238-.942a39.777 39.777 0 0 1 4.848-2.911 42.892 42.892 0 0 1 7.478-2.81c1.41-.393 2.905-.684 4.4-.958 1.497-.274 3.044-.428 4.66-.548 1.616-.12 3.111-.172 4.607-.12 1.496.051 3.026.103 4.47.274 2.62.28 5.216.743 7.77 1.387a50.094 50.094 0 0 1 5.295 1.713c1.255.462 1.943.77 1.943.77a1.782 1.782 0 0 1 1.22 2.21 1.791 1.791 0 0 1-2.217 1.216l-7.22-1.01a146.836 146.836 0 0 0-7.307-.772c-1.34-.085-2.716-.188-4.109-.222-1.392-.034-2.733 0-4.263 0-1.53 0-2.802.171-4.178.291-1.375.12-2.733.342-4.04.565-2.385.411-4.74.983-7.048 1.713-1.014.325-1.943.65-2.75.959-.809.308-1.514.616-2.064.873l-1.358.617-.481.222a1.258 1.258 0 0 1-1.704-.417 1.247 1.247 0 0 1 .38-1.706l.017-.069zM204.124 584.86l-.481-.223c-.31-.138-.79-.378-1.358-.619-.567-.24-1.255-.55-2.063-.876-.808-.326-1.72-.618-2.75-.962a52.979 52.979 0 0 0-7.05-1.718 49.71 49.71 0 0 0-4.04-.567 70.194 70.194 0 0 0-4.177-.292c-1.34-.051-2.836 0-4.263 0s-2.768.138-4.109.223a149.45 149.45 0 0 0-7.324.774l-7.22 1.013a1.789 1.789 0 1 1-.997-3.436s.705-.31 1.943-.773a51.237 51.237 0 0 1 5.295-1.718 56.164 56.164 0 0 1 7.77-1.392c1.444-.154 2.94-.223 4.47-.274 1.53-.052 3.18 0 4.607.137s3.129.292 4.66.55a48.89 48.89 0 0 1 4.417.962 42.67 42.67 0 0 1 7.479 2.817 39.356 39.356 0 0 1 4.848 2.921c.584.395.945.722 1.237.945l.413.344a1.254 1.254 0 0 1-1.324 2.13l.017.034z"/>
        <path fill="#FF5926" d="M142.5 649c-2.482-.008-4.82-1.243-6.337-3.345l-.19-.257a.976.976 0 0 0-.79-.423h-1.717c-1.871.008-3.547-1.238-4.193-3.117-.645-1.88-.123-3.99 1.308-5.281l3.435-3.106c.773-.706 1.934-.607 2.593.22.66.827.567 2.07-.206 2.775l-3.435 3.106a.866.866 0 0 0-.22.91c.112.323.397.538.718.542h1.718c1.45.003 2.82.721 3.71 1.948l.171.257c.815 1.15 2.086 1.826 3.435 1.826 1.349 0 2.62-.676 3.435-1.826l.172-.257c.883-1.236 2.256-1.957 3.71-1.948h1.717c.427 0 .773-.37.773-.827a.851.851 0 0 0-.275-.625l-3.435-3.106a2.048 2.048 0 0 1-.615-1.855c.119-.691.574-1.262 1.193-1.498.62-.235 1.31-.099 1.81.358l3.434 3.106c1.43 1.29 1.953 3.401 1.308 5.28-.646 1.88-2.322 3.126-4.193 3.118h-1.718a.959.959 0 0 0-.79.423l-.171.257c-1.522 2.105-3.868 3.34-6.355 3.345z"/>
        <path fill="#182138" d="M385.461 352.547c6.646 39.81-8.633 72.12-36.922 83.394 8.791 9.22 26.373 34.453 6.945 63.217-12.553 18.685-25.863 26.183-44.746 34.103-18.883 7.92-42.196 8.604-58.16 23.285-4.818 4.442-10.04 10.536-13.925 29.852-2.198 10.975-2.849 21.863-6.805 32.434-8.667 23.075-23.682 27.377-30.117 29.168l1.143-6.181a17.278 17.278 0 0 0 7.296-6.129c4.923-6.936 4.395-12.924 7.244-20.475 1.758-4.443 5.046-9.676 5.028-14.435a12.896 12.896 0 0 0-2.356-7.955 6.755 6.755 0 0 0-6.435-2.792c-3.516.21-7.42 4.425-7.42 4.425s1.759-24.883-7.753-37.93c-16.562-22.442-35.533-11.8-54.82-25.954-9.916-7.27-12.73-14.558-12.307-16.208-2.304 8.042-6.928 16.98-13.081 22.705-6.523 6.058-14.277 10.712-21.608 15.804-6.611 4.513-10.391 7.34-14.646 15.296-4.396 8.253-3.288 18.736-3.024 29.852-2.32-6.023-5.433-8.165-9.67-7.674-3.657.422-7.033 4.426-7.297 8.078a29.207 29.207 0 0 0 2.304 12.205c5.555 13.31 10.39 25.216 10.39 25.216a74.55 74.55 0 0 1-19.762-20.405c-10.18-15.032-12.711-24.303-16.632-39.95-2.866-11.45-3.71-33.75 3.235-48.168a32.874 32.874 0 0 1 6.417-8.885 20.128 20.128 0 0 1 17.389-6.27s-3.516-15.576 4.079-34.91c5.802-14.873 16.896-22.828 21.784-26.498 16.914-12.696 32.21-23.443 35.164-46.412 1.336-10.29-1.477-21.406-8.791-28.764-10.233-10.185-26.233-11.256-40.597-10.08-14.364 1.177-29.274 3.969-42.9-.72-20.377-7.006-32.227-29.747-32.104-51.258.123-31.31 23.208-61.11 53.52-69.083 21.097-5.567 46.503-2.283 62.15-17.56 6.928-6.779 10.55-16.12 15.825-24.216 10.777-16.349 29.309-26.692 48.578-29.063a69.177 69.177 0 0 1 29.52 2.898c11.077 3.512 21.802 5.057 32.263-1.422 7.279-4.496 12.395-11.66 17.81-18.28 11.305-13.698 26.988-27.588 44.377-31.873 35.884-8.657 81.896 12.292 82.898 53.419a31.789 31.789 0 0 1-4.395 18.14c-3.517 5.268-9.512 9.149-15.824 8.78-8.21-.474-8.79-6.48-13.31-11.186-1.863-1.932-3.516-3.056-6.364-1.756-4.009 1.756-3.622 7.902-.72 11.168 2.9 3.266 7.225 4.83 10.548 7.621 10.655 8.886 8.545 26.675.282 36.42-3.288 3.882-8.229 5.708-11.411 9.676a32.931 32.931 0 0 0-6.224 22.6c2.708 22.741 36.922 30.626 43.937 72.736z"/>
        <path fill="#FF5926" d="M204.412 643.237l-.404 2.213c7.036-2.284 18.717-7.905 25.947-27.159a107.666 107.666 0 0 0 4.961-21.8c.528-3.391 1.073-6.887 1.76-10.348 3.975-19.903 9.34-26.21 14.512-30.953 10.766-9.908 24.628-13.615 38.138-17.18a159.468 159.468 0 0 0 20.6-6.465c19.825-8.31 32.069-15.81 43.978-33.378 19.685-29.302-.193-54.072-6.755-60.976a1.878 1.878 0 0 1 .669-3.039c28.146-11.19 42.22-43.127 35.869-81.353-3.906-23.4-16.237-35.785-27.109-46.711-8.373-8.415-15.603-15.688-16.835-26.105a34.87 34.87 0 0 1 6.615-23.997 28.4 28.4 0 0 1 6.21-5.27 26.748 26.748 0 0 0 5.277-4.374c4.7-5.769 7-13.122 6.42-20.536a19.05 19.05 0 0 0-6.473-13.246 34.869 34.869 0 0 0-4.292-2.899 27.175 27.175 0 0 1-6.491-4.936 11.021 11.021 0 0 1-2.48-9.275 6.695 6.695 0 0 1 3.87-4.867c3.922-1.756 6.385 0 8.478 2.25a30.887 30.887 0 0 1 3.519 4.654c2.163 3.285 3.729 5.675 8.55 5.956a16.488 16.488 0 0 0 14.072-7.923 29.533 29.533 0 0 0 4.099-17.075 49.94 49.94 0 0 0-20.494-39.175 73.965 73.965 0 0 0-60.127-12.473c-19.351 4.655-35.412 21.502-43.293 31.147l-2.322 2.88c-4.644 5.798-9.464 11.788-15.973 15.811-11.575 7.168-23.608 4.849-33.846 1.616a67.657 67.657 0 0 0-28.744-2.828c-19.527 2.407-37.189 12.965-47.269 28.23-1.759 2.653-3.36 5.534-4.925 8.31-3.167 5.674-6.456 11.524-11.241 16.214-11.083 10.84-26.827 12.736-42.044 14.581a159.07 159.07 0 0 0-20.986 3.513c-29.501 7.59-52 36.54-52.124 67.107 0 19.324 10.555 42.495 30.856 49.522 10.906 3.76 23.01 2.53 34.708 1.352 2.498-.245 4.978-.509 7.44-.72 19.598-1.634 33.425 1.757 42.22 10.54 7.371 7.379 10.872 18.727 9.376 30.339-2.99 22.978-18.171 34.361-34.232 46.395l-2.2 1.651c-4.96 3.707-15.251 11.419-20.687 25.332a64.214 64.214 0 0 0-3.993 33.834c.14.626-.048 1.28-.5 1.736a1.884 1.884 0 0 1-1.734.513 18.186 18.186 0 0 0-15.657 5.744 31.078 31.078 0 0 0-6.069 8.38c-6.737 14.054-5.875 35.855-3.113 46.904 3.958 15.81 6.49 24.77 16.377 39.368a81.352 81.352 0 0 0 13.81 15.776c-1.936-4.726-4.75-11.56-7.758-18.744a30.828 30.828 0 0 1-2.445-13.106c.44-4.708 4.626-9.275 8.954-9.767a9.085 9.085 0 0 1 7.775 2.53c-.264-8.784-.211-16.882 3.518-23.786 4.45-8.327 8.497-11.349 15.252-15.969a491.021 491.021 0 0 1 4.978-3.338 127.225 127.225 0 0 0 16.413-12.297 49.453 49.453 0 0 0 12.56-21.836 1.884 1.884 0 0 1 3.168-.79 1.88 1.88 0 0 1 .456 1.827c0 1.107 2.498 7.536 11.575 14.194 7.829 5.727 15.833 7.255 23.397 8.784 10.73 2.055 21.813 4.163 31.77 17.795 7.477 10.242 8.303 26.984 8.25 34.871a11.003 11.003 0 0 1 5.278-2.108 8.695 8.695 0 0 1 8.04 3.514 14.707 14.707 0 0 1 2.761 9.117c0 3.777-1.759 7.677-3.413 11.137-.65 1.406-1.266 2.723-1.759 3.97a56.681 56.681 0 0 0-2.146 7.555 33.948 33.948 0 0 1-5.277 13.35 20.344 20.344 0 0 1-7.16 6.342l-.106-.052zM201.598 650a1.883 1.883 0 0 1-1.847-2.231l1.143-6.184a1.88 1.88 0 0 1 1.214-1.423 15.72 15.72 0 0 0 6.403-5.463 30.472 30.472 0 0 0 4.75-12.034 59.665 59.665 0 0 1 2.287-8.028c.528-1.37 1.16-2.758 1.759-4.216 1.513-3.25 3.078-6.605 3.06-9.539.092-2.418-.6-4.802-1.97-6.798a4.893 4.893 0 0 0-4.837-2.073c-2.234.123-5.277 2.863-6.14 3.83a1.884 1.884 0 0 1-3.254-1.406c0-.246 1.601-24.366-7.406-36.715-9.007-12.35-18.963-14.318-29.43-16.32-8.075-1.546-16.413-3.127-24.927-9.381a40.428 40.428 0 0 1-11.17-11.823 50.673 50.673 0 0 1-11.646 18.182 129.706 129.706 0 0 1-16.888 12.596c-1.654 1.107-3.307 2.196-4.943 3.32-6.456 4.41-10.01 7.027-14.074 14.634-3.518 6.675-3.272 15.283-2.955 24.4 0 1.511.106 3.057.14 4.603a1.883 1.883 0 0 1-3.641.72c-2.392-6.219-5.277-6.763-7.687-6.482a7.522 7.522 0 0 0-5.647 6.394 27.617 27.617 0 0 0 2.164 11.296c5.506 13.175 10.361 25.121 10.414 25.244a1.878 1.878 0 0 1-.533 2.15 1.884 1.884 0 0 1-2.211.151 75.867 75.867 0 0 1-20.336-20.957c-10.238-15.126-12.842-24.313-16.905-40.563-2.903-11.594-3.783-34.607 3.377-49.451a34.837 34.837 0 0 1 6.79-9.399 22.655 22.655 0 0 1 16.484-7.027 69.583 69.583 0 0 1 4.573-33.518c5.823-14.914 16.712-23.066 21.937-26.983l2.199-1.651c16.078-12.051 29.905-22.469 32.755-43.918 1.355-10.54-1.759-20.642-8.303-27.194-7.934-7.94-20.758-11.05-39.176-9.522-2.445.211-4.908.457-7.389.703-12.102 1.23-24.628 2.512-36.308-1.528C13.669 359.58 0 337.744 0 313.308c.088-32.254 23.713-62.662 54.92-70.901a162.047 162.047 0 0 1 21.497-3.514c15.27-1.844 29.677-3.513 39.845-13.544 4.415-4.304 7.423-9.68 10.555-15.371 1.583-2.846 3.236-5.78 5.066-8.556 10.66-16.179 29.342-27.352 49.942-29.864a71.321 71.321 0 0 1 30.328 2.97c9.904 3.126 20.458 5.129 30.732-1.23 5.946-3.69 10.555-9.417 15.005-14.968l2.428-2.951c8.18-9.996 24.945-27.51 45.316-32.412 21.32-5.147 46.177 0 63.329 13.158 9.728 7.466 21.461 20.835 21.971 42.161a33.2 33.2 0 0 1-4.697 19.219 20.272 20.272 0 0 1-17.591 9.644c-6.702-.386-9.13-4.075-11.47-7.641a27.69 27.69 0 0 0-3.096-4.111c-1.759-1.757-2.62-2.126-4.274-1.405a2.952 2.952 0 0 0-1.76 2.23 7.3 7.3 0 0 0 1.636 5.956 24.062 24.062 0 0 0 5.647 4.216 38.51 38.51 0 0 1 4.732 3.215 22.545 22.545 0 0 1 7.811 15.81 32.838 32.838 0 0 1-7.283 23.189 30.018 30.018 0 0 1-5.946 5.024 25.13 25.13 0 0 0-5.435 4.62 31.273 31.273 0 0 0-5.823 21.221c1.073 9.135 7.88 15.969 15.832 23.892 10.713 10.768 24.048 24.155 28.146 48.749 6.492 38.928-7.494 71.726-35.728 84.427 7.213 8.415 25.156 34.186 5.278 63.646-12.314 18.358-25.543 26.351-45.615 34.8a162.233 162.233 0 0 1-21.11 6.624c-13.017 3.513-26.387 7.026-36.555 16.302-4.697 4.321-9.605 10.119-13.37 28.933-.685 3.39-1.213 6.851-1.758 10.189a112.299 112.299 0 0 1-5.155 22.539c-9.042 24.067-24.628 28.458-31.383 30.338a1.92 1.92 0 0 1-.37.053V650z"/>
        <path fill="#182138" d="M138.956 509.831l-.229 1.977-.123 1.067v1.05a22.37 22.37 0 0 0 0 2.659c.02 2.372.389 4.73 1.092 6.997a21.634 21.634 0 0 0 4.441 7.785 43.341 43.341 0 0 0 9.321 7.504c3.807 2.414 8.177 4.741 12.776 7.26a148.003 148.003 0 0 1 14.096 8.572c1.163.84 2.326 1.75 3.524 2.571.576.444 1.163.904 1.763 1.382l.828.7.405.35.317.28.194.175a45.676 45.676 0 0 1 5.92 6.665 50.146 50.146 0 0 1 7.437 15.849 64.844 64.844 0 0 1 2.273 16.426 71.268 71.268 0 0 1-5.392 28.357 55.747 55.747 0 0 1-5.533 10.164 44.805 44.805 0 0 1-5.85 6.753 34.436 34.436 0 0 1-4.547 3.498l-1.762 1.067a.725.725 0 0 1-.89-.256.713.713 0 0 1 .097-.916l1.586-1.12a32.434 32.434 0 0 0 4.088-3.62 42.242 42.242 0 0 0 5.128-6.735 53.001 53.001 0 0 0 4.634-9.954 67.277 67.277 0 0 0 3.384-27.01 59.38 59.38 0 0 0-3.031-14.887 44.422 44.422 0 0 0-7.313-13.4 37.204 37.204 0 0 0-5.392-5.37l-1.445-1.103a25.53 25.53 0 0 0-1.568-1.137c-1.057-.77-2.15-1.47-3.242-2.169a140.593 140.593 0 0 0-13.692-7.347c-4.634-2.24-9.25-4.391-13.638-6.823a53.439 53.439 0 0 1-11.912-8.746 32.445 32.445 0 0 1-7.33-11.214 35.207 35.207 0 0 1-2.238-9.919 33.554 33.554 0 0 1-.124-3.778v-2.624c0-1.295.124-1.977.124-1.977a5.89 5.89 0 0 1 3.193-5.166 5.975 5.975 0 0 1 6.095.36 5.88 5.88 0 0 1 2.553 5.506c0 .087 0 .21-.018.297z"/>
        <path fill="#FF5926" d="M123.702 526.442s-.247-1.111-.41-2.685a46.356 46.356 0 0 1-.288-5.815c.029-2.809.33-5.611.903-8.38.18-.378.644-.607 1.129-.555.484.053.864.373.922.778-.186 2.68-.11 5.368.225 8.038.228 1.826.57 3.642 1.026 5.438.369 1.471.697 2.377.697 2.377.227.627.036 1.306-.5 1.784-.537.477-1.339.679-2.103.53-.764-.15-1.374-.627-1.601-1.253a1.512 1.512 0 0 1 0-.205v-.052zM147.461 534.87l-.29-.14c-.235-.104-.453-.243-.761-.416a18.356 18.356 0 0 1-2.248-1.65 23.703 23.703 0 0 1-2.647-2.693 26.893 26.893 0 0 1-2.43-3.474c-.344-.626-.724-1.216-1.015-1.841-.29-.626-.634-1.216-.852-1.842a33.613 33.613 0 0 1-1.25-3.335c-.363-.973-.508-1.737-.69-2.397l-.235-.903c-.155-.48.125-.99.625-1.138.5-.149 1.033.12 1.188.6l.308.85c.218.539.435 1.338.87 2.224.43 1.03.914 2.04 1.45 3.022.272.556.635 1.077.943 1.616.308.538.725 1.06 1.088 1.598a24.431 24.431 0 0 0 2.32 2.97 20.588 20.588 0 0 0 2.466 2.102c.574.424 1.18.808 1.813 1.146l.49.226h.163c.648.245 1.11.803 1.212 1.463a1.83 1.83 0 0 1-.716 1.737c-.546.415-1.28.52-1.928.274h.126zM65.69 507.68s0 .42.124 1.189c.123.768.265 1.869.53 3.179.264 1.31.6 2.848 1.058 4.455.501 1.688 1.09 3.35 1.765 4.979.353.82.653 1.747 1.059 2.445.406.7.741 1.59 1.165 2.306.423.717.794 1.45 1.235 2.08.441.628.794 1.274 1.218 1.746l1.112 1.45.953 1.03.83.91a.908.908 0 0 1-.018 1.292.93.93 0 0 1-1.306-.018l-.953-.908-1.095-1.048-1.288-1.468c-.494-.524-.918-1.17-1.43-1.747-.511-.576-.97-1.362-1.447-2.113a59.767 59.767 0 0 1-1.394-2.359c-.459-.803-.865-1.747-1.288-2.515a53.322 53.322 0 0 1-2.118-5.136c-.583-1.747-1.059-3.267-1.43-4.63a46.216 46.216 0 0 1-.776-3.354l-.177-.978v-.332a1.871 1.871 0 0 1 1.516-2.102 1.889 1.889 0 0 1 2.19 1.403l-.035.245zM136.9 671.235h.47c.327 0 .816.14 1.378.219.561.08 1.25.16 1.974.2H145.288c.725 0 1.395-.12 1.957-.18 1.141-.12 1.812-.34 1.812-.28a1.19 1.19 0 0 1 1.29-.008c.402.251.65.719.653 1.226.003.508-.24.979-.639 1.235a8.478 8.478 0 0 1-2.228 1.376 11.23 11.23 0 0 1-2.374.718c-.898.17-1.807.256-2.717.259h-1.45c-.47 0-.924-.12-1.359-.22a11.803 11.803 0 0 1-2.355-.737 10.972 10.972 0 0 1-1.576-.857c-.344-.24-.616-.46-.598-.44-.636-.357-.887-1.214-.562-1.913.325-.7 1.104-.976 1.74-.618l.018.02zM356.717 434.66l-3.242 1.57-3.964 1.623c-1.515.535-3.224 1.194-5.074 1.783l-12.668 4.28c-2.273.838-4.67 1.622-7.048 2.585-2.378.963-4.757 1.908-7.047 2.942-1.199.482-2.326 1.106-3.524 1.659-1.198.553-2.326 1.087-3.418 1.783l-3.295 1.783c-1.092.606-2.08 1.32-3.119 1.962a65.55 65.55 0 0 0-5.655 4.047 24.47 24.47 0 0 0-2.467 2.069l-2.238 2.015c-1.427 1.302-2.537 2.692-3.63 3.834a28.466 28.466 0 0 0-2.554 3.174l-2.114 2.853a.913.913 0 0 1-1.286.196.938.938 0 0 1-.194-1.302l2.114-2.995a29.751 29.751 0 0 1 2.572-3.335c1.093-1.195 2.22-2.675 3.665-4.048l2.273-2.14a25.798 25.798 0 0 1 2.502-2.193 67.013 67.013 0 0 1 5.744-4.315c1.04-.678 2.061-1.445 3.171-2.087l3.348-1.961c1.11-.695 2.308-1.248 3.524-1.783 1.215-.535 2.325-1.248 3.523-1.783 2.397-1.106 4.793-2.212 7.207-3.174 2.413-.963 4.774-1.89 7.047-2.782l12.58-4.583c1.762-.66 3.524-1.337 4.934-1.908l3.63-1.57 3.206-1.64a1.88 1.88 0 0 1 1.897.08c.574.367.91 1.016.881 1.703a1.924 1.924 0 0 1-1.016 1.623l-.265.036zM120.108 385.607s.244-.823.732-2.112a51.442 51.442 0 0 1 2.373-5.21c.524-1.055 1.187-2.13 1.85-3.293a43.967 43.967 0 0 1 2.302-3.58l1.291-1.79 1.414-1.79c.924-1.218 1.989-2.31 3.018-3.455 1.03-1.146 2.18-2.166 3.245-3.222 1.064-1.057 2.268-1.952 3.35-2.882 1.081-.931 2.25-1.683 3.297-2.47 1.047-.788 2.129-1.397 3.07-2.024.943-.626 1.745-1.199 2.67-1.593l2.111-1.11 1.832-.966a.898.898 0 0 1 1.23.385.945.945 0 0 1-.375 1.262l-1.745 1.02-2.006 1.163c-.785.412-1.588 1.057-2.512 1.647-.925.591-1.937 1.253-2.897 2.077-.96.823-2.058 1.593-3.088 2.506-1.029.913-2.093 1.79-3.105 2.9-1.012 1.11-2.059 2.076-2.983 3.204-.925 1.128-1.92 2.238-2.757 3.42l-1.274 1.79-1.151 1.79c-.785 1.127-1.396 2.327-2.059 3.4-.663 1.075-1.169 2.167-1.622 3.17a47.416 47.416 0 0 0-2.077 4.976c-.418 1.217-.558 1.79-.575 1.79-.285 1.018-1.32 1.607-2.312 1.315-.992-.291-1.567-1.353-1.282-2.371l.035.053zM241.419 541.732l.767-.762c.481-.46 1.266-1.222 2.193-1.984a43.63 43.63 0 0 1 3.334-2.499c1.266-.85 2.674-1.665 4.119-2.445a42.291 42.291 0 0 1 8.326-3.225c1.3-.354 2.623-.626 3.958-.815a.814.814 0 1 1 .392 1.56l-1.016.372c-.641.212-1.55.584-2.62 1.01-1.07.425-2.318 1.01-3.567 1.577-1.248.567-2.674 1.329-4.011 2.073a56.653 56.653 0 0 0-3.852 2.339c-1.194.797-2.317 1.559-3.209 2.267-.891.71-1.658 1.24-2.193 1.772l-.856.674c-.517.489-1.335.47-1.827-.045a1.279 1.279 0 0 1 .044-1.816l.018-.053zM249.711 209.775a59.745 59.745 0 0 1-8.498 4.407 46.929 46.929 0 0 1-20.362 3.389 20.332 20.332 0 0 0-13.773 3.986 37.91 37.91 0 0 0-4.399 4.6 37.58 37.58 0 0 1-8.2 7.498c-8.341 5.267-19.1 5.97-25.479 14.345 5.818-24.758 15.455-44.722 32.803-63.563a137.958 137.958 0 0 1 28.388-23.914 97.57 97.57 0 0 1 35.782-13.59c7.009-1.3 16.436-3.232 23.235-.686 13.721 5.127-.56 29.042-5.782 35.873a77.334 77.334 0 0 1-10.409 11.044 111.817 111.817 0 0 1-12.389 9.359c-3.662 2.44-7.22 4.987-10.917 7.252z"/>
        <path fill="#182138" d="M281.195 147.773a79.229 79.229 0 0 0-14.044 1.756l-.895.158a95.786 95.786 0 0 0-35.11 13.326 136.617 136.617 0 0 0-28.087 23.58 129.636 129.636 0 0 0-30.809 56.396 50.607 50.607 0 0 1 11.604-5.689 56.17 56.17 0 0 0 9.497-4.354 35.937 35.937 0 0 0 7.794-7.129l.474-.544a34.586 34.586 0 0 1 4.16-4.266 22.415 22.415 0 0 1 15.063-4.407c6.71.372 13.419-.75 19.643-3.284a57.523 57.523 0 0 0 8.234-4.284c2.352-1.44 4.704-3.02 7.021-4.565l3.915-2.616a109.315 109.315 0 0 0 12.288-9.2 75.686 75.686 0 0 0 10.182-10.78c4.53-5.918 13.131-20.684 10.849-28.602a6.355 6.355 0 0 0-4.213-4.372 21.43 21.43 0 0 0-7.426-1.142l-.14.018zM165 257l2.019-8.568c6.18-26.337 16.449-46.142 33.354-64.402a140.444 140.444 0 0 1 28.825-24.23 99.314 99.314 0 0 1 36.496-13.835l.895-.158c7.285-1.352 16.361-3.056 23.383-.44a10.007 10.007 0 0 1 6.513 6.848c2.914 10.096-7.303 26.477-11.48 31.938a79.531 79.531 0 0 1-10.674 11.325 112.966 112.966 0 0 1-12.622 9.516l-3.862 2.58c-2.3 1.563-4.687 3.179-7.11 4.654a61.157 61.157 0 0 1-8.777 4.547 49.146 49.146 0 0 1-21.171 3.512 18.693 18.693 0 0 0-12.534 3.511 31.215 31.215 0 0 0-3.704 3.828l-.492.562a39.29 39.29 0 0 1-8.637 7.866 59.681 59.681 0 0 1-10.111 4.67c-5.74 2.23-11.183 4.337-14.904 9.218L165 257z"/>
        <path fill="#FF5926" d="M266 187c-2.142 3.98-2.037 8.743-2.3 13.256-.65 11.994-3.108 24.024-13.642 31.22a13.437 13.437 0 0 1-5.512 2.417 6.548 6.548 0 0 1-5.619-1.634 8.041 8.041 0 0 1-1.878-5.81c0-2.098.456-4.159.439-6.256 0-5.828-3.406-11.497-2.248-17.2L266 187z"/>
        <path fill="#182138" d="M266.742 187.408s-.158.332-.403.907c-.32.826-.567 1.678-.736 2.547a26.058 26.058 0 0 0-.49 4.222c0 1.745 0 3.49-.14 5.722-.14 2.233-.264 4.449-.561 6.874a49.666 49.666 0 0 1-1.542 7.658 32.477 32.477 0 0 1-3.347 7.816 28.517 28.517 0 0 1-5.695 6.838 20.906 20.906 0 0 1-7.902 4.658c-.415.113-.836.2-1.262.262-.412.054-.828.083-1.244.087a9.308 9.308 0 0 1-2.54-.314 7.55 7.55 0 0 1-2.401-1.117 6.808 6.808 0 0 1-1.051-.907 7.576 7.576 0 0 1-.806-1.029 12.408 12.408 0 0 1-1.21-8.548c.158-1.221.298-2.32.333-3.332v-1.535c0-.402 0-.96-.14-1.448-.298-1.954-.718-3.838-1.051-5.53a29.272 29.272 0 0 1-.543-4.571 13.097 13.097 0 0 1 .228-3.018l.262-1.047a.718.718 0 0 1 1.42.21v.941c-.01.888.054 1.775.192 2.652a29.742 29.742 0 0 0 1.052 4.117c.473 1.605 1.139 3.49 1.594 5.635.105.54.228 1.1.298 1.745.07.645.105 1.064.14 1.744a35.538 35.538 0 0 1-.192 3.664 19.332 19.332 0 0 0 0 3.367c.06.987.36 1.945.876 2.79a4.78 4.78 0 0 0 5.256 1.484 17.538 17.538 0 0 0 6.43-3.803 24.87 24.87 0 0 0 5.047-5.932 34.348 34.348 0 0 0 3.207-6.978 46.55 46.55 0 0 0 1.752-7.118c.386-2.337.63-4.5.806-6.629.175-2.128.298-3.995.508-5.722.15-1.532.426-3.049.824-4.536.279-.98.648-1.931 1.104-2.843l.49-.907a.9.9 0 0 1 1.21-.384c.44.226.612.765.385 1.204l-.158.104zM292.117 149.249l.239.331c.25.376.43.796.529 1.239a4.495 4.495 0 0 1-.461 3.21 10.88 10.88 0 0 1-.682 1.065 22.156 22.156 0 0 0-1.433 2.041c-.403.78-.712 1.605-.921 2.46-.256.925-.427 1.955-.683 3.019a31.747 31.747 0 0 1-.955 3.21 27.872 27.872 0 0 1-6.294 10.47 11.195 11.195 0 0 1-3.412 2.337c-.358.157-.73.28-1.109.367h-.41a.478.478 0 0 1-.501-.335.494.494 0 0 1 .212-.573 9.156 9.156 0 0 0 1.16-.715c.948-.75 1.806-1.61 2.558-2.565a38.273 38.273 0 0 0 5.476-9.858c.785-1.937 1.177-3.926 1.842-6.002.322-1.025.77-2.004 1.331-2.914a14.998 14.998 0 0 1 1.706-2.076c.237-.26.46-.534.665-.82.152-.226.273-.473.358-.733.146-.437.198-.902.154-1.361a2.61 2.61 0 0 0-.222-.82c-.085-.175-.188-.314-.188-.314a.603.603 0 0 1 .12-.776.57.57 0 0 1 .767.025l.154.088z"/>
        <path fill="#FFF" d="M254.731 184.402a21.629 21.629 0 0 0 14.857-10.082c1.242-2.237 2.432-5.365 0-7.234-1.75-1.363-4.48-1.119-6.545-.961-7.384.541-11.304 5.137-16.886 9.226-1.75 1.328-3.78 2.376-5.565 3.721a3.267 3.267 0 0 0-1.592 2.43c0 1.415 1.645 2.183 3.027 2.568a27.108 27.108 0 0 0 12.704.332z"/>
        <circle cx="274.5" cy="165.5" r="1.5" fill="#03102F" fill-rule="nonzero" transform="rotate(-21.12 274.5 165.5)"/>
        <path fill="#03102F" d="M273 167.743c.018-.351.064-.7.139-1.045a5.38 5.38 0 0 1 1.05-2.192 4.554 4.554 0 0 1 1.069-.975c.37-.241.796-.408 1.247-.487.32-.059.65-.059.97 0 .12-.015.24-.015.357 0a.26.26 0 0 1 .168.235.26.26 0 0 1-.168.235c-.312.13-.616.276-.91.435-.238.157-.516.313-.813.522-.3.21-.572.45-.812.713a8.857 8.857 0 0 0-1.148 1.74l-.476.906a.325.325 0 0 1-.194.154.38.38 0 0 1-.261-.015c-.124-.05-.202-.16-.198-.279l-.02.053z"/>
        <path fill="#182138" d="M231.878 209.947a4.994 4.994 0 0 1-.426.624 5.884 5.884 0 0 1-1.776 1.419 8.481 8.481 0 0 1-3.214 1.004c-1.42.124-2.85.036-4.244-.26-1.491-.26-3.018-.727-4.599-.952-.852-.156-1.634-.208-2.468-.294a13.155 13.155 0 0 0-2.61 0c-3.658.034-7.274.75-10.655 2.111a17.66 17.66 0 0 0-4.617 2.787 14.241 14.241 0 0 0-3.107 3.946 5.8 5.8 0 0 0-.462 4.137c.194.646.54 1.239 1.012 1.73.249.295.515.606.782.987.15.214.28.44.39.675l.196.502a6.54 6.54 0 0 1-.32 4.5 15.455 15.455 0 0 1-1.545 2.786c-.48.71-.888 1.246-1.19 1.61l-.444.536a.493.493 0 0 1-.674.121.465.465 0 0 1-.125-.657s.48-.831 1.243-2.285c.444-.854.807-1.746 1.084-2.665a5.067 5.067 0 0 0 0-3.15l-.231-.485s-.125-.173-.213-.26c-.09-.086-.426-.467-.71-.76a6.44 6.44 0 0 1-1.563-2.372 7.76 7.76 0 0 1 .426-5.902 15.266 15.266 0 0 1 3.747-4.76 20.134 20.134 0 0 1 5.327-3.15c1.877-.799 3.843-1.38 5.86-1.73a28.422 28.422 0 0 1 5.842-.45c.959 0 1.882.086 2.788.156.905.069 1.775.225 2.663.398 1.776.328 3.25.813 4.635 1.142 1.207.332 2.458.483 3.711.45a7.052 7.052 0 0 0 2.682-.658 4.63 4.63 0 0 0 1.793-1.47.607.607 0 0 1 .554-.308c.23.01.435.145.528.35a.577.577 0 0 1-.088.615l.018-.018z"/>
        <path fill="#FF5926" d="M206.421 182c-1.86-3.4-7.017-9.078-19.122-13.6-2.299-.868-7.913-2.823-8.28-5.696-.37-2.873 4.999-5.1 7.14-5.78 7.017-2.329 16.245-2.89 23.56-2.924C219 154 233 156.567 238 160.137L206.421 182z"/>
        <path fill="#182138" d="M205.08 183.475s-.209-.353-.575-.9a18.583 18.583 0 0 0-1.846-2.28 33.137 33.137 0 0 0-8.466-6.41 63.076 63.076 0 0 0-6.497-3.074 38.601 38.601 0 0 1-7.77-3.533 8.541 8.541 0 0 1-1.95-1.766 5.197 5.197 0 0 1-.767-1.413 4.504 4.504 0 0 1-.209-.971v-.283-.548a5.331 5.331 0 0 1 1.376-2.985 10.315 10.315 0 0 1 2.056-1.766 29.595 29.595 0 0 1 8.988-3.532A88.938 88.938 0 0 1 207.536 152H211.804c1.446 0 2.787.177 4.129.336 2.487.287 4.958.706 7.403 1.254 2.067.48 4.108 1.07 6.114 1.766a36.825 36.825 0 0 1 4.564 1.943 20.7 20.7 0 0 1 2.787 1.66l.906.742a.73.73 0 0 1 .18.974.709.709 0 0 1-.946.245l-.924-.477a29.128 29.128 0 0 0-2.752-1.095 73.348 73.348 0 0 0-10.452-2.332c-2.194-.353-4.598-.636-7.142-.883a55.912 55.912 0 0 0-3.884-.247H207.693a85.597 85.597 0 0 0-17.332 1.766 26.582 26.582 0 0 0-7.926 2.808c-1.115.654-1.969 1.59-1.969 2.05 0 .459.453 1.324 1.464 2.048a36.938 36.938 0 0 0 6.968 3.533 52.23 52.23 0 0 1 6.689 3.532 35.271 35.271 0 0 1 8.71 7.366 19.983 19.983 0 0 1 1.863 2.702c.384.671.54.99.54.99a.91.91 0 0 1-.383 1.218.886.886 0 0 1-1.202-.389l-.035-.035zM209.347 184.955c.442.03.886.03 1.328 0a11.494 11.494 0 0 0 7.192-3.73c1.207-1.32 2.414-2.992 3.777-4.505a45.435 45.435 0 0 1 4.243-4.24 33.495 33.495 0 0 1 4.19-3.115 29.254 29.254 0 0 1 3.208-1.76c.794-.387 1.26-.58 1.26-.58a.322.322 0 0 1 .255.003.332.332 0 0 1 .175.19.338.338 0 0 1-.12.405s-1.639 1.161-3.984 2.956a67.02 67.02 0 0 0-8.003 7.302c-1.362 1.46-2.5 3.08-3.915 4.47a11.789 11.789 0 0 1-8.209 3.624c-.47.033-.943.033-1.414 0a.42.42 0 0 1-.33-.413c0-.2.138-.373.33-.414l.017-.193z"/>
        <circle cx="89.5" cy="383.5" r="4.5" fill="#182138" fill-rule="nonzero" transform="rotate(-.07 89.5 383.5)"/>
        <circle cx="84.5" cy="416.5" r="4.5" fill="#182138" fill-rule="nonzero" transform="rotate(-.07 84.5 416.5)"/>
        <circle cx="249.5" cy="131.5" r="4.5" fill="#182138" fill-rule="nonzero" transform="rotate(-.07 249.5 131.5)"/>
        <circle cx="384.5" cy="217.5" r="4.5" fill="#182138" fill-rule="nonzero" transform="rotate(-.07 384.5 217.5)"/>
        <circle cx="384.5" cy="278.5" r="4.5" fill="#182138" fill-rule="nonzero" transform="rotate(-.07 384.5 278.5)"/>
        <circle cx="369.5" cy="258.5" r="9.5" fill="#182138" fill-rule="nonzero" transform="rotate(-.07 369.5 258.5)"/>
        <circle cx="364.5" cy="105.5" r="8.5" fill="#182138" fill-rule="nonzero" transform="rotate(-.07 364.5 105.5)"/>
        <circle cx="12" cy="405" r="8" fill="#182138" fill-rule="nonzero" transform="rotate(-.07 12 405)"/>
        <circle cx="59" cy="387" r="14" fill="#182138" fill-rule="nonzero" transform="rotate(-.08 59 387)"/>
        <path fill="#FF5926" d="M146.14 273.575s1.002-1.977 2.902-5.389a124.145 124.145 0 0 1 8.795-13.594 70.987 70.987 0 0 1 16.764-16.01 50.606 50.606 0 0 1 11.82-5.948 48.233 48.233 0 0 1 13.492-2.537 70.983 70.983 0 0 1 13.597.595 62.58 62.58 0 0 1 12.824 3.184 52.872 52.872 0 0 1 10.994 5.704c3.254 2.117 6.139 4.304 8.795 6.229a28.622 28.622 0 0 0 3.852 2.45 28.434 28.434 0 0 0 10.326 3.026c1.452.106 2.91.106 4.362 0l1.548-.14a.718.718 0 0 1 .211 1.417l-1.618.333c-1.533.267-3.088.39-4.644.367a28.675 28.675 0 0 1-7.23-.98 30.006 30.006 0 0 1-4.239-1.557 31.973 31.973 0 0 1-4.345-2.45c-2.832-1.749-5.804-3.831-8.988-5.808a55.189 55.189 0 0 0-10.379-5.249 65.901 65.901 0 0 0-12.084-3.01 67.357 67.357 0 0 0-12.876-.647c-4.263.157-8.481.923-12.525 2.275a52.274 52.274 0 0 0-11.152 5.389 61.291 61.291 0 0 0-9.094 7.366 82.68 82.68 0 0 0-7.16 7.75 121.983 121.983 0 0 0-9.181 12.965c-2.041 3.254-3.167 5.249-3.167 5.249a.943.943 0 0 1-1.293.306.932.932 0 0 1-.307-1.286zM135.916 200.581l-1.476 2.269c-.491.727-1 1.595-1.615 2.605s-1.265 2.162-1.985 3.438c-.72 1.276-1.422 2.694-2.195 4.165a60.055 60.055 0 0 0-2.23 4.767c-.703 1.684-1.458 3.42-2.143 5.21a106.314 106.314 0 0 0-1.932 5.495l-.86 2.8-.72 2.8c-.51 1.772-.879 3.704-1.265 5.512-.386 1.808-.685 3.544-.86 5.21-.176 1.666-.422 3.243-.528 4.714a98.334 98.334 0 0 0-.228 3.988c-.035 1.187 0 2.233 0 3.084v2.694a.914.914 0 0 1-.878.668.914.914 0 0 1-.878-.668s0-1.01-.123-2.765v-3.155c0-1.205 0-2.605.123-4.111.123-1.507.193-3.137.386-4.839.193-1.701.457-3.544.72-5.316.264-1.773.668-3.775 1.124-5.69l.685-2.906.808-2.889c.545-1.931 1.16-3.845 1.756-5.706.598-1.861 1.318-3.686 2.038-5.423.72-1.737 1.457-3.403 2.142-4.98a52.837 52.837 0 0 1 2.143-4.36c.72-1.312 1.317-2.57 1.95-3.633.631-1.064 1.123-2.038 1.58-2.747l1.405-2.322a1.866 1.866 0 0 1 2.271-.192 1.905 1.905 0 0 1 .785 2.16v.123zM283.556 211.214l1.341-.233c.87-.133 2.003-.316 3.483-.615 3.44-.651 6.84-1.478 10.187-2.477.905-.283 1.741-.55 2.7-.848l2.594-.898a217.56 217.56 0 0 0 4.597-1.663c1.358-.515 2.508-.848 3.326-1.097.818-.25 1.306-.366 1.306-.366a.763.763 0 0 1 .81.34.69.69 0 0 1-.096.84 21.386 21.386 0 0 1-4.005 2.943 31.377 31.377 0 0 1-4.597 2.245 59.331 59.331 0 0 1-5.59 1.846 58.644 58.644 0 0 1-5.782 1.197 48.588 48.588 0 0 1-5.12.499 42.545 42.545 0 0 1-4.997 0 .859.859 0 0 1-.713-.832c0-.404.298-.752.713-.831l-.157-.05zM306.545 138.42s.584-.304 1.768-.802a36.448 36.448 0 0 1 4.827-1.603 37.44 37.44 0 0 1 7.072-1.015h4.049c1.379 0 2.758.214 4.19.41 1.432.195 2.758.48 4.084.783 1.326.303 2.652.659 3.89 1.086a42.756 42.756 0 0 1 6.56 2.743 38.625 38.625 0 0 1 4.225 2.529c.99.694 1.538 1.14 1.538 1.14.26.23.327.61.162.917a.74.74 0 0 1-.852.365l-1.768-.553-4.597-1.549c-1.891-.623-4.084-1.353-6.435-2.048a152.418 152.418 0 0 0-3.642-.997c-1.238-.32-2.475-.534-3.837-.766a53.99 53.99 0 0 0-3.819-.516c-1.255-.125-2.528-.178-3.748-.214a47.801 47.801 0 0 0-6.648.374c-1.568.19-3.121.488-4.65.89-1.113.268-1.768.463-1.768.463a.9.9 0 0 1-1.08-.533.911.911 0 0 1 .409-1.14l.07.035z"/>
        <circle cx="103" cy="216" r="7" fill="#182138" fill-rule="nonzero"/>
        <path fill="#FF5926" d="M102.5 211.773c-2.761 0-5 2.368-5 5.289 0 2.92 2.239 5.289 5 5.289s5-2.368 5-5.29c0-2.92-2.239-5.288-5-5.288zm0 14.21c-4.694 0-8.5-4.026-8.5-8.992 0-4.966 3.806-8.991 8.5-8.991s8.5 4.025 8.5 8.991c0 4.969-3.803 9-8.5 9.009v-.018zM23.311 245.962l2.525-1.514 6.71-3.96 9.545-5.455c3.459-2.006 7.246-4.065 10.981-6.16l10.98-5.982c3.46-1.919 6.918-3.678 9.737-5.104 2.818-1.425 5.187-2.64 6.917-3.52 1.729-.88 2.68-1.249 2.68-1.249a.481.481 0 0 1 .556.24.499.499 0 0 1-.106.605s-.9.598-2.49 1.601a278.998 278.998 0 0 1-6.641 4.048 419.372 419.372 0 0 1-9.528 5.473l-11.05 6.036c-3.683 2.059-7.367 4.188-10.998 5.948l-9.719 5.121-6.917 3.52-2.628 1.32a.583.583 0 0 1-.796-.247.604.604 0 0 1 .242-.81v.089zM110.391 198.794l1.366-.914 3.547-2.322c3.032-1.865 7.094-4.362 11.173-6.754 4.079-2.393 8.229-4.75 11.439-6.315 3.21-1.565 5.426-2.462 5.426-2.462a.498.498 0 0 1 .594.224.49.49 0 0 1-.115.62s-1.88 1.495-4.877 3.518c-2.997 2.022-7.094 4.327-11.226 6.648-4.132 2.322-8.353 4.538-11.492 6.21l-3.849 1.952-1.472.72a.607.607 0 0 1-.824-.219.596.596 0 0 1 .221-.818l.09-.088z"/>
        <path fill="#FFF" d="M57 197s29.506-22.353 30.615-78.454C88.777 59.191 75.432 31 75.432 31L153 145.999 57 197z"/>
        <path fill="#FF5926" d="M79.045 39.175c3.892 12.836 9.641 38.807 8.87 78.351-.789 39.86-16.04 63.008-24.84 73.09l86.877-46.12L79.045 39.176zM56.256 197a1.245 1.245 0 0 1-.753-2.245c.28-.228 28.906-22.621 29.975-77.159 1.14-58.22-11.885-86.453-12.007-86.733a1.249 1.249 0 0 1 2.173-1.228l77.166 114.616a1.245 1.245 0 0 1-.456 1.754l-95.572 50.802a1.244 1.244 0 0 1-.596.158l.07.035z"/>
        <path fill="#FF5926" d="M9.242 219a1.238 1.238 0 0 1-1.201-.933c-.144-.553.1-1.134.592-1.412l59.525-33.498a1.227 1.227 0 0 1 1.242.024c.38.232.608.652.6 1.102-.009.45-.253.86-.642 1.078L9.781 218.84c-.165.094-.35.149-.539.159zM212.046 515.775s-.229-1.067-.808-2.99a48.053 48.053 0 0 0-3.354-8.027c-.439-.822-.93-1.75-1.475-2.554a28.347 28.347 0 0 0-.86-1.329c-.299-.437-.597-.979-.913-1.486a31.563 31.563 0 0 1-1.756-3.148 31.862 31.862 0 0 1-1.58-3.742 21.612 21.612 0 0 1-1.037-4.198c-.132-.746-.22-1.499-.263-2.255v-2.361c.304-3.331 1.31-6.56 2.95-9.479 3.512-6.016 9.043-11 15.1-15.547 1.529-1.154 3.091-2.255 4.672-3.375 1.58-1.119 3.143-2.238 4.67-3.497a88.54 88.54 0 0 0 8.78-7.8 78.024 78.024 0 0 0 14.346-19.814c.51-.909.896-1.888 1.335-2.833.438-.944.895-1.906 1.229-2.885.702-1.976 1.492-3.917 2.037-5.946a65.014 65.014 0 0 0 2.475-12.364 62.25 62.25 0 0 0 .299-6.313v-3.148c0-1.032-.105-2.168-.21-3.2-.334-4.197-.984-8.482-1.51-12.749a105.468 105.468 0 0 1-1.02-12.958 44.25 44.25 0 0 1 1.757-12.82c.281-1.034.627-2.05 1.036-3.042a23.032 23.032 0 0 1 1.246-2.973c.474-.927.878-1.906 1.423-2.798l1.597-2.658a73.763 73.763 0 0 1 7.41-9.251c5.268-5.544 10.536-10.3 14.645-15.162a51.698 51.698 0 0 0 9.166-14.62 62.754 62.754 0 0 0 3.512-12.994c.597-3.707.895-6.663 1.07-8.744l.23-3.095a.913.913 0 0 1 1.755.087s0 1.102-.105 3.148c-.106 2.046-.229 5.072-.72 8.92a65.147 65.147 0 0 1-3.214 13.622 52.782 52.782 0 0 1-9.236 15.74c-4.267 5.14-9.482 10.055-14.434 15.511a69.986 69.986 0 0 0-6.848 8.866l-1.422 2.466c-.492.822-.825 1.749-1.247 2.571a19.191 19.191 0 0 0-1.053 2.623c-.361.894-.66 1.811-.896 2.746-2.265 7.555-1.615 15.739-.491 24.203.544 4.232 1.211 8.517 1.598 12.959.105 1.136.175 2.22.228 3.287.052 1.067 0 2.256 0 3.375 0 2.256-.14 4.495-.299 6.733a69.932 69.932 0 0 1-7.568 25.568 82.215 82.215 0 0 1-15.347 20.705 92.005 92.005 0 0 1-9.324 8.115c-1.615 1.224-3.16 2.256-4.81 3.497-1.651 1.242-3.161 2.099-4.672 3.183-6.04 4.232-11.378 8.744-14.626 14.113a20.807 20.807 0 0 0-2.827 8.202l-.106 2.046c.02.666.072 1.332.158 1.993a19.29 19.29 0 0 0 .755 3.813 30.155 30.155 0 0 0 2.862 6.575c.264.49.562 1.05.79 1.434.229.385.563.962.826 1.434.527.944 1 1.854 1.405 2.728a44.282 44.282 0 0 1 3.002 8.464c.492 2.029.65 3.096.65 3.096a.562.562 0 0 1-1.089.192l.106.14zM182.043 380.077l.72-.872c.51-.559 1.126-1.414 1.918-2.462a41.483 41.483 0 0 0 2.567-4.067c.88-1.64 1.759-3.491 2.708-5.62.95-2.13 1.759-4.452 2.603-6.983.844-2.532 1.759-5.237 2.585-7.978.827-2.74 1.759-5.673 2.937-8.623 1.178-2.95 2.304-5.866 3.658-8.728a88.8 88.8 0 0 1 4.467-8.432 78.529 78.529 0 0 1 5.275-7.68 83.715 83.715 0 0 1 2.867-3.387 55.51 55.51 0 0 1 2.972-3.072 57.542 57.542 0 0 1 5.997-5.028 50.666 50.666 0 0 1 10.217-5.673 35.286 35.286 0 0 1 3.095-1.082l1.108-.332a.94.94 0 0 1 1.204.55.929.929 0 0 1-.553 1.196l-1.003.454c-.668.279-1.6.768-2.796 1.361a50.544 50.544 0 0 0-9.162 6.18 59.596 59.596 0 0 0-5.276 5.062c-.897.943-1.758 1.955-2.655 3.002a39.09 39.09 0 0 0-2.585 3.335 74.833 74.833 0 0 0-4.942 7.331c-1.477 2.619-2.92 5.237-4.203 8.1-1.284 2.863-2.462 5.62-3.517 8.449-1.055 2.828-2.093 5.673-3.113 8.396-1.02 2.723-1.97 5.447-3.042 7.96-1.073 2.514-2.11 4.888-3.253 6.983a48.596 48.596 0 0 1-3.518 5.586c-1 1.365-2.08 2.67-3.235 3.91a24.545 24.545 0 0 1-2.374 2.234l-.827.75a.566.566 0 0 1-.718-.056.556.556 0 0 1-.073-.711l-.053-.053zM269.286 430.928l.815-1.143c.544-.738 1.196-1.758 1.993-2.971.416-.616.815-1.32 1.231-2.058.417-.738.815-1.547 1.268-2.338a51.213 51.213 0 0 0 2.318-5.276 53.89 53.89 0 0 0 1.812-5.504c.199-.896.434-1.758.597-2.602.163-.844.326-1.618.417-2.356.235-1.46.398-2.69.453-3.517l.126-1.372c0-.437.365-.791.815-.791.45 0 .815.354.815.791v1.425a32.78 32.78 0 0 1 0 3.745 40.448 40.448 0 0 1-.652 5.275 50.74 50.74 0 0 1-1.575 5.909 53.774 53.774 0 0 1-2.41 5.644 44.191 44.191 0 0 1-2.752 4.607 35.536 35.536 0 0 1-2.318 3.042l-.924 1.073a1.317 1.317 0 0 1-1.811.229 1.23 1.23 0 0 1-.236-1.759l.018-.053zM316.321 355.58a13.339 13.339 0 0 1 6.664 2.618c1.768 1.575 1.998 4.176 2.882 6.352 2.633 6.53 10.252 8.015 15.909 4.848.512-.283 4.49-3.538 4.578-3.38 3.535 3.327 8.096 5.309 12.957 3.734 4.136-1.38 5.762-5.308 8.432-8.351 3.2-3.663 8.555-4.777 13.169-4.3 5.674.584 11.136 1.77 16.315-1.433 6.876-4.229 8.52-11.571 7.23-19.074a10.02 10.02 0 0 0 12.18-5.803 6.709 6.709 0 0 0-3.041-8.015c-2.245-1.044-5.038-.549-7.16-1.77-1.767-1.114-2.704-3.255-4.189-4.795a9.469 9.469 0 0 0-8.025-2.565c-2.899.39-5.197 2.92-7.972 3.15-2.775.23-5.18-2.672-7.813-3.398a9.802 9.802 0 0 0-7.795.991c-1.768 1.168-3.218 3.096-5.303 3.751-2.67.85-5.427-.62-8.079-1.522-9.068-3.06-17.888 1.044-22.502 9.166-.124.304-.357.55-.654.69-.407.124-.813-.177-1.167-.443a11.41 11.41 0 0 0-10.075-1.875 8.681 8.681 0 0 0-5.323 4.324 8.695 8.695 0 0 0-.528 6.84 12.47 12.47 0 0 0-6.841 1.221 9.34 9.34 0 0 0-4.579 5.132c-1.113 3.255-.724 7.944 1.768 10.474 2.493 2.53 5.94 2.866 8.962 3.433z"/>
        <path fill="#182138" d="M316.225 353.359a14.781 14.781 0 0 1 7.391 3.001 10.424 10.424 0 0 1 2.674 5.073c.192.632.366 1.246.611 1.843a8.195 8.195 0 0 0 4.945 4.81c2.811.93 5.883.624 8.458-.843.192-.123 1.205-.913 1.957-1.492 2.918-2.247 3.494-2.65 4.525-1.632 2.517 2.387 6.483 4.897 11.131 3.335 2.446-.825 3.844-2.774 5.487-5.038.664-.913 1.345-1.86 2.114-2.756a16.659 16.659 0 0 1 14.451-4.827l2.114.246c4.823.562 8.982 1.053 12.966-1.422 6.99-4.3 7.304-11.725 6.378-17.202a1.76 1.76 0 0 1 .562-1.495 1.742 1.742 0 0 1 1.535-.418c4.042 1.271 8.382-.76 10.012-4.687a4.978 4.978 0 0 0-2.114-5.845 9.992 9.992 0 0 0-2.83-.65 8.732 8.732 0 0 1-7.55-4.58 15.018 15.018 0 0 0-1.345-1.756 7.666 7.666 0 0 0-6.5-2.036 10.11 10.11 0 0 0-3.338 1.387c-1.399.914-2.979 1.512-4.63 1.755a9.253 9.253 0 0 1-5.627-2.019 10.974 10.974 0 0 0-2.673-1.404 7.989 7.989 0 0 0-6.36.772c-.616.42-1.2.883-1.748 1.387a11.213 11.213 0 0 1-3.897 2.528 11.364 11.364 0 0 1-7.583-.983l-1.45-.527c-7.916-2.685-15.867.58-20.253 8.32a2.87 2.87 0 0 1-1.608 1.457 2.892 2.892 0 0 1-2.69-.737 9.524 9.524 0 0 0-8.458-1.562 6.997 6.997 0 0 0-4.246 3.51 6.856 6.856 0 0 0-.402 5.424 1.762 1.762 0 0 1-.28 1.598c-.359.436-.905.67-1.467.631a10.565 10.565 0 0 0-5.837 1.018 7.554 7.554 0 0 0-3.704 4.143c-.909 2.65-.647 6.617 1.363 8.654 2.01 2.036 5.015 2.492 7.776 3.001l-.21 1.755.297-1.667.053-.07zm18.819 18.64a12.895 12.895 0 0 1-4.316-.719 11.626 11.626 0 0 1-6.99-6.723c-.28-.684-.506-1.421-.716-2.141a7.701 7.701 0 0 0-1.747-3.51 11.85 11.85 0 0 0-5.767-2.195l.315-1.667-.402 1.65c-3.076-.58-6.99-1.282-9.54-3.95-3.076-3.124-3.496-8.46-2.168-12.129a10.954 10.954 0 0 1 5.347-6.038 13.338 13.338 0 0 1 5.435-1.44 10.185 10.185 0 0 1 1.1-5.792 10.372 10.372 0 0 1 6.309-5.16 12.952 12.952 0 0 1 11.078 1.86c4.696-8.492 14.758-12.405 23.922-9.303l1.555.58a8.703 8.703 0 0 0 5.382.93 8.42 8.42 0 0 0 2.708-1.843 18.33 18.33 0 0 1 2.115-1.756 11.244 11.244 0 0 1 9.051-1.193c1.28.402 2.493.994 3.6 1.755a6.642 6.642 0 0 0 3.494 1.51 9.011 9.011 0 0 0 3.285-1.334 12.93 12.93 0 0 1 4.509-1.756c3.425-.508 6.89.622 9.366 3.055.605.66 1.16 1.363 1.66 2.106a5.606 5.606 0 0 0 5.242 3.195c1.304.114 2.582.428 3.792.93 3.566 1.941 5.207 6.19 3.879 10.04-1.825 4.767-6.596 7.72-11.655 7.214.751 8.11-2.114 14.552-8.23 18.343-4.98 3.072-10.135 2.475-15.115 1.896l-2.062-.228c-3.705-.386-8.737.386-11.568 3.686-.681.79-1.275 1.615-1.922 2.51-1.747 2.51-3.67 5.09-7.147 6.266a13.724 13.724 0 0 1-13.472-3.142l-1.206.93a29.224 29.224 0 0 1-2.376 1.756A14.279 14.279 0 0 1 335.06 372h-.017z"/>
        <path fill="#FF5926" d="M187.104 418s-2.976-22.567 22.896-25c-1.023 12.594-10.45 22.889-22.896 25z"/>
        <path fill="#182138" d="M207.896 394.987c-6.964.92-12.2 3.406-15.602 7.562-2.963 3.82-4.509 8.494-4.39 13.266 10.512-2.23 18.483-10.534 19.992-20.828zm-21.35 23.962c-.72-.002-1.33-.518-1.427-1.21-.61-6.024 1.139-12.052 4.9-16.893 4.197-5.11 10.72-8.039 19.393-8.84.417-.039.83.098 1.135.375.304.278.47.67.452 1.073-1.098 12.826-11.014 23.321-24.135 25.546l-.317-.051z"/>
        <path fill="#FF5926" d="M165.041 423s-1.167-9.039 8.959-10c-.405 5.043-4.095 9.16-8.959 10z"/>
        <path fill="#FF5926" d="M174.664 413.352a9.69 9.69 0 0 0-6.584 3.391 9.7 9.7 0 0 0-1.78 5.944c4.444-.997 7.815-4.72 8.453-9.335h-.089zM165.642 424a.61.61 0 0 1-.605-.547 11.132 11.132 0 0 1 2.117-7.494c2.073-2.428 5.04-3.862 8.186-3.956a.597.597 0 0 1 .477.173.628.628 0 0 1 .182.483c-.538 5.706-4.723 10.344-10.233 11.341h-.124zM191.041 432s-1.167-9.039 8.959-10c-.405 5.043-4.095 9.16-8.959 10z"/>
        <path fill="#FF5926" d="M200.679 422.327a9.739 9.739 0 0 0-6.6 3.389 9.546 9.546 0 0 0-1.783 5.889c4.429-1.031 7.784-4.713 8.454-9.278h-.071zM191.654 433a.617.617 0 0 1-.356-.109.618.618 0 0 1-.25-.435c-.25-2.68.487-5.36 2.069-7.52a11.272 11.272 0 0 1 8.204-3.932.6.6 0 0 1 .49.165c.13.126.2.305.188.488-.505 5.687-4.689 10.33-10.22 11.343h-.125zM205.041 381s-1.167-9.039 8.959-10c-.405 5.043-4.095 9.16-8.959 10z"/>
        <path fill="#FF5926" d="M214.697 371.31a9.738 9.738 0 0 0-6.6 3.37 9.583 9.583 0 0 0-1.783 5.907c4.454-.992 7.832-4.691 8.472-9.278h-.09zm-9.043 10.672a.617.617 0 0 1-.356-.109.618.618 0 0 1-.25-.417c-.25-2.68.487-5.36 2.069-7.52a11.272 11.272 0 0 1 8.204-3.932.6.6 0 0 1 .49.165c.13.126.2.305.188.488-.505 5.687-4.689 10.33-10.22 11.343l-.125-.018zM228.041 474s-1.167-9.039 8.959-10c-.405 5.043-4.095 9.16-8.959 10z"/>
        <path fill="#FF5926" d="M236.68 464.325a9.721 9.721 0 0 0-6.6 3.371 9.566 9.566 0 0 0-1.783 5.89c4.428-1.03 7.784-4.713 8.454-9.279l-.071.018zM227.654 475a.61.61 0 0 1-.606-.544c-.25-2.68.487-5.36 2.07-7.52a11.255 11.255 0 0 1 8.204-3.934.636.636 0 0 1 .482.163c.13.121.2.293.196.472-.505 5.688-4.689 10.332-10.22 11.345l-.126.018zM303 469.866s1.714-10.043 12-7.433c-1.999 5.204-6.932 8.26-12 7.433z"/>
        <path fill="#FF5926" d="M303.399 468.702c4.62.43 9.03-2.021 11.117-6.177a9.963 9.963 0 0 0-7.454 1.115 9.557 9.557 0 0 0-3.645 5.062h-.018zm.984 1.298a15.92 15.92 0 0 1-1.822-.11.62.62 0 0 1-.547-.749c.6-2.649 2.158-4.98 4.374-6.543a11.562 11.562 0 0 1 9.112-1.133.62.62 0 0 1 .456.84 12.756 12.756 0 0 1-11.591 7.677l.018.018zM188 319.798s2.712-15.051 19-11.153c-3.158 7.81-10.973 12.397-19 11.153z"/>
        <path fill="#182138" d="M189.13 318.986c6.9.688 13.493-3.14 16.599-9.634-3.8-.95-7.802-.298-11.147 1.814-2.61 1.908-4.531 4.682-5.453 7.875v-.055zm1.453 2.014a22.458 22.458 0 0 1-2.752-.181.927.927 0 0 1-.65-.394 1.017 1.017 0 0 1-.164-.768c.883-4.134 3.211-7.772 6.526-10.196 3.618-2.486 8.24-3.084 13.727-1.814a.94.94 0 0 1 .615.484c.129.246.15.54.06.804-2.958 7.302-9.793 12.045-17.362 12.047V321z"/>
        <path fill="#E84F09" d="M203 298.204s3.646-9.787 14-4.776c-3.099 4.845-8.865 6.812-14 4.776z"/>
        <path fill="#FF5926" d="M204.501 297.108c4.368 1.396 9.1-.172 11.93-3.954a9.337 9.337 0 0 0-7.416-.416c-1.927.879-3.517 2.419-4.514 4.37zm3.332 1.892a13.352 13.352 0 0 1-4.406-.795.621.621 0 0 1-.372-.346.676.676 0 0 1-.004-.524c1.107-2.543 3.066-4.565 5.498-5.676a10.848 10.848 0 0 1 9.081.757.633.633 0 0 1 .344.407.674.674 0 0 1-.075.54c-2.322 3.432-6.054 5.49-10.048 5.542l-.018.095z"/>
        <path fill="#182138" d="M233.174 602.58l.536-.175 1.606-.595a66.092 66.092 0 0 0 5.961-2.78c11.519-6.07 21.094-15.15 27.664-26.231a77.513 77.513 0 0 0 6.889-15.529 92.556 92.556 0 0 0 3.57-17.89c.634-6.321.801-12.68.5-19.025-.286-6.575-.465-13.378-.269-19.953.197-6.575.732-13.098 1.571-19.34a143.628 143.628 0 0 1 3.57-17.873c1.399-5.279 3.188-10.451 5.354-15.476a87.249 87.249 0 0 1 6.496-12.24 74.378 74.378 0 0 1 6.372-8.604 62.442 62.442 0 0 1 4.73-5.002l1.784-1.661a.924.924 0 0 1 1.203.034.879.879 0 0 1 .118 1.173l-1.517 1.748c-.982 1.19-2.338 2.99-3.98 5.334a88.657 88.657 0 0 0-10.477 20.984 124.309 124.309 0 0 0-4.158 15.057 159.727 159.727 0 0 0-2.552 17.277c-.59 6.033-.857 12.241-.857 18.694 0 6.453.196 12.8.607 19.41.418 6.763.263 13.548-.464 20.286a87.63 87.63 0 0 1-4.212 19.393 74.367 74.367 0 0 1-8.12 16.875 68.77 68.77 0 0 1-10.816 12.94 68.89 68.89 0 0 1-21.043 13.693 55.18 55.18 0 0 1-6.692 2.273l-1.785.455-.66.14c-.909.16-1.793-.384-2.038-1.256a1.74 1.74 0 0 1 1.092-2.102l.017-.035zM55.358 534.237l-1.283-2.146a156.666 156.666 0 0 1-3.515-6.195 76.317 76.317 0 0 1-4.728-10.26 62.818 62.818 0 0 1-1.072-3.22 44.626 44.626 0 0 1-.896-3.52 40.526 40.526 0 0 1-.861-7.936 32.65 32.65 0 0 1 1.09-8.8c.087-.369.21-.756.333-1.126.123-.37.194-.668.405-1.214l.808-2.006 1.125-2.253c.404-.721.826-1.39 1.248-2.094a58.723 58.723 0 0 1 13.884-14.078c5.272-4.065 10.738-7.814 15.589-12.319a91.891 91.891 0 0 0 13.304-14.853 85.032 85.032 0 0 0 9.49-17.369c2.479-6.23 4.219-12.582 6.187-18.847.967-3.133 1.95-6.23 3.023-9.257 1.072-3.027 2.302-5.948 3.515-8.799a69.698 69.698 0 0 1 4.359-7.937c1.493-2.358 2.952-4.716 4.446-6.916a64.194 64.194 0 0 1 9.473-11.227 43.585 43.585 0 0 1 9.332-6.547 36.159 36.159 0 0 1 6.784-2.674 20.694 20.694 0 0 1 1.846-.476l.632-.158a.984.984 0 0 1 .563 1.865l-.58.212c-.387.14-.967.334-1.758.65a42.001 42.001 0 0 0-6.063 3.116 40.119 40.119 0 0 0-8.05 6.757 63.543 63.543 0 0 0-8.102 11.105c-1.318 2.182-2.618 4.522-3.99 7.039-1.37 2.516-2.46 4.892-3.514 7.567a167.34 167.34 0 0 0-5.607 17.598c-1.757 6.247-3.515 12.917-6.028 19.463a81.6 81.6 0 0 1-10.281 19.006 92.327 92.327 0 0 1-14.552 15.838c-5.378 4.681-11.16 8.43-16.292 12.196a53.089 53.089 0 0 0-12.812 12.213c-.352.563-.756 1.144-1.072 1.76l-.88 1.636-.843 1.989c0 .105-.193.545-.299.81-.105.263-.21.598-.298.897a27.187 27.187 0 0 0-1.108 7.285 35.47 35.47 0 0 0 .563 6.934c.193 1.109.44 2.182.668 3.168.228.985.544 2.041.86 3.044a80.677 80.677 0 0 0 3.973 9.82c1.283 2.71 2.372 4.822 3.11 6.265l1.143 2.217a1.884 1.884 0 0 1-.876 2.317c-.83.445-1.86.206-2.41-.557l.017.017z"/>
        <circle cx="310.5" cy="582.5" r="4.5" fill="#182138" fill-rule="nonzero" transform="rotate(-.07 310.5 582.5)"/>
        <circle cx="360.5" cy="542.5" r="4.5" fill="#182138" fill-rule="nonzero" transform="rotate(-.07 360.5 542.5)"/>
        <circle cx="314.5" cy="555.5" r="8.5" fill="#182138" fill-rule="nonzero" transform="rotate(-.07 314.5 555.5)"/>
        <circle cx="344" cy="569" r="12" fill="#182138" fill-rule="nonzero" transform="rotate(-.07 344 569)"/>
        <ellipse cx="104.5" cy="638" fill="#FF5926" fill-rule="nonzero" opacity=".2" rx="14.5" ry="14"/>
        <ellipse cx="179.5" cy="638" fill="#FF5926" fill-rule="nonzero" opacity=".2" rx="14.5" ry="14"/>
    </g>
</svg>
