<svg xmlns="http://www.w3.org/2000/svg" width="265" height="50" viewBox="0 0 265 50">
    <g fill="none" fill-rule="nonzero">
        <path fill="#E94E24" d="M60.985 21.736c-.187-1.328-1.734-1.792-3.594-2.255a27.335 27.335 0 0 1-7.812-3.785 2.49 2.49 0 0 0-3.454 0 7.311 7.311 0 0 1-3.437 2.425c-.922.387-1.97.356-3.125.711-.654.18-1.213.6-1.563 1.174a4.598 4.598 0 0 1 2.047 0c1.025.238 2.072.372 3.125.402a13.327 13.327 0 0 0 3.235-.541c.563-.15 1.138-.254 1.718-.309 1.563 0 2.063.85 2.735 2.317A9.374 9.374 0 0 0 53.704 26c.37.01.718-.179.906-.495.844-1.39-.766-2.858-.766-2.858a6.45 6.45 0 0 0 2.594.99c3.125.725 4.735-.48 4.547-1.9z"/>
        <path fill="#E94E24" d="M53.917 28.513a16.82 16.82 0 0 1-4.77-6.937 2.21 2.21 0 0 0-2.166-1.51c-.342.004-.683.05-1.014.135a12.713 12.713 0 0 1-3.165.408 10.756 10.756 0 0 1-3.028-.408 5.568 5.568 0 0 0-1.378-.196 2.107 2.107 0 0 0-1.696.68 3.425 3.425 0 0 0-.59 2.932c.302 1.42 1.226 1.783 1.665 1.783a.91.91 0 0 0 .757-.393s-.303 2.327.969 3.023c.19.105.403.162.62.166.696-.08 1.26-.6 1.394-1.285 0 0 0 2.403 1.242 2.902.197.078.408.119.62.12a1.513 1.513 0 0 0 1.363-1.239c.097.78.366 1.529.788 2.192a2.923 2.923 0 0 0 2.271 1.36c.207 0 .412-.035.606-.106 1.408-.529.757-2.539.757-2.539a8.77 8.77 0 0 0 1.787 2.07 5.427 5.427 0 0 0 3.3 1.315 1.59 1.59 0 0 0 1.621-.846c.515-1.24-.575-2.357-1.953-3.627z"/>
        <path fill="#232639" d="M53.512 39.575c-.332-.751 0-1.339-.807-1.747-.806-.408-1.58.67-2.466.376-3.163-1.16-4.617-.963-6.025-.31a5.108 5.108 0 0 0-1.043.75c-.095 0-.206 0-.143-.146a2.83 2.83 0 0 1 .57-.751A5.263 5.263 0 0 1 43.076 36 10.574 10.574 0 0 1 38 37.894c.643 2.1 2.163 3.795 4.143 4.62 1.85.603 4.206-.98 5.423-1.307 2.072-.538 3.337-.849 6.452 1.633a.571.571 0 0 0 .652.1.607.607 0 0 0 .328-.59c-.095-.8-1.012-1.698-1.486-2.775zM34.15 13.444a4.043 4.043 0 0 1-2.438-.88 6.107 6.107 0 0 0-.548 4.222c.394 1.418 1.67 2.34 3.047 2.2.8.016 1.581-.267 2.209-.799 1.678.07 3.246-.893 4.037-2.477a5.338 5.338 0 0 0 .28-4.001c-.43-1.318-1.355-2.384-2.55-2.943a5.58 5.58 0 0 0-4.311 0c-.967.265-1.993-.025-2.712-.766 0 0-.67 2.478.7 3.7.608.493 1.33.798 2.088.88a7.39 7.39 0 0 0 2.437-.179.165.165 0 0 1 .176.1.188.188 0 0 1-.038.21 3.573 3.573 0 0 1-2.377.733zm2.925 2.51c.404-.055.712-.412.731-.847a.77.77 0 0 0-.148-.582.67.67 0 0 0-.507-.266c-.067 0-.122-.058-.122-.13 0-.072.055-.13.122-.13a.999.999 0 0 1 .473 0c.27.023.52.167.688.396.168.229.239.522.195.81-.087.648-.641 1.104-1.25 1.026h-.167c-.071.005-.133-.053-.137-.13-.004-.076.05-.142.122-.147z"/>
        <path fill="#232639" d="M43.865 32.263a2.773 2.773 0 0 1-1.027-.295 2.828 2.828 0 0 1-1.211-2.334 1.804 1.804 0 0 1-2.069.405c-1.058-.483-1.21-2.163-1.15-2.91a1.667 1.667 0 0 1-1.624-.373 3.475 3.475 0 0 1-.95-1.976 4.1 4.1 0 0 1 1.119-3.859c.213-.18.438-.347.674-.497a3.72 3.72 0 0 0-3.494 0 6.488 6.488 0 0 0-1.993 1.835c-.506.7-.827 1.152-1.272 1.712a7.591 7.591 0 0 1-1.747 1.696 13.056 13.056 0 0 0-4.291-2.318 1.824 1.824 0 0 1-.874-.623 4.875 4.875 0 0 0-.965-.933 3.426 3.426 0 0 0-.69-2.132l-3.387-4.465 5.686 1.182h.475c.26.217.543.405.843.56a9.222 9.222 0 0 0 .95 6.224 3.607 3.607 0 0 0 2.82 1.213c.828-.544 1.38-2.676 2.651-3.64a7.664 7.664 0 0 0-1.532.42 3.429 3.429 0 0 1-1.717 0 10.038 10.038 0 0 0-1.44-4.045 1.576 1.576 0 0 1-.2-1.058 4.074 4.074 0 0 0 0-.95 3.462 3.462 0 0 0 .113-4.433 3.338 3.338 0 0 0-4.293-.825c-1.436.831-2.067 2.597-1.49 4.17l-3.495-.778a19.51 19.51 0 0 0-4.766-9.024 13.492 13.492 0 0 0-7.05-4.2c-.337-.094-.812.42-.567.73l8.904 11.871L.507 9.346c-.383 0-.674.53-.398.856a13.526 13.526 0 0 0 6.805 4.667 18.839 18.839 0 0 0 10.069.545l2.176 2.878a3.318 3.318 0 0 0-1.824.84 3.476 3.476 0 0 0-.551 4.434 3.326 3.326 0 0 0 2.092 1.473c.862.19 1.764.024 2.505-.461.136-.087.26-.192.368-.311a4.534 4.534 0 0 0 1.533.202 12.322 12.322 0 0 0 5.21 4.667c.456.17.956.17 1.41 0a11.15 11.15 0 0 0 3.311-1.789.123.123 0 0 1 .176.008.128.128 0 0 1-.007.179c-.325.395-.684.76-1.073 1.089a9.587 9.587 0 0 0 2.712 4.325 10.734 10.734 0 0 0-4.781 3.47c-2.146 3.874 3.065 5.647 4.598 6.798 2.467 1.805 2.574 2.303 3.172 6.224 0 .404.291.56.536.56a.61.61 0 0 0 .49-.233c.46-.623.369-1.774.783-2.848.413-1.073 1.149-1.664.766-2.473-.383-.81-1.349-.42-1.747-1.385a8.861 8.861 0 0 0-.383-.856c-1.058-2.194-1.748-2.878-2.836-3.33a5.345 5.345 0 0 0-1.011-.264.124.124 0 0 1-.08-.116c0-.052.032-.099.08-.117a7.67 7.67 0 0 1 1.027 0c2.143.048 4.26-.49 6.13-1.556 1.704-.793 2.593-2.722 2.1-4.559zM24.983 11.26c.463 0 .908.187 1.235.52.328.332.512.783.512 1.253.02.15.02.302 0 .452-.969-.28-1.99.231-2.36 1.182a1.78 1.78 0 0 1-1.033-1.983 1.754 1.754 0 0 1 1.707-1.424h-.061zM17.81 21.668a1.765 1.765 0 0 1 1.54-1.777 1.75 1.75 0 0 1 1.909 1.357 1.923 1.923 0 0 0-.95 2.023 1.724 1.724 0 0 1-1.655-.1c-.5-.313-.81-.86-.828-1.456l-.016-.047zM166.394 26.916c.63-.94.961-2.041.951-3.166a4.374 4.374 0 0 0-1.353-3.5 4.56 4.56 0 0 0-3.606-1.226 4.739 4.739 0 0 0-3.12 1.01.754.754 0 0 0-.13 1.007.789.789 0 0 0 1.004.246 3.159 3.159 0 0 1 1.232-.428V28.4c0 2.478.11 9.896.11 9.896a.726.726 0 0 0 .732.704c3.828-.084 6.863-3.19 6.785-6.944a6.459 6.459 0 0 0-2.605-5.14zm-3.041-6.118c1.56 0 2.105 1.53 2.105 2.89a4.159 4.159 0 0 1-2.152 3.825c.016-1.713.047-6.654.047-6.654v-.061zm-.14 16.58v-8.213a6.27 6.27 0 0 0 1.98-1.117 5.153 5.153 0 0 1 1.716 3.992c.272 2.443-1.289 4.722-3.696 5.4v-.061z"/>
        <path fill="#E94E24" d="M82.41 12h-6.805C74.72 12 74 12.707 74 13.58c0 0 0 10.446.112 13.938 0 4.093.29 16.403.29 16.403a1.213 1.213 0 0 0 1.211 1.063c.62 0 1.141-.457 1.212-1.063 0 0 .257-12.279.257-16.387 0-2.608 0-8.707.096-12.437h3.58c0 3.73 0 9.845.112 12.437 0 4.093.289 16.403.289 16.403A1.213 1.213 0 0 0 82.37 45c.62 0 1.14-.457 1.212-1.063 0 0 .24-12.295.305-16.403 0-3.477.112-13.938.112-13.938.004-.42-.16-.823-.459-1.122-.298-.3-.704-.47-1.13-.474zM125.642 41.381h-.742c0-3.013.221-10.928.253-14.05.032-3.123.11-13.77.11-13.77A1.57 1.57 0 0 0 123.686 12h-5.478a1.57 1.57 0 0 0-1.578 1.561s0 7.806-.38 13.239a77.038 77.038 0 0 1-1.799 14.581h-.868a1.493 1.493 0 0 0-1.147.427c-.303.299-.46.713-.432 1.135.11 1.327.363 3.856.505 4.964.04.593.521 1.062 1.121 1.093.297.004.584-.109.797-.314.214-.205.336-.485.34-.779V44.38h9.471v3.419a1.13 1.13 0 0 0 1.137 1.093 1.162 1.162 0 0 0 1.12-1.093c.143-1.109.395-3.638.506-4.965a1.459 1.459 0 0 0-1.358-1.452zm-6.44-14.675c.331-3.996.442-8.742.49-11.771h2.399c0 3.684 0 9.726.094 12.286 0 3.248.205 11.085.269 14.051h-5.447a75.96 75.96 0 0 0 2.195-14.566zM239.674 41.381h-.82c0-3.013.22-10.928.268-14.05.047-3.123.11-13.77.11-13.77A1.57 1.57 0 0 0 237.654 12h-5.399a1.57 1.57 0 0 0-1.578 1.561s0 7.806-.379 13.239a76.444 76.444 0 0 1-1.847 14.581h-.868c-.428-.033-.85.12-1.153.421-.304.3-.46.717-.425 1.14.11 1.328.363 3.857.505 4.965.04.599.53 1.07 1.136 1.093.613 0 1.112-.487 1.12-1.093V44.38h9.472v3.419c.004.294.126.574.339.78.213.204.5.317.797.313.6-.03 1.082-.5 1.12-1.093.143-1.109.395-3.638.506-4.965a1.458 1.458 0 0 0-1.326-1.452zm-6.472-14.675c.332-3.996.442-8.742.49-11.771h2.399c0 3.684 0 9.726.095 12.287 0 3.247.205 11.084.268 14.05h-5.383a75.978 75.978 0 0 0 2.131-14.566zM109.348 12.002c-5.02 0-8.766 3.337-8.766 8.132a9.183 9.183 0 0 0 3.446 7.192 60.21 60.21 0 0 1-2.093 7.913 27.79 27.79 0 0 1-3.698 7.835 1.203 1.203 0 0 0 .22 1.66 1.247 1.247 0 0 0 1.731-.188 29.804 29.804 0 0 0 4.234-8.1c.74-2.006 1.574-4.701 2.345-7.427.388.188.792.37 1.211.548.08 5.155.252 14.259.252 14.259.07.6.58 1.054 1.188 1.054s1.119-.453 1.189-1.054c0 0 .236-12.379.283-16.453 0-3.447.11-13.82.11-13.82a1.564 1.564 0 0 0-.494-1.126 1.578 1.578 0 0 0-1.158-.425zm-1.574 3.134s0 8.821.094 11.642a7.08 7.08 0 0 1-4.233-6.565c0-2.43 1.668-5.203 4.139-5.203v.126zM89.53 12c-.845 0-1.53.703-1.53 1.571 0 0 0 10.386.107 13.858 0 4.07.275 16.514.275 16.514A1.174 1.174 0 0 0 89.537 45c.59 0 1.087-.455 1.154-1.057 0 0 0-1.917.092-4.525C96.76 35.568 98 29.032 98 24.57 98 14.09 92.25 12 89.53 12zm1.283 24.51c0-3.44.123-7.101.153-9.05 0-3.362.092-10.574.107-12.38.918.298 3.869 1.98 3.869 9.521 0 7.542-2.966 10.967-4.16 11.863l.031.047zM137.484 35.54a64.34 64.34 0 0 1-2.216-9.224c0-.251-.122-.753-.167-1.098a28.243 28.243 0 0 0 3.627-11.908c.045-.654-.417-1.228-1.047-1.302-.629-.075-1.204.374-1.305 1.02-.425 2.479-1.518 8.393-4.553 11.829 0-5.193-.258-11.688-.258-11.688-.067-.601-.56-1.056-1.146-1.056-.586 0-1.079.455-1.146 1.056 0 0-.273 8.958-.273 14.292 0 6.417.273 16.442.273 16.442.067.601.56 1.055 1.146 1.055.586 0 1.079-.454 1.146-1.055 0 0 .227-8.378.273-14.779.304-.266.607-.533.895-.816.714 2.95 1.64 6.135 2.429 8.394a29.689 29.689 0 0 0 3.733 7.844 1.172 1.172 0 0 0 1.67.188c.485-.409.578-1.138.212-1.663a30.624 30.624 0 0 1-3.293-7.53zM183.395 12h-6.79c-.886 0-1.605.708-1.605 1.581 0 0 0 10.45.112 13.944 0 4.095.29 16.411.29 16.411A1.213 1.213 0 0 0 176.612 45c.62 0 1.141-.458 1.212-1.064 0 0 .24-12.3.289-16.41 0-2.61.08-8.712.096-12.443h3.58c0 3.731 0 9.85.096 12.442 0 4.095.289 16.411.289 16.411A1.213 1.213 0 0 0 183.387 45c.62 0 1.14-.458 1.212-1.064 0 0 .24-12.3.289-16.41 0-3.479.112-13.945.112-13.945 0-.42-.17-.821-.47-1.118a1.618 1.618 0 0 0-1.135-.463zM222.468 12c-5.039 0-8.798 3.333-8.798 8.121a9.152 9.152 0 0 0 3.444 7.182 60.651 60.651 0 0 1-2.149 7.95 27.785 27.785 0 0 1-3.727 7.823 1.197 1.197 0 0 0 .221 1.659 1.256 1.256 0 0 0 1.737-.188 29.707 29.707 0 0 0 4.202-8.137c.742-2.003 1.58-4.694 2.353-7.417.38.188.79.376 1.216.548.08 5.148.253 14.24.253 14.24.07.6.583 1.052 1.193 1.052.61 0 1.122-.453 1.192-1.053 0 0 .237-12.361.284-16.43 0-3.442.111-13.8.111-13.8a1.572 1.572 0 0 0-1.532-1.55zm-1.58 3.13c0 3.395 0 8.637.095 11.454a7.07 7.07 0 0 1-4.249-6.557c0-2.253 1.675-5.023 4.154-5.023v.126zM202.536 12c-.848 0-1.536.703-1.536 1.571 0 0 0 10.386.108 13.858 0 4.07.276 16.514.276 16.514a1.177 1.177 0 0 0 1.16 1.057c.593 0 1.092-.455 1.16-1.057 0 0 0-1.917.092-4.525C210.309 35.27 211 29.032 211 24.57c0-10.48-5.699-12.57-8.464-12.57zm1.29 24.84c0-3.44.123-7.447.154-9.426 0-3.363.092-10.575.123-12.382.922.299 3.886 1.98 3.886 9.522s-3.226 11.438-4.163 12.24v.047zM251.536 35.53a63.59 63.59 0 0 1-2.233-9.158l-.197-1.349a28.439 28.439 0 0 0 3.478-11.65 1.252 1.252 0 0 0-.248-.909 1.176 1.176 0 0 0-.8-.456c-.63-.075-1.205.374-1.306 1.02-.41 2.43-1.52 8.138-4.405 11.62 0-5.16-.258-11.464-.258-11.464-.067-.601-.56-1.055-1.147-1.055-.586 0-1.08.454-1.147 1.055 0 0-.273 8.954-.273 14.286 0 6.413.273 16.433.273 16.433.068.602.56 1.055 1.147 1.055s1.08-.453 1.147-1.055c0 0 .243-8.515.273-14.944.289-.25.577-.517.85-.8.715 2.996 1.656 6.273 2.477 8.547a29.658 29.658 0 0 0 3.736 7.84 1.174 1.174 0 0 0 1.67.188 1.25 1.25 0 0 0 .198-1.662 30.813 30.813 0 0 1-3.235-7.542zM264.069 41.71l-4.192-.477V26.51l3.783-.292c.544-.067.955-.552.955-1.13 0-.577-.41-1.062-.955-1.13l-3.783-.291v-8.853l4.192-.492c.567-.097.97-.635.928-1.238-.042-.603-.514-1.073-1.09-1.083h-5.578c-.734 0-1.329.626-1.329 1.399V42.6c0 .773.595 1.399 1.329 1.399h5.579c.575-.01 1.047-.48 1.089-1.083.042-.603-.361-1.14-.928-1.238v.03zM152.507 12.055c-.675 0-1.06.327-1.237 1.091l-5.396 19.865h-.112s.24-1.95.257-2.604v-3.025c0-5.24-.29-14.205-.29-14.205 0-.65-.542-1.177-1.211-1.177-.67 0-1.213.527-1.213 1.177 0 0-.305 8.903-.305 14.205 0 6.377.305 16.34.305 16.34-.06.634.412 1.198 1.063 1.27.65.072 1.242-.374 1.33-1.004 1.493-5.349 5.315-19.818 5.315-19.818l.113-.468h.112s-.209 2.011-.24 2.682v.998c0 6.377.288 16.34.288 16.34.071.598.593 1.05 1.213 1.05.62 0 1.141-.452 1.212-1.05 0 0 .289-9.885.289-16.34 0-5.24-.29-14.205-.29-14.205-.033-.624-.56-1.115-1.203-1.122zM192.492 12C188.23 12 187 22.218 187 28.257c0 6.04 1.229 16.743 5.492 16.743C196.756 45 198 34.282 198 28.257 198 22.233 196.756 12 192.492 12zm.182 30.512a.225.225 0 0 1-.182.094.225.225 0 0 1-.182-.094c-1.183-1.47-2.336-6.353-2.336-14.27 0-7.918 1.153-12.299 2.336-13.77a.225.225 0 0 1 .182-.094c.072 0 .14.035.182.094 1.184 1.471 2.337 5.852 2.337 13.77 0 7.917-1.183 12.752-2.337 14.223v.047z"/>
    </g>
</svg>
